M48
;Layer_Color=9474304
;FILE_FORMAT=2:5
INCH,TZ
;TYPE=PLATED
T1F00S00C0.01299
T2F00S00C0.01508
T3F00S00C0.03000
%
T01
X65862Y211760
Y216484
X70587
Y211760
T02
X98200Y43900
X152200
X111760Y124899
X94000Y145000
X162993Y148300
X207800Y139200
X197900Y83100
X202300Y173300
X194700Y187300
X196500Y213000
X199400Y217600
X191322Y231278
X225000Y184900
X156867Y166681
X123100Y232500
X115700Y249500
X110000Y245500
X92900Y215300
X87200Y205900
X81800Y207900
X76100Y206300
X68908Y201717
X68200Y197500
X62900Y200200
X60300Y197300
X49200Y209300
X49000Y216000
X52100Y213700
X46100Y218600
X54500Y232500
X78119Y228300
X77100Y222000
T03
X251000Y128500
X212591Y161909
M30
