  0
SECTION
  2
BLOCKS
  0
ENDSEC
  0
SECTION
  2
ENTITIES
  0
LINE
  8
0
 10
74.4856
 20
0.00393677
 11
74.6107
 21
0.0157623
  0
LINE
  8
0
 10
74.6107
 20
0.0157623
 11
74.7348
 21
0.0354156
  0
LINE
  8
0
 10
74.7348
 20
0.0354156
 11
74.8574
 21
0.0628204
  0
LINE
  8
0
 10
74.8574
 20
0.0628204
 11
74.978
 21
0.0978851
  0
LINE
  8
0
 10
74.978
 20
0.0978851
 11
75.0962
 21
0.140442
  0
LINE
  8
0
 10
75.0962
 20
0.140442
 11
75.2116
 21
0.190338
  0
LINE
  8
0
 10
75.2116
 20
0.190338
 11
75.3235
 21
0.247375
  0
LINE
  8
0
 10
75.3235
 20
0.247375
 11
75.4317
 21
0.31134
  0
LINE
  8
0
 10
75.4317
 20
0.31134
 11
75.5356
 21
0.381958
  0
LINE
  8
0
 10
75.5356
 20
0.381958
 11
75.6348
 21
0.458969
  0
LINE
  8
0
 10
75.6348
 20
0.458969
 11
75.7291
 21
0.542053
  0
LINE
  8
0
 10
75.7291
 20
0.542053
 11
75.8179
 21
0.630905
  0
LINE
  8
0
 10
75.8179
 20
0.630905
 11
75.901
 21
0.725143
  0
LINE
  8
0
 10
75.901
 20
0.725143
 11
75.978
 21
0.824417
  0
LINE
  8
0
 10
75.978
 20
0.824417
 11
76.0487
 21
0.928345
  0
LINE
  8
0
 10
76.0487
 20
0.928345
 11
76.1126
 21
1.03648
  0
LINE
  8
0
 10
76.1126
 20
1.03648
 11
76.1697
 21
1.14844
  0
LINE
  8
0
 10
76.1697
 20
1.14844
 11
76.2196
 21
1.26375
  0
LINE
  8
0
 10
76.2196
 20
1.26375
 11
76.2621
 21
1.38196
  0
LINE
  8
0
 10
76.2621
 20
1.38196
 11
76.2972
 21
1.50261
  0
LINE
  8
0
 10
76.2972
 20
1.50261
 11
76.3246
 21
1.62523
  0
LINE
  8
0
 10
76.3246
 20
1.62523
 11
76.3442
 21
1.74933
  0
LINE
  8
0
 10
76.3442
 20
1.74933
 11
76.3561
 21
1.8744
  0
LINE
  8
0
 10
76.3561
 20
1.8744
 11
76.36
 21
2
  0
LINE
  8
0
 10
76.36
 20
2
 11
76.36
 21
53
  0
LINE
  8
0
 10
76.36
 20
53
 11
76.3561
 21
53.1256
  0
LINE
  8
0
 10
76.3561
 20
53.1256
 11
76.3442
 21
53.2507
  0
LINE
  8
0
 10
76.3442
 20
53.2507
 11
76.3246
 21
53.3748
  0
LINE
  8
0
 10
76.3246
 20
53.3748
 11
76.2972
 21
53.4974
  0
LINE
  8
0
 10
76.2972
 20
53.4974
 11
76.2621
 21
53.618
  0
LINE
  8
0
 10
76.2621
 20
53.618
 11
76.2196
 21
53.7362
  0
LINE
  8
0
 10
76.2196
 20
53.7362
 11
76.1697
 21
53.8516
  0
LINE
  8
0
 10
76.1697
 20
53.8516
 11
76.1126
 21
53.9635
  0
LINE
  8
0
 10
76.1126
 20
53.9635
 11
76.0487
 21
54.0717
  0
LINE
  8
0
 10
76.0487
 20
54.0717
 11
75.978
 21
54.1756
  0
LINE
  8
0
 10
75.978
 20
54.1756
 11
75.901
 21
54.2748
  0
LINE
  8
0
 10
75.901
 20
54.2748
 11
75.8179
 21
54.3691
  0
LINE
  8
0
 10
75.8179
 20
54.3691
 11
75.7291
 21
54.4579
  0
LINE
  8
0
 10
75.7291
 20
54.4579
 11
75.6348
 21
54.541
  0
LINE
  8
0
 10
75.6348
 20
54.541
 11
75.5356
 21
54.618
  0
LINE
  8
0
 10
75.5356
 20
54.618
 11
75.4317
 21
54.6887
  0
LINE
  8
0
 10
75.4317
 20
54.6887
 11
75.3235
 21
54.7526
  0
LINE
  8
0
 10
75.3235
 20
54.7526
 11
75.2116
 21
54.8097
  0
LINE
  8
0
 10
75.2116
 20
54.8097
 11
75.0962
 21
54.8596
  0
LINE
  8
0
 10
75.0962
 20
54.8596
 11
74.978
 21
54.9021
  0
LINE
  8
0
 10
74.978
 20
54.9021
 11
74.8574
 21
54.9372
  0
LINE
  8
0
 10
74.8574
 20
54.9372
 11
74.7348
 21
54.9646
  0
LINE
  8
0
 10
74.7348
 20
54.9646
 11
74.6107
 21
54.9842
  0
LINE
  8
0
 10
74.6107
 20
54.9842
 11
74.4856
 21
54.9961
  0
LINE
  8
0
 10
74.4856
 20
54.9961
 11
74.36
 21
55
  0
LINE
  8
0
 10
74.36
 20
55
 11
2
 21
55
  0
LINE
  8
0
 10
2
 20
55
 11
1.8744
 21
54.9961
  0
LINE
  8
0
 10
1.8744
 20
54.9961
 11
1.74933
 21
54.9842
  0
LINE
  8
0
 10
1.74933
 20
54.9842
 11
1.62523
 21
54.9646
  0
LINE
  8
0
 10
1.62523
 20
54.9646
 11
1.50261
 21
54.9372
  0
LINE
  8
0
 10
1.50261
 20
54.9372
 11
1.38196
 21
54.9021
  0
LINE
  8
0
 10
1.38196
 20
54.9021
 11
1.26375
 21
54.8596
  0
LINE
  8
0
 10
1.26375
 20
54.8596
 11
1.14844
 21
54.8097
  0
LINE
  8
0
 10
1.14844
 20
54.8097
 11
1.03648
 21
54.7526
  0
LINE
  8
0
 10
1.03648
 20
54.7526
 11
0.928345
 21
54.6887
  0
LINE
  8
0
 10
0.928345
 20
54.6887
 11
0.824417
 21
54.618
  0
LINE
  8
0
 10
0.824417
 20
54.618
 11
0.725143
 21
54.541
  0
LINE
  8
0
 10
0.725143
 20
54.541
 11
0.630905
 21
54.4579
  0
LINE
  8
0
 10
0.630905
 20
54.4579
 11
0.542053
 21
54.3691
  0
LINE
  8
0
 10
0.542053
 20
54.3691
 11
0.458969
 21
54.2748
  0
LINE
  8
0
 10
0.458969
 20
54.2748
 11
0.381958
 21
54.1756
  0
LINE
  8
0
 10
0.381958
 20
54.1756
 11
0.31134
 21
54.0717
  0
LINE
  8
0
 10
0.31134
 20
54.0717
 11
0.247375
 21
53.9635
  0
LINE
  8
0
 10
0.247375
 20
53.9635
 11
0.190338
 21
53.8516
  0
LINE
  8
0
 10
0.190338
 20
53.8516
 11
0.140442
 21
53.7362
  0
LINE
  8
0
 10
0.140442
 20
53.7362
 11
0.0978851
 21
53.618
  0
LINE
  8
0
 10
0.0978851
 20
53.618
 11
0.0628204
 21
53.4974
  0
LINE
  8
0
 10
0.0628204
 20
53.4974
 11
0.0354156
 21
53.3748
  0
LINE
  8
0
 10
0.0354156
 20
53.3748
 11
0.0157623
 21
53.2507
  0
LINE
  8
0
 10
0.0157623
 20
53.2507
 11
0.00393677
 21
53.1256
  0
LINE
  8
0
 10
0.00393677
 20
53.1256
 11
0
 21
53
  0
LINE
  8
0
 10
0
 20
53
 11
0
 21
2
  0
LINE
  8
0
 10
0
 20
2
 11
0.00393677
 21
1.8744
  0
LINE
  8
0
 10
0.00393677
 20
1.8744
 11
0.0157623
 21
1.74933
  0
LINE
  8
0
 10
0.0157623
 20
1.74933
 11
0.0354156
 21
1.62523
  0
LINE
  8
0
 10
0.0354156
 20
1.62523
 11
0.0628204
 21
1.50261
  0
LINE
  8
0
 10
0.0628204
 20
1.50261
 11
0.0978851
 21
1.38196
  0
LINE
  8
0
 10
0.0978851
 20
1.38196
 11
0.140442
 21
1.26375
  0
LINE
  8
0
 10
0.140442
 20
1.26375
 11
0.190338
 21
1.14844
  0
LINE
  8
0
 10
0.190338
 20
1.14844
 11
0.247375
 21
1.03648
  0
LINE
  8
0
 10
0.247375
 20
1.03648
 11
0.31134
 21
0.928345
  0
LINE
  8
0
 10
0.31134
 20
0.928345
 11
0.381958
 21
0.824417
  0
LINE
  8
0
 10
0.381958
 20
0.824417
 11
0.458969
 21
0.725143
  0
LINE
  8
0
 10
0.458969
 20
0.725143
 11
0.542053
 21
0.630905
  0
LINE
  8
0
 10
0.542053
 20
0.630905
 11
0.630905
 21
0.542053
  0
LINE
  8
0
 10
0.630905
 20
0.542053
 11
0.725143
 21
0.458969
  0
LINE
  8
0
 10
0.725143
 20
0.458969
 11
0.824417
 21
0.381958
  0
LINE
  8
0
 10
0.824417
 20
0.381958
 11
0.928345
 21
0.31134
  0
LINE
  8
0
 10
0.928345
 20
0.31134
 11
1.03648
 21
0.247375
  0
LINE
  8
0
 10
1.03648
 20
0.247375
 11
1.14844
 21
0.190338
  0
LINE
  8
0
 10
1.14844
 20
0.190338
 11
1.26375
 21
0.140442
  0
LINE
  8
0
 10
1.26375
 20
0.140442
 11
1.38196
 21
0.0978851
  0
LINE
  8
0
 10
1.38196
 20
0.0978851
 11
1.50261
 21
0.0628204
  0
LINE
  8
0
 10
1.50261
 20
0.0628204
 11
1.62523
 21
0.0354156
  0
LINE
  8
0
 10
1.62523
 20
0.0354156
 11
1.74933
 21
0.0157623
  0
LINE
  8
0
 10
1.74933
 20
0.0157623
 11
1.8744
 21
0.00393677
  0
LINE
  8
0
 10
1.8744
 20
0.00393677
 11
2
 21
0
  0
LINE
  8
0
 10
2
 20
0
 11
74.36
 21
0
  0
LINE
  8
0
 10
74.36
 20
0
 11
74.4856
 21
0.00393677
  0
ENDSEC
  0
SECTION
  2
OBJECTS
  0
DICTIONARY
  0
ENDSEC
  0
EOF
