G04 Layer_Color=16711935*
%FSLAX25Y25*%
%MOIN*%
G70*
G01*
G75*
%ADD11C,0.01000*%
%ADD61C,0.00050*%
%ADD67C,0.00787*%
%ADD68C,0.00500*%
%ADD154C,0.00600*%
D11*
X333151Y39370D02*
X366500D01*
X333151Y255906D02*
X366500D01*
X365500Y39370D02*
Y130442D01*
Y161633D02*
Y255906D01*
Y39370D02*
X367500Y45370D01*
X363500D02*
X365500Y39370D01*
X363500Y249905D02*
X365500Y255906D01*
X367500Y249905D01*
X39370Y249057D02*
Y281500D01*
X340000Y249057D02*
Y281500D01*
X39370Y280500D02*
X172490D01*
X203680D02*
X340000D01*
X39370D02*
X45370Y278500D01*
X39370Y280500D02*
X45370Y282500D01*
X334000D02*
X340000Y280500D01*
X334000Y278500D02*
X340000Y280500D01*
D61*
X332126Y39370D02*
X332621Y39386D01*
X47244Y39370D02*
X332126D01*
X39370Y47244D02*
Y248031D01*
X39386Y248526D01*
X39432Y249019D01*
X39509Y249507D01*
X39617Y249990D01*
X39755Y250465D01*
X39923Y250930D01*
X40119Y251384D01*
X40344Y251825D01*
X40596Y252251D01*
X40874Y252660D01*
X41177Y253050D01*
X41504Y253422D01*
X41854Y253771D01*
X42225Y254098D01*
X42616Y254402D01*
X43025Y254680D01*
X43451Y254931D01*
X43892Y255156D01*
X44346Y255353D01*
X44811Y255520D01*
X45286Y255658D01*
X45769Y255766D01*
X46257Y255843D01*
X46750Y255890D01*
X47244Y255906D01*
X332126D01*
X332621Y255890D01*
X333113Y255843D01*
X333602Y255766D01*
X334084Y255658D01*
X334559Y255520D01*
X335024Y255353D01*
X335479Y255156D01*
X335919Y254931D01*
X336345Y254680D01*
X336754Y254402D01*
X337145Y254098D01*
X337516Y253771D01*
X337866Y253422D01*
X338193Y253050D01*
X338496Y252660D01*
X338774Y252251D01*
X339026Y251825D01*
X339251Y251384D01*
X339447Y250930D01*
X339615Y250465D01*
X339753Y249990D01*
X339861Y249507D01*
X339938Y249019D01*
X339985Y248526D01*
X340000Y248031D01*
Y47244D02*
Y248031D01*
X339985Y46750D02*
X340000Y47244D01*
X339938Y46257D02*
X339985Y46750D01*
X339861Y45769D02*
X339938Y46257D01*
X339753Y45286D02*
X339861Y45769D01*
X339615Y44811D02*
X339753Y45286D01*
X339447Y44346D02*
X339615Y44811D01*
X339251Y43892D02*
X339447Y44346D01*
X339026Y43451D02*
X339251Y43892D01*
X338774Y43025D02*
X339026Y43451D01*
X338496Y42616D02*
X338774Y43025D01*
X338193Y42225D02*
X338496Y42616D01*
X337866Y41854D02*
X338193Y42225D01*
X337516Y41504D02*
X337866Y41854D01*
X337145Y41177D02*
X337516Y41504D01*
X336754Y40874D02*
X337145Y41177D01*
X336345Y40596D02*
X336754Y40874D01*
X335919Y40344D02*
X336345Y40596D01*
X335479Y40119D02*
X335919Y40344D01*
X335024Y39923D02*
X335479Y40119D01*
X334559Y39755D02*
X335024Y39923D01*
X334084Y39617D02*
X334559Y39755D01*
X333602Y39509D02*
X334084Y39617D01*
X333113Y39432D02*
X333602Y39509D01*
X332621Y39386D02*
X333113Y39432D01*
D67*
X60752Y250580D02*
X92248D01*
Y235620D02*
Y250580D01*
X60752Y235620D02*
X92248D01*
X60752D02*
Y250580D01*
D68*
X323525Y135677D02*
X326675D01*
X323525D02*
Y140795D01*
X326675D01*
Y135677D02*
Y140795D01*
D154*
X364101Y136041D02*
Y132042D01*
X367100D01*
X366100Y134042D01*
Y135041D01*
X367100Y136041D01*
X369099D01*
X370099Y135041D01*
Y133042D01*
X369099Y132042D01*
X364101Y142039D02*
Y138040D01*
X367100D01*
X366100Y140040D01*
Y141039D01*
X367100Y142039D01*
X369099D01*
X370099Y141039D01*
Y139040D01*
X369099Y138040D01*
X371098Y145038D02*
X370099Y146038D01*
X369099D01*
Y145038D01*
X370099D01*
Y146038D01*
X371098Y145038D01*
X372098Y144038D01*
X365100Y150037D02*
X364101Y151036D01*
Y153035D01*
X365100Y154035D01*
X369099D01*
X370099Y153035D01*
Y151036D01*
X369099Y150037D01*
X365100D01*
Y156035D02*
X364101Y157034D01*
Y159034D01*
X365100Y160033D01*
X369099D01*
X370099Y159034D01*
Y157034D01*
X369099Y156035D01*
X365100D01*
X174090Y281899D02*
X178088D01*
Y280900D01*
X174090Y276901D01*
Y275901D01*
X184086Y281899D02*
X182087Y280900D01*
X180088Y278900D01*
Y276901D01*
X181087Y275901D01*
X183087D01*
X184086Y276901D01*
Y277901D01*
X183087Y278900D01*
X180088D01*
X187085Y274902D02*
X188085Y275901D01*
Y276901D01*
X187085D01*
Y275901D01*
X188085D01*
X187085Y274902D01*
X186086Y273902D01*
X192084Y280900D02*
X193083Y281899D01*
X195083D01*
X196082Y280900D01*
Y279900D01*
X195083Y278900D01*
X194083D01*
X195083D01*
X196082Y277901D01*
Y276901D01*
X195083Y275901D01*
X193083D01*
X192084Y276901D01*
X202080Y281899D02*
X200081Y280900D01*
X198082Y278900D01*
Y276901D01*
X199082Y275901D01*
X201081D01*
X202080Y276901D01*
Y277901D01*
X201081Y278900D01*
X198082D01*
M02*
