G04 Layer_Color=8388736*
%FSLAX25Y25*%
%MOIN*%
G70*
G01*
G75*
%ADD70O,0.04362X0.02197*%
%ADD71O,0.02197X0.04362*%
%ADD72R,0.11449X0.11449*%
G04:AMPARAMS|DCode=73|XSize=47.56mil|YSize=39.69mil|CornerRadius=0mil|HoleSize=0mil|Usage=FLASHONLY|Rotation=140.000|XOffset=0mil|YOffset=0mil|HoleType=Round|Shape=Rectangle|*
%AMROTATEDRECTD73*
4,1,4,0.03097,-0.00009,0.00546,-0.03049,-0.03097,0.00009,-0.00546,0.03049,0.03097,-0.00009,0.0*
%
%ADD73ROTATEDRECTD73*%

G04:AMPARAMS|DCode=74|XSize=47.56mil|YSize=39.69mil|CornerRadius=0mil|HoleSize=0mil|Usage=FLASHONLY|Rotation=300.000|XOffset=0mil|YOffset=0mil|HoleType=Round|Shape=Rectangle|*
%AMROTATEDRECTD74*
4,1,4,-0.02907,0.01067,0.00529,0.03052,0.02907,-0.01067,-0.00529,-0.03052,-0.02907,0.01067,0.0*
%
%ADD74ROTATEDRECTD74*%

G04:AMPARAMS|DCode=75|XSize=47.56mil|YSize=39.69mil|CornerRadius=0mil|HoleSize=0mil|Usage=FLASHONLY|Rotation=340.000|XOffset=0mil|YOffset=0mil|HoleType=Round|Shape=Rectangle|*
%AMROTATEDRECTD75*
4,1,4,-0.02913,-0.01051,-0.01556,0.02678,0.02913,0.01051,0.01556,-0.02678,-0.02913,-0.01051,0.0*
%
%ADD75ROTATEDRECTD75*%

G04:AMPARAMS|DCode=76|XSize=47.56mil|YSize=39.69mil|CornerRadius=0mil|HoleSize=0mil|Usage=FLASHONLY|Rotation=20.000|XOffset=0mil|YOffset=0mil|HoleType=Round|Shape=Rectangle|*
%AMROTATEDRECTD76*
4,1,4,-0.01556,-0.02678,-0.02913,0.01051,0.01556,0.02678,0.02913,-0.01051,-0.01556,-0.02678,0.0*
%
%ADD76ROTATEDRECTD76*%

G04:AMPARAMS|DCode=77|XSize=47.56mil|YSize=39.69mil|CornerRadius=0mil|HoleSize=0mil|Usage=FLASHONLY|Rotation=60.000|XOffset=0mil|YOffset=0mil|HoleType=Round|Shape=Rectangle|*
%AMROTATEDRECTD77*
4,1,4,0.00529,-0.03052,-0.02907,-0.01067,-0.00529,0.03052,0.02907,0.01067,0.00529,-0.03052,0.0*
%
%ADD77ROTATEDRECTD77*%

G04:AMPARAMS|DCode=78|XSize=47.56mil|YSize=39.69mil|CornerRadius=0mil|HoleSize=0mil|Usage=FLASHONLY|Rotation=100.000|XOffset=0mil|YOffset=0mil|HoleType=Round|Shape=Rectangle|*
%AMROTATEDRECTD78*
4,1,4,0.02367,-0.01997,-0.01541,-0.02686,-0.02367,0.01997,0.01541,0.02686,0.02367,-0.01997,0.0*
%
%ADD78ROTATEDRECTD78*%

%ADD79P,0.08396X4X75.0*%
%ADD80P,0.08396X4X95.0*%
G04:AMPARAMS|DCode=81|XSize=47.56mil|YSize=43.62mil|CornerRadius=0mil|HoleSize=0mil|Usage=FLASHONLY|Rotation=300.000|XOffset=0mil|YOffset=0mil|HoleType=Round|Shape=Rectangle|*
%AMROTATEDRECTD81*
4,1,4,-0.03078,0.00969,0.00700,0.03150,0.03078,-0.00969,-0.00700,-0.03150,-0.03078,0.00969,0.0*
%
%ADD81ROTATEDRECTD81*%

G04:AMPARAMS|DCode=82|XSize=47.56mil|YSize=43.62mil|CornerRadius=0mil|HoleSize=0mil|Usage=FLASHONLY|Rotation=340.000|XOffset=0mil|YOffset=0mil|HoleType=Round|Shape=Rectangle|*
%AMROTATEDRECTD82*
4,1,4,-0.02981,-0.01236,-0.01489,0.02863,0.02981,0.01236,0.01489,-0.02863,-0.02981,-0.01236,0.0*
%
%ADD82ROTATEDRECTD82*%

G04:AMPARAMS|DCode=83|XSize=47.56mil|YSize=43.62mil|CornerRadius=0mil|HoleSize=0mil|Usage=FLASHONLY|Rotation=20.000|XOffset=0mil|YOffset=0mil|HoleType=Round|Shape=Rectangle|*
%AMROTATEDRECTD83*
4,1,4,-0.01489,-0.02863,-0.02981,0.01236,0.01489,0.02863,0.02981,-0.01236,-0.01489,-0.02863,0.0*
%
%ADD83ROTATEDRECTD83*%

G04:AMPARAMS|DCode=84|XSize=47.56mil|YSize=43.62mil|CornerRadius=0mil|HoleSize=0mil|Usage=FLASHONLY|Rotation=60.000|XOffset=0mil|YOffset=0mil|HoleType=Round|Shape=Rectangle|*
%AMROTATEDRECTD84*
4,1,4,0.00700,-0.03150,-0.03078,-0.00969,-0.00700,0.03150,0.03078,0.00969,0.00700,-0.03150,0.0*
%
%ADD84ROTATEDRECTD84*%

G04:AMPARAMS|DCode=85|XSize=47.56mil|YSize=43.62mil|CornerRadius=0mil|HoleSize=0mil|Usage=FLASHONLY|Rotation=100.000|XOffset=0mil|YOffset=0mil|HoleType=Round|Shape=Rectangle|*
%AMROTATEDRECTD85*
4,1,4,0.02561,-0.01963,-0.01735,-0.02721,-0.02561,0.01963,0.01735,0.02721,0.02561,-0.01963,0.0*
%
%ADD85ROTATEDRECTD85*%

G04:AMPARAMS|DCode=86|XSize=47.56mil|YSize=43.62mil|CornerRadius=0mil|HoleSize=0mil|Usage=FLASHONLY|Rotation=140.000|XOffset=0mil|YOffset=0mil|HoleType=Round|Shape=Rectangle|*
%AMROTATEDRECTD86*
4,1,4,0.03224,0.00142,0.00420,-0.03199,-0.03224,-0.00142,-0.00420,0.03199,0.03224,0.00142,0.0*
%
%ADD86ROTATEDRECTD86*%

%ADD87R,0.04756X0.04362*%
G04:AMPARAMS|DCode=88|XSize=47.56mil|YSize=43.62mil|CornerRadius=0mil|HoleSize=0mil|Usage=FLASHONLY|Rotation=220.000|XOffset=0mil|YOffset=0mil|HoleType=Round|Shape=Rectangle|*
%AMROTATEDRECTD88*
4,1,4,0.00420,0.03199,0.03224,-0.00142,-0.00420,-0.03199,-0.03224,0.00142,0.00420,0.03199,0.0*
%
%ADD88ROTATEDRECTD88*%

G04:AMPARAMS|DCode=89|XSize=47.56mil|YSize=43.62mil|CornerRadius=0mil|HoleSize=0mil|Usage=FLASHONLY|Rotation=260.000|XOffset=0mil|YOffset=0mil|HoleType=Round|Shape=Rectangle|*
%AMROTATEDRECTD89*
4,1,4,-0.01735,0.02721,0.02561,0.01963,0.01735,-0.02721,-0.02561,-0.01963,-0.01735,0.02721,0.0*
%
%ADD89ROTATEDRECTD89*%

%ADD90R,0.04756X0.03969*%
G04:AMPARAMS|DCode=91|XSize=47.56mil|YSize=39.69mil|CornerRadius=0mil|HoleSize=0mil|Usage=FLASHONLY|Rotation=220.000|XOffset=0mil|YOffset=0mil|HoleType=Round|Shape=Rectangle|*
%AMROTATEDRECTD91*
4,1,4,0.00546,0.03049,0.03097,0.00009,-0.00546,-0.03049,-0.03097,-0.00009,0.00546,0.03049,0.0*
%
%ADD91ROTATEDRECTD91*%

G04:AMPARAMS|DCode=92|XSize=47.56mil|YSize=39.69mil|CornerRadius=0mil|HoleSize=0mil|Usage=FLASHONLY|Rotation=260.000|XOffset=0mil|YOffset=0mil|HoleType=Round|Shape=Rectangle|*
%AMROTATEDRECTD92*
4,1,4,-0.01541,0.02686,0.02367,0.01997,0.01541,-0.02686,-0.02367,-0.01997,-0.01541,0.02686,0.0*
%
%ADD92ROTATEDRECTD92*%

%ADD93P,0.08396X4X155.0*%
%ADD94P,0.08396X4X195.0*%
%ADD95P,0.08396X4X235.0*%
%ADD96P,0.08396X4X175.0*%
%ADD97P,0.08396X4X215.0*%
%ADD98R,0.05937X0.05937*%
%ADD99P,0.08396X4X295.0*%
G04:AMPARAMS|DCode=100|XSize=29.84mil|YSize=53.47mil|CornerRadius=8.01mil|HoleSize=0mil|Usage=FLASHONLY|Rotation=90.000|XOffset=0mil|YOffset=0mil|HoleType=Round|Shape=RoundedRectangle|*
%AMROUNDEDRECTD100*
21,1,0.02984,0.03744,0,0,90.0*
21,1,0.01382,0.05347,0,0,90.0*
1,1,0.01602,0.01872,0.00691*
1,1,0.01602,0.01872,-0.00691*
1,1,0.01602,-0.01872,-0.00691*
1,1,0.01602,-0.01872,0.00691*
%
%ADD100ROUNDEDRECTD100*%
%ADD101R,0.04362X0.04756*%
%ADD102R,0.09087X0.03772*%
%ADD103R,0.03575X0.05740*%
%ADD104R,0.03969X0.04756*%
%ADD105R,0.04362X0.04362*%
%ADD106R,0.06331X0.08693*%
G04:AMPARAMS|DCode=107|XSize=51.5mil|YSize=57.4mil|CornerRadius=0mil|HoleSize=0mil|Usage=FLASHONLY|Rotation=310.000|XOffset=0mil|YOffset=0mil|HoleType=Round|Shape=Rectangle|*
%AMROTATEDRECTD107*
4,1,4,-0.03854,0.00128,0.00544,0.03817,0.03854,-0.00128,-0.00544,-0.03817,-0.03854,0.00128,0.0*
%
%ADD107ROTATEDRECTD107*%

G04:AMPARAMS|DCode=108|XSize=47.56mil|YSize=43.62mil|CornerRadius=0mil|HoleSize=0mil|Usage=FLASHONLY|Rotation=130.000|XOffset=0mil|YOffset=0mil|HoleType=Round|Shape=Rectangle|*
%AMROTATEDRECTD108*
4,1,4,0.03199,-0.00420,-0.00142,-0.03224,-0.03199,0.00420,0.00142,0.03224,0.03199,-0.00420,0.0*
%
%ADD108ROTATEDRECTD108*%

G04:AMPARAMS|DCode=109|XSize=47.56mil|YSize=39.69mil|CornerRadius=0mil|HoleSize=0mil|Usage=FLASHONLY|Rotation=130.000|XOffset=0mil|YOffset=0mil|HoleType=Round|Shape=Rectangle|*
%AMROTATEDRECTD109*
4,1,4,0.03049,-0.00546,0.00009,-0.03097,-0.03049,0.00546,-0.00009,0.03097,0.03049,-0.00546,0.0*
%
%ADD109ROTATEDRECTD109*%

G04:AMPARAMS|DCode=110|XSize=29.84mil|YSize=67.24mil|CornerRadius=0mil|HoleSize=0mil|Usage=FLASHONLY|Rotation=220.000|XOffset=0mil|YOffset=0mil|HoleType=Round|Shape=Round|*
%AMOVALD110*
21,1,0.03740,0.02984,0.00000,0.00000,310.0*
1,1,0.02984,-0.01202,0.01433*
1,1,0.02984,0.01202,-0.01433*
%
%ADD110OVALD110*%

%ADD111C,0.06213*%
G36*
X286384Y199500D02*
X265584D01*
X265584Y220300D01*
X286384D01*
X286384Y199500D01*
D02*
G37*
G36*
X235484Y199600D02*
X214684D01*
X214684Y220400D01*
X235484D01*
X235484Y199600D01*
D02*
G37*
G36*
X337284Y199700D02*
X316484D01*
X316484Y220500D01*
X337284D01*
X337284Y199700D01*
D02*
G37*
D70*
X60350Y219043D02*
D03*
Y217075D02*
D03*
Y215106D02*
D03*
Y213138D02*
D03*
Y211169D02*
D03*
Y209201D02*
D03*
X76098D02*
D03*
Y211169D02*
D03*
Y213138D02*
D03*
Y215106D02*
D03*
Y217075D02*
D03*
Y219043D02*
D03*
D71*
X63303Y206248D02*
D03*
X65272D02*
D03*
X67240D02*
D03*
X69209D02*
D03*
X71177D02*
D03*
X73146D02*
D03*
Y221996D02*
D03*
X71177D02*
D03*
X69209D02*
D03*
X67240D02*
D03*
X65272D02*
D03*
X63303D02*
D03*
D72*
X68224Y214122D02*
D03*
D73*
X172218Y181243D02*
D03*
X176014Y185767D02*
D03*
D74*
X61837Y88622D02*
D03*
X56722Y85669D02*
D03*
D75*
X100172Y56455D02*
D03*
X98152Y50906D02*
D03*
D76*
X150214Y56455D02*
D03*
X152234Y50906D02*
D03*
D77*
X188549Y88622D02*
D03*
X193664Y85669D02*
D03*
D78*
X197239Y137905D02*
D03*
X203055Y138930D02*
D03*
D79*
X161181Y62867D02*
D03*
X165315Y55707D02*
D03*
X89205Y187534D02*
D03*
X85071Y194694D02*
D03*
D80*
X180330Y78935D02*
D03*
X186663Y73621D02*
D03*
X70056Y171466D02*
D03*
X63722Y176781D02*
D03*
D81*
X193493Y164634D02*
D03*
X188720Y161878D02*
D03*
D82*
X152167Y199311D02*
D03*
X150282Y194131D02*
D03*
D83*
X98219Y199311D02*
D03*
X100104Y194131D02*
D03*
D84*
X56893Y164634D02*
D03*
X61666Y161878D02*
D03*
D85*
X47525Y111506D02*
D03*
X52953Y112463D02*
D03*
D86*
X74499Y64786D02*
D03*
X78042Y69008D02*
D03*
D87*
X125193Y46335D02*
D03*
Y51846D02*
D03*
X117300Y239044D02*
D03*
Y244556D02*
D03*
D88*
X175887Y64786D02*
D03*
X172344Y69008D02*
D03*
X222335Y180363D02*
D03*
X218792Y184585D02*
D03*
X210845Y170721D02*
D03*
X207302Y174943D02*
D03*
D89*
X202861Y111506D02*
D03*
X197433Y112463D02*
D03*
D90*
X125193Y198358D02*
D03*
Y204264D02*
D03*
X122900Y244753D02*
D03*
Y238847D02*
D03*
D91*
X78168Y181243D02*
D03*
X74372Y185767D02*
D03*
X186085Y210651D02*
D03*
X182289Y215175D02*
D03*
X193593Y216951D02*
D03*
X189797Y221475D02*
D03*
X189839Y213801D02*
D03*
X186043Y218325D02*
D03*
X201358Y177516D02*
D03*
X197562Y182040D02*
D03*
D92*
X53147Y137904D02*
D03*
X47331Y138930D02*
D03*
D93*
X192829Y149310D02*
D03*
X200598Y152138D02*
D03*
X57557Y100583D02*
D03*
X49788Y97756D02*
D03*
D94*
X161181Y187534D02*
D03*
X165315Y194694D02*
D03*
X89205Y62867D02*
D03*
X85071Y55707D02*
D03*
D95*
X112694Y196084D02*
D03*
X111259Y204226D02*
D03*
X137691Y54318D02*
D03*
X139127Y46176D02*
D03*
D96*
X180330Y171466D02*
D03*
X186663Y176781D02*
D03*
X70056Y78935D02*
D03*
X63722Y73621D02*
D03*
D97*
X137692Y196084D02*
D03*
X139127Y204226D02*
D03*
X112694Y54318D02*
D03*
X111259Y46176D02*
D03*
D98*
X53216Y125201D02*
D03*
X44949D02*
D03*
X197169D02*
D03*
X205437D02*
D03*
D99*
X57557Y149818D02*
D03*
X49788Y152646D02*
D03*
X192829Y100583D02*
D03*
X200598Y97756D02*
D03*
D100*
X203800Y245818D02*
D03*
Y243259D02*
D03*
Y240700D02*
D03*
X213446D02*
D03*
Y243259D02*
D03*
Y245818D02*
D03*
D101*
X219744Y252200D02*
D03*
X225256D02*
D03*
X205167Y234359D02*
D03*
X210679D02*
D03*
X48844Y222800D02*
D03*
X54356D02*
D03*
X48844Y227900D02*
D03*
X54356D02*
D03*
X87156Y215800D02*
D03*
X81644D02*
D03*
X60444Y228100D02*
D03*
X65956D02*
D03*
X75956Y228100D02*
D03*
X70444D02*
D03*
D102*
X222923Y247716D02*
D03*
Y242402D02*
D03*
D103*
X236100Y241471D02*
D03*
X232360Y250329D02*
D03*
X239840D02*
D03*
D104*
X220347Y237600D02*
D03*
X226253D02*
D03*
X204970Y229459D02*
D03*
X210876D02*
D03*
D105*
X200023Y233209D02*
D03*
Y226909D02*
D03*
D106*
X65673Y249399D02*
D03*
X87327D02*
D03*
Y236801D02*
D03*
X65673D02*
D03*
D107*
X179256Y221127D02*
D03*
X186344Y227074D02*
D03*
D108*
X178079Y204394D02*
D03*
X182301Y207937D02*
D03*
X174865Y208224D02*
D03*
X179087Y211767D02*
D03*
X171651Y212054D02*
D03*
X175873Y215597D02*
D03*
X210908Y178027D02*
D03*
X215130Y181570D02*
D03*
D109*
X207478Y181807D02*
D03*
X212002Y185603D02*
D03*
D110*
X202631Y186206D02*
D03*
X204591Y187851D02*
D03*
X206552Y189496D02*
D03*
X208512Y191141D02*
D03*
X187700Y204000D02*
D03*
X189660Y205645D02*
D03*
X191621Y207290D02*
D03*
X193581Y208935D02*
D03*
D111*
X110400Y251400D02*
D03*
X100400D02*
D03*
X130400D02*
D03*
X120400D02*
D03*
M02*
