G04 Layer_Physical_Order=2*
G04 Layer_Color=16711680*
%FSLAX25Y25*%
%MOIN*%
G70*
G01*
G75*
%ADD11C,0.01000*%
%ADD56C,0.06000*%
%ADD57C,0.02598*%
%ADD58C,0.03017*%
%ADD59C,0.00800*%
%ADD60C,0.01181*%
%ADD61C,0.00050*%
G36*
X335216Y44390D02*
X217500D01*
Y160138D01*
X332854D01*
Y46752D01*
X219862D01*
Y157776D01*
X330492D01*
Y49114D01*
X222224D01*
Y155413D01*
X328130D01*
Y51476D01*
X224587D01*
Y153051D01*
X325768D01*
Y53839D01*
X226949D01*
Y150689D01*
X323406D01*
Y56201D01*
X229311D01*
Y148327D01*
X321043D01*
Y58563D01*
X231673D01*
Y145965D01*
X318681D01*
Y60925D01*
X234035D01*
Y143602D01*
X316319D01*
Y63287D01*
X236398D01*
Y141240D01*
X313957D01*
Y65650D01*
X238760D01*
Y138878D01*
X311595D01*
Y68012D01*
X241122D01*
Y136516D01*
X309232D01*
Y70374D01*
X243484D01*
Y134153D01*
X306870D01*
Y72736D01*
X245847D01*
Y127067D01*
X247028D01*
Y73917D01*
X305689D01*
Y132972D01*
X244665D01*
Y71555D01*
X308051D01*
Y135335D01*
X242303D01*
Y69193D01*
X310413D01*
Y137697D01*
X239941D01*
Y66831D01*
X312776D01*
Y140059D01*
X237579D01*
Y64468D01*
X315138D01*
Y142421D01*
X235216D01*
Y62106D01*
X317500D01*
Y144783D01*
X232854D01*
Y59744D01*
X319862D01*
Y147146D01*
X230492D01*
Y57382D01*
X322224D01*
Y149508D01*
X228130D01*
Y55020D01*
X324587D01*
Y151870D01*
X225768D01*
Y52658D01*
X326949D01*
Y154232D01*
X223406D01*
Y50295D01*
X329311D01*
Y156595D01*
X221043D01*
Y47933D01*
X331673D01*
Y158957D01*
X218681D01*
Y45571D01*
X334035D01*
Y161319D01*
X217500D01*
Y162500D01*
X335216D01*
Y44390D01*
D02*
G37*
D11*
X206408Y218763D02*
G03*
X205178Y221733I-4200J0D01*
G01*
X199641Y227270D02*
G03*
X196672Y228500I-2970J-2970D01*
G01*
X199641Y227270D02*
G03*
X196672Y228500I-2970J-2970D01*
G01*
X206408Y218763D02*
G03*
X205178Y221733I-4200J0D01*
G01*
X193070Y235470D02*
G03*
X190100Y236700I-2970J-2970D01*
G01*
X193070Y235470D02*
G03*
X190100Y236700I-2970J-2970D01*
G01*
X195522Y231278D02*
G03*
X194292Y234248I-4200J0D01*
G01*
X119900Y249500D02*
G03*
X111500Y249500I-4200J0D01*
G01*
X118670Y244130D02*
G03*
X119900Y247100I-2970J2970D01*
G01*
X118670Y244130D02*
G03*
X119900Y247100I-2970J2970D01*
G01*
X111500Y249423D02*
G03*
X110000Y249700I-1500J-3923D01*
G01*
X193530Y210030D02*
G03*
X198008Y209080I2970J2970D01*
G01*
X194472Y228500D02*
G03*
X195522Y231278I-3150J2778D01*
G01*
X191730Y191370D02*
G03*
X190500Y188400I2970J-2970D01*
G01*
X191730Y191370D02*
G03*
X190500Y188400I2970J-2970D01*
G01*
Y187300D02*
G03*
X196408Y183463I4200J0D01*
G01*
X115860Y172740D02*
G03*
X114659Y175639I-4100J0D01*
G01*
X115860Y172740D02*
G03*
X114659Y175639I-4100J0D01*
G01*
X208800Y163920D02*
G03*
X208800Y159899I3791J-2010D01*
G01*
Y143279D02*
G03*
X207800Y143400I-1000J-4079D01*
G01*
Y135000D02*
G03*
X208800Y135121I0J4200D01*
G01*
X202100Y117365D02*
G03*
X200870Y120335I-4200J0D01*
G01*
X202100Y117365D02*
G03*
X200870Y120335I-4200J0D01*
G01*
X193700Y83100D02*
G03*
X202100Y83100I4200J0D01*
G01*
X160578Y164938D02*
G03*
X160967Y166681I-3711J1743D01*
G01*
D02*
G03*
X156867Y170781I-4100J0D01*
G01*
X162993Y144200D02*
G03*
X164736Y144589I0J4100D01*
G01*
X145872Y145401D02*
G03*
X148772Y144200I2899J2899D01*
G01*
X145872Y145401D02*
G03*
X148772Y144200I2899J2899D01*
G01*
X152200Y39700D02*
G03*
X156400Y43900I0J4200D01*
G01*
D02*
G03*
X152200Y48100I-4200J0D01*
G01*
X107660Y124899D02*
G03*
X115860Y124899I4100J0D01*
G01*
X104030Y40930D02*
G03*
X107000Y39700I2970J2970D01*
G01*
X104030Y40930D02*
G03*
X107000Y39700I2970J2970D01*
G01*
X78119Y228300D02*
G03*
X76430Y227270I1281J-4000D01*
G01*
X78119Y228300D02*
G03*
X76430Y227270I1281J-4000D01*
G01*
X80200Y204125D02*
G03*
X83000Y203979I1600J3775D01*
G01*
X74121Y224960D02*
G03*
X71894Y225599I-2227J-3561D01*
G01*
X74121Y224960D02*
G03*
X71894Y225599I-2227J-3561D01*
G01*
X63478D02*
G03*
X60508Y224369I0J-4200D01*
G01*
X64787Y213360D02*
G03*
X63808Y213244I0J-4200D01*
G01*
X64787Y213360D02*
G03*
X63808Y213244I0J-4200D01*
G01*
X83000Y197300D02*
G03*
X84945Y193757I4200J0D01*
G01*
X98100Y172400D02*
G03*
X96899Y175299I-4100J0D01*
G01*
X98100Y172400D02*
G03*
X96899Y175299I-4100J0D01*
G01*
X72000Y190300D02*
G03*
X73201Y187401I4100J0D01*
G01*
X68800Y193343D02*
G03*
X72000Y195711I-600J4157D01*
G01*
X62209Y188492D02*
G03*
X65179Y189722I0J4200D01*
G01*
X62209Y188492D02*
G03*
X65179Y189722I0J4200D01*
G01*
X72000Y190300D02*
G03*
X73201Y187401I4100J0D01*
G01*
X60400Y249700D02*
G03*
X57430Y248470I0J-4200D01*
G01*
X60400Y249700D02*
G03*
X57430Y248470I0J-4200D01*
G01*
X43030Y234070D02*
G03*
X41900Y230189I2970J-2970D01*
G01*
X43030Y234070D02*
G03*
X41900Y230189I2970J-2970D01*
G01*
X63478Y225599D02*
G03*
X60508Y224369I0J-4200D01*
G01*
X53200Y228506D02*
G03*
X54500Y228300I1300J3994D01*
G01*
X54361Y218223D02*
G03*
X53200Y218737I-2261J-3539D01*
G01*
X54361Y218223D02*
G03*
X53200Y218737I-2261J-3539D01*
G01*
X56608Y188889D02*
G03*
X58391Y188492I1783J3803D01*
G01*
X56608Y188889D02*
G03*
X58391Y188492I1783J3803D01*
G01*
X46570Y212575D02*
G03*
X45000Y209300I2630J-3274D01*
G01*
X45066Y214529D02*
G03*
X46570Y212575I3934J1471D01*
G01*
X41900Y218600D02*
G03*
X45066Y214529I4200J0D01*
G01*
X89900Y145000D02*
G03*
X98100Y145000I4100J0D01*
G01*
X98200Y39700D02*
G03*
X102233Y42727I0J4200D01*
G01*
X78430Y40930D02*
G03*
X81400Y39700I2970J2970D01*
G01*
X78430Y40930D02*
G03*
X81400Y39700I2970J2970D01*
G01*
X45000Y76100D02*
G03*
X46230Y73130I4200J0D01*
G01*
X45000Y76100D02*
G03*
X46230Y73130I4200J0D01*
G01*
X314305Y255906D02*
X340000Y230211D01*
X307517Y255906D02*
X340000Y223423D01*
X300729Y255906D02*
X340000Y216635D01*
X293941Y255906D02*
X340000Y209846D01*
X287153Y255906D02*
X340000Y203058D01*
X332126Y255906D02*
X332621Y255890D01*
X327882Y255906D02*
X340000Y243788D01*
X321094Y255906D02*
X340000Y236999D01*
X333113Y255843D02*
X333602Y255766D01*
X332621Y255890D02*
X333113Y255843D01*
X273576Y255906D02*
X340000Y189482D01*
X266788Y255906D02*
X340000Y182693D01*
X253211Y255906D02*
X340000Y169117D01*
X280364Y255906D02*
X340000Y196270D01*
X260000Y255906D02*
X340000Y175905D01*
X226723Y179206D02*
X303423Y255906D01*
X229786Y175480D02*
X310211Y255906D01*
X223661Y182931D02*
X296635Y255906D01*
X235911Y168029D02*
X323788Y255906D01*
X232849Y171755D02*
X317000Y255906D01*
X206267Y219844D02*
X242329Y255906D01*
X206408Y213196D02*
X249117Y255906D01*
X203273Y223638D02*
X235541Y255906D01*
X206408Y206408D02*
X255906Y255906D01*
X206408Y206408D02*
X255906Y255906D01*
X189182Y236700D02*
X208388Y255906D01*
X193905Y234634D02*
X215176Y255906D01*
X182394Y236700D02*
X201600Y255906D01*
X199879Y227032D02*
X228753Y255906D01*
X194559Y228500D02*
X221964Y255906D01*
X214473Y194108D02*
X276270Y255906D01*
X217535Y190382D02*
X283058Y255906D01*
X192117D02*
X280223Y167800D01*
X220598Y186657D02*
X289847Y255906D01*
X198906D02*
X287011Y167800D01*
X206408Y199620D02*
X262694Y255906D01*
X178541D02*
X266647Y167800D01*
X211410Y197833D02*
X269482Y255906D01*
X185329D02*
X273435Y167800D01*
X337516Y253771D02*
X337866Y253422D01*
X338193Y253050D01*
X337145Y254098D02*
X337516Y253771D01*
X338496Y252660D02*
X338774Y252251D01*
X338193Y253050D02*
X338496Y252660D01*
X335479Y255156D02*
X335919Y254931D01*
X336345Y254680D01*
X335024Y255353D02*
X335479Y255156D01*
X336754Y254402D02*
X337145Y254098D01*
X336345Y254680D02*
X336754Y254402D01*
X339753Y249990D02*
X339861Y249507D01*
X339938Y249019D01*
X339615Y250465D02*
X339753Y249990D01*
X339985Y248526D02*
X340000Y248031D01*
X339938Y249019D02*
X339985Y248526D01*
X338774Y252251D02*
X339026Y251825D01*
X339251Y251384D01*
X335374Y255202D02*
X339296Y251280D01*
X339447Y250930D02*
X339615Y250465D01*
X339251Y251384D02*
X339447Y250930D01*
X334084Y255658D02*
X334559Y255520D01*
X335024Y255353D01*
X333602Y255766D02*
X334084Y255658D01*
X206408Y200885D02*
X208522Y198771D01*
X199641Y227270D02*
X205178Y221733D01*
X198008Y197648D02*
Y209080D01*
X256047Y167800D02*
X339366Y251119D01*
X262835Y167800D02*
X340000Y244965D01*
X249259Y167800D02*
X336215Y254757D01*
X269623Y167800D02*
X340000Y238176D01*
X220419Y186874D02*
X239493Y167800D01*
X209741Y199863D02*
X236100Y167800D01*
X206408Y196877D02*
Y218763D01*
Y196877D02*
X209741Y199863D01*
X196408Y183463D02*
X208800Y168860D01*
X162030Y236700D02*
X181235Y255906D01*
X164964D02*
X184170Y236700D01*
X158176Y255906D02*
X177382Y236700D01*
X175606D02*
X194811Y255906D01*
X168818Y236700D02*
X188023Y255906D01*
X131023D02*
X150229Y236700D01*
X148453D02*
X167658Y255906D01*
X128088Y236700D02*
X147294Y255906D01*
X155241Y236700D02*
X174447Y255906D01*
X151388D02*
X170594Y236700D01*
X171753Y255906D02*
X191072Y236586D01*
X193070Y235470D02*
X194292Y234248D01*
X134877Y236700D02*
X154082Y255906D01*
X137812D02*
X157017Y236700D01*
X124235Y255906D02*
X143441Y236700D01*
X144600Y255906D02*
X163805Y236700D01*
X141665D02*
X160870Y255906D01*
X117520Y253285D02*
X120141Y255906D01*
X119900Y248876D02*
X126929Y255906D01*
X110659D02*
X113492Y253073D01*
X107147Y249700D02*
X113353Y255906D01*
X103871D02*
X110077Y249699D01*
X119900Y247100D02*
Y249500D01*
X117447Y255906D02*
X136653Y236700D01*
X121300D02*
X140506Y255906D01*
X114512Y236700D02*
X133717Y255906D01*
X123100Y236700D02*
X190100D01*
X119879Y246685D02*
X129864Y236700D01*
X117158Y242618D02*
X123076Y236700D01*
X111240D02*
X118670Y244130D01*
X113764Y239224D02*
X116288Y236700D01*
X111240D02*
X123100D01*
X194472Y228500D02*
X196672D01*
X186597Y213908D02*
X198008Y202497D01*
X179809Y213908D02*
X197039Y196678D01*
X191730Y191370D02*
X198008Y197648D01*
X189652Y213908D02*
X193530Y210030D01*
X173021Y213908D02*
X193645Y193284D01*
X166232Y213908D02*
X190645Y189495D01*
X157192Y170768D02*
X195377Y208953D01*
X150416Y170781D02*
X191598Y211963D01*
X190500Y187300D02*
Y188400D01*
X146323Y173476D02*
X186755Y213908D01*
X142929Y176870D02*
X179967Y213908D01*
X149017Y170781D02*
X156867D01*
X139534Y180264D02*
X173179Y213908D01*
X125958Y193840D02*
X146026Y213908D01*
X129352Y190446D02*
X152814Y213908D01*
X122564Y197234D02*
X139238Y213908D01*
X132746Y187052D02*
X159602Y213908D01*
X105890D02*
X189652D01*
X115776Y204023D02*
X125661Y213908D01*
X119170Y200628D02*
X132450Y213908D01*
X112381Y207417D02*
X118873Y213908D01*
X108987Y210811D02*
X112085Y213908D01*
X104420Y185879D02*
X104907Y186366D01*
X136140Y183658D02*
X166391Y213908D01*
X111927D02*
X155054Y170781D01*
X105890Y213908D02*
X149017Y170781D01*
X115860Y170166D02*
X118484Y172790D01*
X111208Y179090D02*
X111696Y179578D01*
X107814Y182484D02*
X108301Y182972D01*
X114602Y175696D02*
X115090Y176184D01*
X303565Y167800D02*
X340000Y204235D01*
Y167800D02*
Y248031D01*
X296776Y167800D02*
X340000Y211024D01*
X337506Y167800D02*
X340000Y170294D01*
X323929Y167800D02*
X340000Y183871D01*
X276412Y167800D02*
X340000Y231388D01*
X283200Y167800D02*
X340000Y224600D01*
X242471Y167800D02*
X330576Y255906D01*
X317141Y167800D02*
X340000Y190659D01*
X310353Y167800D02*
X340000Y197447D01*
X246423Y255906D02*
X334529Y167800D01*
X289988D02*
X340000Y217812D01*
X239635Y255906D02*
X327741Y167800D01*
X330717D02*
X340000Y177083D01*
X236100Y167800D02*
X340000Y167800D01*
X226059Y255906D02*
X314164Y167800D01*
X232847Y255906D02*
X320952Y167800D01*
X219270Y255906D02*
X307376Y167800D01*
X212482Y255906D02*
X300588Y167800D01*
X208800Y143279D02*
Y159899D01*
X206408Y214462D02*
X253070Y167800D01*
X205694Y255906D02*
X293799Y167800D01*
X195408Y232250D02*
X259858Y167800D01*
X206408Y207673D02*
X246282Y167800D01*
X159444Y213908D02*
X208800Y164553D01*
X152656Y213908D02*
X208800Y157764D01*
X176334Y149181D02*
X202930Y175777D01*
X145868Y213908D02*
X208800Y150976D01*
Y163920D02*
Y168860D01*
X184129Y143400D02*
X208800Y168071D01*
X197706Y143400D02*
X208800Y154494D01*
X139080Y213908D02*
X208800Y144188D01*
X204494Y143400D02*
X208800Y147706D01*
X115860Y148881D02*
X208800Y55941D01*
X179728Y145787D02*
X206046Y172105D01*
X132291Y213908D02*
X202800Y143400D01*
X190918D02*
X208420Y160902D01*
X115860Y155669D02*
X208800Y62729D01*
X204412Y135000D02*
X208800Y130612D01*
X202100Y113853D02*
X208800Y120553D01*
X201295Y119837D02*
X208800Y127341D01*
X202100Y116947D02*
X208800Y110247D01*
X202100Y107065D02*
X208800Y113765D01*
X202100Y100277D02*
X208800Y106976D01*
X202100Y110159D02*
X208800Y103458D01*
X202100Y103370D02*
X208800Y96670D01*
Y39370D02*
Y135121D01*
X202100Y93488D02*
X208800Y100188D01*
X202100Y86700D02*
X208800Y93400D01*
X202100Y96582D02*
X208800Y89882D01*
X202100Y89794D02*
X208800Y83094D01*
X202100Y83100D02*
Y117365D01*
X202288Y39370D02*
X208800Y45882D01*
X202099Y83007D02*
X208800Y76306D01*
X197623Y135000D02*
X208800Y123823D01*
X190835Y135000D02*
X208800Y117035D01*
X186204Y135000D02*
X207800D01*
X199208Y79109D02*
X208800Y69517D01*
X197938Y123267D02*
X208800Y134130D01*
X194543Y126661D02*
X202882Y135000D01*
X186204D02*
X200870Y120335D01*
X182116Y143400D02*
X207800D01*
X115860Y135304D02*
X208800Y42364D01*
X181923Y39370D02*
X208800Y66247D01*
X115860Y142093D02*
X208800Y49153D01*
X195499Y39370D02*
X208800Y52671D01*
X188711Y39370D02*
X208800Y59459D01*
X161558Y39370D02*
X208800Y86612D01*
X115860Y128516D02*
X205006Y39370D01*
X175135D02*
X208800Y73035D01*
X168347Y39370D02*
X208800Y79824D01*
X162758Y162758D02*
X198008Y198008D01*
X162758Y162758D02*
X198008Y198008D01*
X160853Y167641D02*
X198008Y204797D01*
X172940Y152576D02*
X199814Y179449D01*
X169546Y155970D02*
X196698Y183121D01*
X166152Y159364D02*
X191440Y184652D01*
X148041Y154829D02*
X150136Y156924D01*
X147979Y159081D02*
X154660Y152400D01*
X160674Y165161D02*
X182435Y143400D01*
X164736Y144589D02*
X193700Y115625D01*
X160578Y164938D02*
X182116Y143400D01*
X161270Y144200D02*
X193700Y111770D01*
X154482Y144200D02*
X193700Y104982D01*
X152400Y152400D02*
X153530Y153530D01*
X152400Y152400D02*
X153530Y153530D01*
X150470Y152400D02*
X154660D01*
X148772Y144200D02*
X162993D01*
X143789Y159081D02*
X150470Y152400D01*
X146389Y159081D02*
X153070Y152400D01*
X125503Y213908D02*
X196011Y143400D01*
X115860Y156589D02*
X125272Y166001D01*
X115860Y149801D02*
X128666Y162607D01*
X115860Y163377D02*
X121878Y169395D01*
X144647Y158223D02*
X145504Y159081D01*
X143789D02*
X147979D01*
X118715Y213908D02*
X189223Y143400D01*
X115860Y169246D02*
X193700Y91406D01*
X115860Y162458D02*
X193700Y84617D01*
X147488Y144406D02*
X193700Y98194D01*
X115860Y129436D02*
X138848Y152425D01*
X115860Y124899D02*
Y172740D01*
X107660Y124899D02*
Y171042D01*
X115860Y136225D02*
X135454Y155819D01*
X115860Y143013D02*
X132060Y159213D01*
X191149Y130055D02*
X196094Y135000D01*
X193700Y83100D02*
Y115625D01*
X136347Y48100D02*
X193700Y105453D01*
X149924Y48100D02*
X193700Y91877D01*
X143135Y48100D02*
X193700Y98665D01*
X187755Y133449D02*
X189306Y135000D01*
X155322Y46710D02*
X193700Y85088D01*
X129559Y48100D02*
X193700Y112241D01*
X154770Y39370D02*
X195245Y79845D01*
X155525Y41334D02*
X157489Y39370D01*
X150370Y39700D02*
X150700Y39370D01*
X147982D02*
X148312Y39700D01*
X143582D02*
X143912Y39370D01*
X134405D02*
X134735Y39700D01*
X130006D02*
X130336Y39370D01*
X141193D02*
X141524Y39700D01*
X136794D02*
X137124Y39370D01*
X105573Y51267D02*
X181815Y127510D01*
X109194Y48100D02*
X185210Y124116D01*
X102179Y54661D02*
X178421Y130904D01*
X122771Y48100D02*
X191998Y117327D01*
X115982Y48100D02*
X188604Y120721D01*
X108740Y48100D02*
X152200D01*
X102233Y42727D02*
X104030Y40930D01*
X115086Y122502D02*
X198218Y39370D01*
X127617D02*
X127947Y39700D01*
X107000D02*
X152200D01*
X123217D02*
X123547Y39370D01*
X120829D02*
X121159Y39700D01*
X109641D02*
X109971Y39370D01*
X107252D02*
X107582Y39700D01*
X116429D02*
X116759Y39370D01*
X114041D02*
X114371Y39700D01*
X90294Y255906D02*
X96500Y249700D01*
X93571D02*
X99776Y255906D01*
X86782Y249700D02*
X92988Y255906D01*
X100359Y249700D02*
X106564Y255906D01*
X97082D02*
X103288Y249700D01*
X73206D02*
X79412Y255906D01*
X76718D02*
X82923Y249700D01*
X69929Y255906D02*
X76135Y249700D01*
X83506Y255906D02*
X89711Y249700D01*
X79994D02*
X86200Y255906D01*
X77170Y228300D02*
X77450Y228020D01*
X80200Y191998D02*
Y204125D01*
X74130Y224970D02*
X76430Y227270D01*
X70382Y228300D02*
X73339Y225343D01*
X69925Y213360D02*
X70687Y214121D01*
X60400Y249700D02*
X110000D01*
X66418D02*
X72623Y255906D01*
X47244D02*
X332126D01*
X69470Y225599D02*
X72171Y228300D01*
X54500D02*
X78119D01*
X63141Y255906D02*
X69347Y249700D01*
X63594Y228300D02*
X66295Y225599D01*
X59541Y249611D02*
X65835Y255906D01*
X63478Y225599D02*
X71894D01*
X62586Y225503D02*
X65382Y228300D01*
X65963Y215399D02*
X69409D01*
X70687Y214121D01*
X63808Y213244D02*
X65963Y215399D01*
X64787Y213360D02*
X69925D01*
X63930Y213271D02*
X66058Y215399D01*
X64441Y213877D02*
X64958Y213360D01*
X97632Y192667D02*
X98119Y193154D01*
X101026Y189273D02*
X101513Y189760D01*
X94237Y196061D02*
X94725Y196548D01*
X91976Y180223D02*
X95227Y183474D01*
X88582Y183617D02*
X91833Y186869D01*
X91400Y198898D02*
Y199873D01*
X83000Y197300D02*
Y203979D01*
X85187Y187011D02*
X88439Y190263D01*
X81793Y190405D02*
X85045Y193657D01*
X91400Y198898D02*
X114659Y175639D01*
X97917Y173613D02*
X107660Y163869D01*
X84945Y193757D02*
X107660Y171042D01*
X98100Y159194D02*
X107660Y168754D01*
X98100Y165982D02*
X105410Y173292D01*
X98085Y172755D02*
X102016Y176686D01*
X95370Y176829D02*
X98621Y180080D01*
X80200Y202388D02*
X81616Y203804D01*
X81271Y203834D02*
X83000Y202106D01*
X80200Y195600D02*
X83000Y198400D01*
X70651Y194090D02*
X72000Y192741D01*
Y190300D02*
Y195711D01*
X65179Y189722D02*
X68800Y193343D01*
X80200Y191998D02*
X96899Y175299D01*
X80200Y198117D02*
X107660Y170658D01*
X66705Y191248D02*
X89900Y168053D01*
X73201Y187401D02*
X89900Y170702D01*
X62650Y188515D02*
X89900Y161265D01*
X56608Y178797D02*
X72000Y194188D01*
X56608Y165220D02*
X75995Y184607D01*
X56608Y172008D02*
X72664Y188064D01*
X46750Y255890D02*
X47244Y255906D01*
X46257Y255843D02*
X46750Y255890D01*
X45769Y255766D02*
X46257Y255843D01*
X45286Y255658D02*
X45769Y255766D01*
X44811Y255520D02*
X45286Y255658D01*
X44346Y255353D02*
X44811Y255520D01*
X43892Y255156D02*
X44346Y255353D01*
X43451Y254931D02*
X43892Y255156D01*
X43025Y254680D02*
X43451Y254931D01*
X42616Y254402D02*
X43025Y254680D01*
X56353Y255906D02*
X62559Y249700D01*
X49565Y255906D02*
X57215Y248255D01*
X43030Y234070D02*
X57430Y248470D01*
X42225Y254098D02*
X42616Y254402D01*
X43649Y255033D02*
X53821Y244861D01*
X41854Y253771D02*
X42225Y254098D01*
X41504Y253422D02*
X41854Y253771D01*
X41177Y253050D02*
X41504Y253422D01*
X39643Y250078D02*
X45197Y255632D01*
X40874Y252660D02*
X41177Y253050D01*
X40596Y252251D02*
X40874Y252660D01*
X40344Y251825D02*
X40596Y252251D01*
X40119Y251384D02*
X40344Y251825D01*
X39923Y250930D02*
X40119Y251384D01*
X39755Y250465D02*
X39923Y250930D01*
X39617Y249990D02*
X39755Y250465D01*
X40251Y251643D02*
X50427Y241467D01*
X39370Y236229D02*
X59047Y255906D01*
X39370Y243017D02*
X52259Y255906D01*
X39370Y238947D02*
X43639Y234679D01*
X39370Y245736D02*
X47033Y238073D01*
X39509Y249507D02*
X39617Y249990D01*
X39432Y249019D02*
X39509Y249507D01*
X39386Y248526D02*
X39432Y249019D01*
X39370Y248031D02*
X39386Y248526D01*
X56806Y228300D02*
X60624Y224481D01*
X53200Y222906D02*
X58594Y228300D01*
X54361Y218223D02*
X60508Y224369D01*
X53200Y225117D02*
X57228Y221089D01*
X53200Y218737D02*
Y228506D01*
X41900Y218600D02*
Y230189D01*
X58391Y188492D02*
X62209D01*
X56608Y185585D02*
X59515Y188492D01*
X39370Y175135D02*
X45000Y180765D01*
X39370Y184642D02*
X45000Y179012D01*
X39370Y209076D02*
X44876Y214582D01*
X39370Y211794D02*
X45000Y206165D01*
X39370Y218583D02*
X45969Y211984D01*
X39370Y205006D02*
X45000Y199376D01*
X39370Y202288D02*
X45000Y207917D01*
X39370Y229440D02*
X41889Y231959D01*
X39370Y225371D02*
X41900Y222841D01*
X39370Y232159D02*
X41900Y229629D01*
X39370Y215864D02*
X41905Y218399D01*
X39370Y222652D02*
X41900Y225182D01*
X39370Y177853D02*
X45000Y172223D01*
X39370Y168347D02*
X45000Y173976D01*
X39370Y181923D02*
X45000Y187553D01*
X39370Y161558D02*
X45000Y167188D01*
X39370Y171065D02*
X45000Y165435D01*
X39370Y198218D02*
X45000Y192588D01*
X39370Y195499D02*
X45000Y201129D01*
X39370Y191430D02*
X45000Y185800D01*
X39370Y188711D02*
X45000Y194341D01*
X98100Y166641D02*
X107660Y157081D01*
X98100Y152406D02*
X107660Y161966D01*
X91400Y199873D02*
X145872Y145401D01*
X98100Y145618D02*
X107660Y155177D01*
X98100Y159853D02*
X107660Y150293D01*
X98100Y145000D02*
Y172400D01*
Y153065D02*
X107660Y143505D01*
X89900Y145000D02*
Y170702D01*
X98100Y146276D02*
X107660Y136716D01*
X85208Y71632D02*
X157776Y144200D01*
X88602Y68238D02*
X164845Y144480D01*
X81814Y75026D02*
X150988Y144200D01*
X95390Y61449D02*
X171633Y137692D01*
X91996Y64843D02*
X168239Y141086D01*
X78420Y78420D02*
X145637Y145637D01*
X78420Y78420D02*
X145637Y145637D01*
X75026Y81814D02*
X142243Y149031D01*
X96106Y141482D02*
X107660Y129928D01*
X64843Y91996D02*
X107660Y134813D01*
X56608Y180980D02*
X89900Y147688D01*
X56608Y131279D02*
X89900Y164570D01*
X56608Y187768D02*
X89900Y154476D01*
X56608Y110914D02*
X89965Y144271D01*
X56608Y117702D02*
X89900Y150994D01*
X56608Y151644D02*
X82783Y177819D01*
X56608Y144855D02*
X86177Y174424D01*
X56608Y158432D02*
X79389Y181213D01*
X56608Y124491D02*
X89900Y157782D01*
X56608Y138067D02*
X89571Y171030D01*
X56608Y167403D02*
X184642Y39370D01*
X56608Y160615D02*
X177853Y39370D01*
X56608Y174191D02*
X191430Y39370D01*
X56608Y147038D02*
X164277Y39370D01*
X56608Y153827D02*
X171065Y39370D01*
X61449Y95390D02*
X107660Y141601D01*
X58055Y98785D02*
X107660Y148389D01*
X56608Y140250D02*
X148759Y48100D01*
X56608Y104126D02*
X93423Y140941D01*
X98785Y58055D02*
X175027Y134298D01*
X95618Y48100D02*
X96239Y48721D01*
X83140Y48100D02*
X96860D01*
X81400Y39700D02*
X98200D01*
X79196Y52043D02*
X86057Y58904D01*
X82590Y48649D02*
X89451Y55510D01*
X75802Y55437D02*
X82662Y62298D01*
X88829Y48100D02*
X92845Y52115D01*
X100464Y39370D02*
X103027Y41933D01*
X101388Y41165D02*
X103183Y39370D01*
X96065Y39700D02*
X96394Y39370D01*
X93676D02*
X94006Y39700D01*
X89276D02*
X89606Y39370D01*
X80099D02*
X80522Y39793D01*
X86888Y39370D02*
X87218Y39700D01*
X82488D02*
X82818Y39370D01*
X56608Y126674D02*
X135182Y48100D01*
X56608Y113097D02*
X121606Y48100D01*
X56608Y133462D02*
X141970Y48100D01*
X56608Y100231D02*
X108740Y48100D01*
X56608Y106309D02*
X114818Y48100D01*
X68238Y88602D02*
X107660Y128025D01*
X71632Y85208D02*
X108651Y122227D01*
X53400Y91560D02*
X96860Y48100D01*
X72408Y58832D02*
X79268Y65692D01*
X69014Y62226D02*
X75874Y69086D01*
X53400Y89153D02*
X94453Y48100D01*
X56608Y119886D02*
X128394Y48100D01*
X53400Y82365D02*
X87665Y48100D01*
X53400Y77840D02*
X83140Y48100D01*
X47244Y39370D02*
X208800D01*
X46230Y73130D02*
X78430Y40930D01*
X39370Y76030D02*
X76030Y39370D01*
X73311D02*
X76651Y42710D01*
X66523Y39370D02*
X73257Y46104D01*
X39370Y137124D02*
X45000Y131494D01*
X56608Y100231D02*
Y188889D01*
X39370Y127617D02*
X45000Y133247D01*
X39370Y120829D02*
X45000Y126459D01*
X39370Y130336D02*
X45000Y124706D01*
X39370Y154770D02*
X45000Y160400D01*
X39370Y141193D02*
X45000Y146824D01*
X39370Y164277D02*
X45000Y158647D01*
X39370Y134405D02*
X45000Y140035D01*
X39370Y143912D02*
X45000Y138282D01*
X55437Y75802D02*
X62298Y82662D01*
X58832Y72408D02*
X65692Y79268D01*
X53400Y80553D02*
X58904Y86057D01*
X65620Y65620D02*
X72480Y72480D01*
X62226Y69014D02*
X69086Y75874D01*
X53400Y87341D02*
X55510Y89451D01*
X53400Y77840D02*
Y91560D01*
X45000Y76100D02*
Y209300D01*
X39370Y107252D02*
X45000Y112882D01*
X39370Y109971D02*
X45000Y104341D01*
X39370Y116759D02*
X45000Y111129D01*
X39370Y103183D02*
X45000Y97553D01*
X39370Y100464D02*
X45000Y106094D01*
X39370Y147982D02*
X45000Y153612D01*
X39370Y150700D02*
X45000Y145070D01*
X39370Y157489D02*
X45000Y151859D01*
X39370Y114041D02*
X45000Y119670D01*
X39370Y123547D02*
X45000Y117918D01*
X39370Y96394D02*
X45000Y90765D01*
X39370Y86888D02*
X45000Y92518D01*
X39370Y93676D02*
X45000Y99306D01*
X39370Y66523D02*
X46106Y73259D01*
X39370Y89606D02*
X45000Y83976D01*
X39370Y80099D02*
X45000Y85729D01*
X39370Y47244D02*
Y248031D01*
Y73311D02*
X45000Y78941D01*
X39370Y82818D02*
X45000Y77188D01*
X65620Y65620D02*
X72480Y72480D01*
X41679Y41679D02*
X59680Y59680D01*
X41679Y41679D02*
X59680Y59680D01*
X43892Y40119D02*
X44346Y39923D01*
X43451Y40344D02*
X43892Y40119D01*
X41854Y41504D02*
X42225Y41177D01*
X42616Y40874D01*
X41504Y41854D02*
X41854Y41504D01*
X43025Y40596D02*
X43451Y40344D01*
X42616Y40874D02*
X43025Y40596D01*
X52947Y39370D02*
X66468Y52892D01*
X59735Y39370D02*
X69863Y49498D01*
X46225Y39437D02*
X63074Y56286D01*
X46750Y39386D02*
X47244Y39370D01*
X46257Y39432D02*
X46750Y39386D01*
X44811Y39755D02*
X45286Y39617D01*
X44346Y39923D02*
X44811Y39755D01*
X45769Y39509D02*
X46257Y39432D01*
X45286Y39617D02*
X45769Y39509D01*
X39370Y52947D02*
X52892Y66468D01*
X39437Y46225D02*
X56286Y63074D01*
X39370Y59735D02*
X49498Y69863D01*
X39923Y44346D02*
X40119Y43892D01*
X39755Y44811D02*
X39923Y44346D01*
X39386Y46750D02*
X39432Y46257D01*
X39509Y45769D01*
X39370Y47244D02*
X39386Y46750D01*
X39617Y45286D02*
X39755Y44811D01*
X39509Y45769D02*
X39617Y45286D01*
X39370Y62453D02*
X62453Y39370D01*
X39370Y55665D02*
X55665Y39370D01*
X39370Y69242D02*
X69242Y39370D01*
X41177Y42225D02*
X41504Y41854D01*
X39370Y48877D02*
X48877Y39370D01*
X40344Y43451D02*
X40596Y43025D01*
X40119Y43892D02*
X40344Y43451D01*
X40874Y42616D02*
X41177Y42225D01*
X40596Y43025D02*
X40874Y42616D01*
X138256Y163281D02*
X149719D01*
X90129Y211408D02*
X138256Y163281D01*
X76459Y211408D02*
X90129D01*
X138919Y164881D02*
X154695D01*
X90592Y213208D02*
X138919Y164881D01*
X75713Y213208D02*
X90592D01*
X87200Y197300D02*
Y205900D01*
X191392Y218108D02*
X196500Y213000D01*
X90337Y218108D02*
X191392D01*
X52408Y98492D02*
Y214375D01*
X77100Y222000D02*
X79400Y224300D01*
X74893Y218400D02*
X88083D01*
X74147Y216600D02*
X88828D01*
X89591Y219908D02*
X197092D01*
X46000Y231100D02*
X60400Y245500D01*
X196672Y224300D02*
X202208Y218763D01*
X79400Y224300D02*
X196672D01*
X194700Y187300D02*
Y188400D01*
X202208Y195908D01*
Y218763D01*
X197092Y219908D02*
X199400Y217600D01*
X55692Y195391D02*
X58391Y192692D01*
X62209D01*
X67017Y197500D01*
X68200D01*
X60092Y204464D02*
X64787Y209160D01*
X68445Y201717D02*
X68908D01*
X57492Y196137D02*
X59137Y194492D01*
X61463D01*
X63108Y196137D01*
Y196380D01*
X68445Y201717D01*
X60092Y197508D02*
X60300Y197300D01*
X60092Y197508D02*
Y204464D01*
X52408Y98492D02*
X107000Y43900D01*
X149719Y163281D02*
X161892Y151108D01*
X164156D01*
X197900Y117365D01*
Y83100D02*
Y117365D01*
X154695Y164881D02*
X180376Y139200D01*
X207800D01*
X81400Y43900D02*
X98200D01*
X107000D02*
X152200D01*
X57492Y196137D02*
Y212867D01*
X55692Y195391D02*
Y213613D01*
X52100Y214683D02*
X52408Y214375D01*
X52100Y213700D02*
Y214683D01*
X88828Y216600D02*
X90337Y218108D01*
X88083Y218400D02*
X89591Y219908D01*
X106700Y238100D02*
X115700Y247100D01*
Y249500D01*
X62900Y200200D02*
X70060Y207360D01*
X72410D01*
X76459Y211408D01*
X64787Y209160D02*
X71665D01*
X75713Y213208D01*
X57492Y212867D02*
X64223Y219599D01*
X71148D01*
X74147Y216600D01*
X55692Y213613D02*
X63478Y221399D01*
X71894D01*
X74893Y218400D01*
X60400Y245500D02*
X110000D01*
X55700Y238100D02*
X106700D01*
X190100Y232500D02*
X191322Y231278D01*
X54500Y232500D02*
X123100D01*
X190100D01*
X46000Y231100D02*
X46400Y230700D01*
X46100Y230400D02*
X46400Y230700D01*
X49000Y231400D02*
X55700Y238100D01*
X46100Y218600D02*
Y230400D01*
X49000Y216000D02*
Y231400D01*
X49200Y76100D02*
Y209300D01*
Y76100D02*
X81400Y43900D01*
D56*
X212591Y161909D02*
D03*
X251000Y128500D02*
D03*
D57*
X65862Y216484D02*
D03*
X70587D02*
D03*
X65862Y211760D02*
D03*
X70587D02*
D03*
D58*
X77100Y222000D02*
D03*
X92900Y215300D02*
D03*
X194700Y187300D02*
D03*
X76100Y206300D02*
D03*
X78119Y228300D02*
D03*
X60300Y197300D02*
D03*
X62900Y200200D02*
D03*
X68200Y197500D02*
D03*
X196500Y213000D02*
D03*
X199400Y217600D02*
D03*
X68908Y201717D02*
D03*
X162993Y148300D02*
D03*
X207800Y139200D02*
D03*
X197900Y83100D02*
D03*
X156867Y166681D02*
D03*
X98200Y43900D02*
D03*
X152200D02*
D03*
X111760Y124899D02*
D03*
X94000Y145000D02*
D03*
X52100Y213700D02*
D03*
X115700Y249500D02*
D03*
X110000Y245500D02*
D03*
X54500Y232500D02*
D03*
X191322Y231278D02*
D03*
X123100Y232500D02*
D03*
X225000Y184900D02*
D03*
X202300Y173300D02*
D03*
X81800Y207900D02*
D03*
X87200Y205900D02*
D03*
X46100Y218600D02*
D03*
X49000Y216000D02*
D03*
X49200Y209300D02*
D03*
D59*
X87672Y209400D02*
X148772Y148300D01*
X83300Y209400D02*
X87672D01*
X81800Y207900D02*
X83300Y209400D01*
X111760Y124899D02*
Y172740D01*
X87200Y197300D02*
X111760Y172740D01*
X92900Y215300D02*
X98700D01*
X147319Y166681D02*
X156867D01*
X98700Y215300D02*
X147319Y166681D01*
X76100Y190300D02*
Y206300D01*
Y190300D02*
X94000Y172400D01*
Y145000D02*
Y172400D01*
X148772Y148300D02*
X162993D01*
D60*
X246437Y127067D02*
Y127937D01*
X247000Y128500D01*
X251000D01*
X212591Y161909D02*
X217500D01*
D61*
X335216Y44390D02*
Y162500D01*
X217500D02*
X335216D01*
X217500Y161319D02*
X334035D01*
Y45571D02*
Y161319D01*
X218681Y45571D02*
X334035D01*
X218681D02*
Y158957D01*
X331673D01*
Y47933D02*
Y158957D01*
X221043Y47933D02*
X331673D01*
X221043D02*
Y156595D01*
X329311D01*
Y50295D02*
Y156595D01*
X223406Y50295D02*
X329311D01*
X223406D02*
Y154232D01*
X326949D01*
Y52658D02*
Y154232D01*
X225768Y52658D02*
X326949D01*
X225768D02*
Y151870D01*
X324587D01*
Y55020D02*
Y151870D01*
X228130Y55020D02*
X324587D01*
X228130D02*
Y149508D01*
X322224D01*
Y57382D02*
Y149508D01*
X230492Y57382D02*
X322224D01*
X230492D02*
Y147146D01*
X319862D01*
Y59744D02*
Y147146D01*
X232854Y59744D02*
X319862D01*
X232854D02*
Y144783D01*
X317500D01*
Y62106D02*
Y144783D01*
X235216Y62106D02*
X317500D01*
X235216D02*
Y142421D01*
X315138D01*
Y64468D02*
Y142421D01*
X237579Y64468D02*
X315138D01*
X237579D02*
Y140059D01*
X312776D01*
Y66831D02*
Y140059D01*
X239941Y66831D02*
X312776D01*
X239941D02*
Y137697D01*
X310413D01*
Y69193D02*
Y137697D01*
X242303Y69193D02*
X310413D01*
X242303D02*
Y135335D01*
X308051D01*
Y71555D02*
Y135335D01*
X244665Y71555D02*
X308051D01*
X244665D02*
Y132972D01*
X305689D01*
Y73917D02*
Y132972D01*
X247028Y73917D02*
X305689D01*
X247028D02*
Y127067D01*
X245847Y72736D02*
Y127067D01*
Y72736D02*
X306870D01*
Y134153D01*
X243484D02*
X306870D01*
X243484Y70374D02*
Y134153D01*
Y70374D02*
X309232D01*
Y136516D01*
X241122D02*
X309232D01*
X241122Y68012D02*
Y136516D01*
Y68012D02*
X311595D01*
Y138878D01*
X238760D02*
X311595D01*
X238760Y65650D02*
Y138878D01*
Y65650D02*
X313957D01*
Y141240D01*
X236398D02*
X313957D01*
X236398Y63287D02*
Y141240D01*
Y63287D02*
X316319D01*
Y143602D01*
X234035D02*
X316319D01*
X234035Y60925D02*
Y143602D01*
Y60925D02*
X318681D01*
Y145965D01*
X231673D02*
X318681D01*
X231673Y58563D02*
Y145965D01*
Y58563D02*
X321043D01*
Y148327D01*
X229311D02*
X321043D01*
X229311Y56201D02*
Y148327D01*
Y56201D02*
X323406D01*
Y150689D01*
X226949D02*
X323406D01*
X226949Y53839D02*
Y150689D01*
Y53839D02*
X325768D01*
Y153051D01*
X224587D02*
X325768D01*
X224587Y51476D02*
Y153051D01*
Y51476D02*
X328130D01*
Y155413D01*
X222224D02*
X328130D01*
X222224Y49114D02*
Y155413D01*
Y49114D02*
X330492D01*
Y157776D01*
X219862D02*
X330492D01*
X219862Y46752D02*
Y157776D01*
Y46752D02*
X332854D01*
Y160138D01*
X217500D02*
X332854D01*
X217500Y44390D02*
Y160138D01*
Y44390D02*
X335216D01*
X217500Y161909D02*
Y162500D01*
Y161319D02*
Y161909D01*
X245847Y127067D02*
X246437D01*
X247028D01*
M02*
