G04 Layer_Physical_Order=1*
G04 Layer_Color=255*
%FSLAX25Y25*%
%MOIN*%
G70*
G01*
G75*
%ADD10C,0.00594*%
%ADD11C,0.01000*%
%ADD12O,0.03150X0.00984*%
%ADD13O,0.00984X0.03150*%
%ADD14R,0.10236X0.10236*%
G04:AMPARAMS|DCode=15|XSize=35.43mil|YSize=27.56mil|CornerRadius=0mil|HoleSize=0mil|Usage=FLASHONLY|Rotation=140.000|XOffset=0mil|YOffset=0mil|HoleType=Round|Shape=Rectangle|*
%AMROTATEDRECTD15*
4,1,4,0.02243,-0.00083,0.00471,-0.02194,-0.02243,0.00083,-0.00471,0.02194,0.02243,-0.00083,0.0*
%
%ADD15ROTATEDRECTD15*%

G04:AMPARAMS|DCode=16|XSize=35.43mil|YSize=27.56mil|CornerRadius=0mil|HoleSize=0mil|Usage=FLASHONLY|Rotation=300.000|XOffset=0mil|YOffset=0mil|HoleType=Round|Shape=Rectangle|*
%AMROTATEDRECTD16*
4,1,4,-0.02079,0.00845,0.00308,0.02223,0.02079,-0.00845,-0.00308,-0.02223,-0.02079,0.00845,0.0*
%
%ADD16ROTATEDRECTD16*%

G04:AMPARAMS|DCode=17|XSize=35.43mil|YSize=27.56mil|CornerRadius=0mil|HoleSize=0mil|Usage=FLASHONLY|Rotation=340.000|XOffset=0mil|YOffset=0mil|HoleType=Round|Shape=Rectangle|*
%AMROTATEDRECTD17*
4,1,4,-0.02136,-0.00689,-0.01194,0.01901,0.02136,0.00689,0.01194,-0.01901,-0.02136,-0.00689,0.0*
%
%ADD17ROTATEDRECTD17*%

G04:AMPARAMS|DCode=18|XSize=35.43mil|YSize=27.56mil|CornerRadius=0mil|HoleSize=0mil|Usage=FLASHONLY|Rotation=20.000|XOffset=0mil|YOffset=0mil|HoleType=Round|Shape=Rectangle|*
%AMROTATEDRECTD18*
4,1,4,-0.01194,-0.01901,-0.02136,0.00689,0.01194,0.01901,0.02136,-0.00689,-0.01194,-0.01901,0.0*
%
%ADD18ROTATEDRECTD18*%

G04:AMPARAMS|DCode=19|XSize=35.43mil|YSize=27.56mil|CornerRadius=0mil|HoleSize=0mil|Usage=FLASHONLY|Rotation=60.000|XOffset=0mil|YOffset=0mil|HoleType=Round|Shape=Rectangle|*
%AMROTATEDRECTD19*
4,1,4,0.00308,-0.02223,-0.02079,-0.00845,-0.00308,0.02223,0.02079,0.00845,0.00308,-0.02223,0.0*
%
%ADD19ROTATEDRECTD19*%

G04:AMPARAMS|DCode=20|XSize=35.43mil|YSize=27.56mil|CornerRadius=0mil|HoleSize=0mil|Usage=FLASHONLY|Rotation=100.000|XOffset=0mil|YOffset=0mil|HoleType=Round|Shape=Rectangle|*
%AMROTATEDRECTD20*
4,1,4,0.01665,-0.01506,-0.01049,-0.01984,-0.01665,0.01506,0.01049,0.01984,0.01665,-0.01506,0.0*
%
%ADD20ROTATEDRECTD20*%

%ADD21P,0.06681X4X75.0*%
%ADD22P,0.06681X4X95.0*%
G04:AMPARAMS|DCode=23|XSize=35.43mil|YSize=31.5mil|CornerRadius=0mil|HoleSize=0mil|Usage=FLASHONLY|Rotation=300.000|XOffset=0mil|YOffset=0mil|HoleType=Round|Shape=Rectangle|*
%AMROTATEDRECTD23*
4,1,4,-0.02250,0.00747,0.00478,0.02322,0.02250,-0.00747,-0.00478,-0.02322,-0.02250,0.00747,0.0*
%
%ADD23ROTATEDRECTD23*%

G04:AMPARAMS|DCode=24|XSize=35.43mil|YSize=31.5mil|CornerRadius=0mil|HoleSize=0mil|Usage=FLASHONLY|Rotation=340.000|XOffset=0mil|YOffset=0mil|HoleType=Round|Shape=Rectangle|*
%AMROTATEDRECTD24*
4,1,4,-0.02203,-0.00874,-0.01126,0.02086,0.02203,0.00874,0.01126,-0.02086,-0.02203,-0.00874,0.0*
%
%ADD24ROTATEDRECTD24*%

G04:AMPARAMS|DCode=25|XSize=35.43mil|YSize=31.5mil|CornerRadius=0mil|HoleSize=0mil|Usage=FLASHONLY|Rotation=20.000|XOffset=0mil|YOffset=0mil|HoleType=Round|Shape=Rectangle|*
%AMROTATEDRECTD25*
4,1,4,-0.01126,-0.02086,-0.02203,0.00874,0.01126,0.02086,0.02203,-0.00874,-0.01126,-0.02086,0.0*
%
%ADD25ROTATEDRECTD25*%

G04:AMPARAMS|DCode=26|XSize=35.43mil|YSize=31.5mil|CornerRadius=0mil|HoleSize=0mil|Usage=FLASHONLY|Rotation=60.000|XOffset=0mil|YOffset=0mil|HoleType=Round|Shape=Rectangle|*
%AMROTATEDRECTD26*
4,1,4,0.00478,-0.02322,-0.02250,-0.00747,-0.00478,0.02322,0.02250,0.00747,0.00478,-0.02322,0.0*
%
%ADD26ROTATEDRECTD26*%

G04:AMPARAMS|DCode=27|XSize=35.43mil|YSize=31.5mil|CornerRadius=0mil|HoleSize=0mil|Usage=FLASHONLY|Rotation=100.000|XOffset=0mil|YOffset=0mil|HoleType=Round|Shape=Rectangle|*
%AMROTATEDRECTD27*
4,1,4,0.01859,-0.01471,-0.01243,-0.02018,-0.01859,0.01471,0.01243,0.02018,0.01859,-0.01471,0.0*
%
%ADD27ROTATEDRECTD27*%

G04:AMPARAMS|DCode=28|XSize=35.43mil|YSize=31.5mil|CornerRadius=0mil|HoleSize=0mil|Usage=FLASHONLY|Rotation=140.000|XOffset=0mil|YOffset=0mil|HoleType=Round|Shape=Rectangle|*
%AMROTATEDRECTD28*
4,1,4,0.02369,0.00068,0.00345,-0.02345,-0.02369,-0.00068,-0.00345,0.02345,0.02369,0.00068,0.0*
%
%ADD28ROTATEDRECTD28*%

%ADD29R,0.03543X0.03150*%
G04:AMPARAMS|DCode=30|XSize=35.43mil|YSize=31.5mil|CornerRadius=0mil|HoleSize=0mil|Usage=FLASHONLY|Rotation=220.000|XOffset=0mil|YOffset=0mil|HoleType=Round|Shape=Rectangle|*
%AMROTATEDRECTD30*
4,1,4,0.00345,0.02345,0.02369,-0.00068,-0.00345,-0.02345,-0.02369,0.00068,0.00345,0.02345,0.0*
%
%ADD30ROTATEDRECTD30*%

G04:AMPARAMS|DCode=31|XSize=35.43mil|YSize=31.5mil|CornerRadius=0mil|HoleSize=0mil|Usage=FLASHONLY|Rotation=260.000|XOffset=0mil|YOffset=0mil|HoleType=Round|Shape=Rectangle|*
%AMROTATEDRECTD31*
4,1,4,-0.01243,0.02018,0.01859,0.01471,0.01243,-0.02018,-0.01859,-0.01471,-0.01243,0.02018,0.0*
%
%ADD31ROTATEDRECTD31*%

%ADD32R,0.03543X0.02756*%
G04:AMPARAMS|DCode=33|XSize=35.43mil|YSize=27.56mil|CornerRadius=0mil|HoleSize=0mil|Usage=FLASHONLY|Rotation=220.000|XOffset=0mil|YOffset=0mil|HoleType=Round|Shape=Rectangle|*
%AMROTATEDRECTD33*
4,1,4,0.00471,0.02194,0.02243,0.00083,-0.00471,-0.02194,-0.02243,-0.00083,0.00471,0.02194,0.0*
%
%ADD33ROTATEDRECTD33*%

G04:AMPARAMS|DCode=34|XSize=35.43mil|YSize=27.56mil|CornerRadius=0mil|HoleSize=0mil|Usage=FLASHONLY|Rotation=260.000|XOffset=0mil|YOffset=0mil|HoleType=Round|Shape=Rectangle|*
%AMROTATEDRECTD34*
4,1,4,-0.01049,0.01984,0.01665,0.01506,0.01049,-0.01984,-0.01665,-0.01506,-0.01049,0.01984,0.0*
%
%ADD34ROTATEDRECTD34*%

%ADD35P,0.06681X4X155.0*%
%ADD36P,0.06681X4X195.0*%
%ADD37P,0.06681X4X235.0*%
%ADD38P,0.06681X4X175.0*%
%ADD39P,0.06681X4X215.0*%
%ADD40R,0.04724X0.04724*%
%ADD41P,0.06681X4X295.0*%
G04:AMPARAMS|DCode=42|XSize=17.72mil|YSize=41.34mil|CornerRadius=1.95mil|HoleSize=0mil|Usage=FLASHONLY|Rotation=90.000|XOffset=0mil|YOffset=0mil|HoleType=Round|Shape=RoundedRectangle|*
%AMROUNDEDRECTD42*
21,1,0.01772,0.03744,0,0,90.0*
21,1,0.01382,0.04134,0,0,90.0*
1,1,0.00390,0.01872,0.00691*
1,1,0.00390,0.01872,-0.00691*
1,1,0.00390,-0.01872,-0.00691*
1,1,0.00390,-0.01872,0.00691*
%
%ADD42ROUNDEDRECTD42*%
%ADD43R,0.03150X0.03543*%
%ADD44R,0.19685X0.19685*%
%ADD45R,0.07874X0.02559*%
%ADD46R,0.02362X0.04528*%
%ADD47R,0.02756X0.03543*%
%ADD48R,0.03150X0.03150*%
%ADD49R,0.05118X0.07480*%
G04:AMPARAMS|DCode=50|XSize=39.37mil|YSize=45.28mil|CornerRadius=0mil|HoleSize=0mil|Usage=FLASHONLY|Rotation=310.000|XOffset=0mil|YOffset=0mil|HoleType=Round|Shape=Rectangle|*
%AMROTATEDRECTD50*
4,1,4,-0.03000,0.00053,0.00469,0.02963,0.03000,-0.00053,-0.00469,-0.02963,-0.03000,0.00053,0.0*
%
%ADD50ROTATEDRECTD50*%

G04:AMPARAMS|DCode=51|XSize=35.43mil|YSize=31.5mil|CornerRadius=0mil|HoleSize=0mil|Usage=FLASHONLY|Rotation=130.000|XOffset=0mil|YOffset=0mil|HoleType=Round|Shape=Rectangle|*
%AMROTATEDRECTD51*
4,1,4,0.02345,-0.00345,-0.00068,-0.02369,-0.02345,0.00345,0.00068,0.02369,0.02345,-0.00345,0.0*
%
%ADD51ROTATEDRECTD51*%

G04:AMPARAMS|DCode=52|XSize=35.43mil|YSize=27.56mil|CornerRadius=0mil|HoleSize=0mil|Usage=FLASHONLY|Rotation=130.000|XOffset=0mil|YOffset=0mil|HoleType=Round|Shape=Rectangle|*
%AMROTATEDRECTD52*
4,1,4,0.02194,-0.00471,0.00083,-0.02243,-0.02194,0.00471,-0.00083,0.02243,0.02194,-0.00471,0.0*
%
%ADD52ROTATEDRECTD52*%

G04:AMPARAMS|DCode=53|XSize=17.72mil|YSize=55.12mil|CornerRadius=0mil|HoleSize=0mil|Usage=FLASHONLY|Rotation=220.000|XOffset=0mil|YOffset=0mil|HoleType=Round|Shape=Round|*
%AMOVALD53*
21,1,0.03740,0.01772,0.00000,0.00000,310.0*
1,1,0.01772,-0.01202,0.01433*
1,1,0.01772,0.01202,-0.01433*
%
%ADD53OVALD53*%

%ADD54C,0.05000*%
%ADD55C,0.00445*%
%ADD56C,0.06000*%
%ADD57C,0.02598*%
%ADD58C,0.03017*%
G36*
X217205Y241609D02*
X217569Y241365D01*
X217998Y241280D01*
X218386Y240983D01*
Y240522D01*
X222996D01*
Y234600D01*
X223186Y234141D01*
X223300Y234094D01*
X223300Y226500D01*
X207600Y226500D01*
X207600Y241900D01*
X211143D01*
X211263Y241819D01*
X211574Y241758D01*
X215318D01*
X215628Y241819D01*
X215749Y241900D01*
X216914D01*
X217205Y241609D01*
D02*
G37*
G36*
X235600Y244335D02*
X234319D01*
Y238607D01*
X235600D01*
Y234600D01*
X223646D01*
Y240522D01*
X227460D01*
Y244281D01*
X223646D01*
Y244600D01*
X218400D01*
Y249507D01*
X221800D01*
Y249828D01*
X221919D01*
Y254572D01*
X221800D01*
Y255906D01*
X235600D01*
Y244335D01*
D02*
G37*
G36*
X337300Y199914D02*
X336841Y199500D01*
X286919D01*
X286442Y199557D01*
X286442Y200000D01*
Y220443D01*
X265558D01*
Y200000D01*
X265558Y199557D01*
X265081Y199500D01*
X214800D01*
Y220300D01*
X231900Y220300D01*
X231900Y233951D01*
X235600D01*
X236059Y234141D01*
X236249Y234600D01*
Y238607D01*
X236059Y239066D01*
X235600Y239257D01*
X234968D01*
Y243685D01*
X235600D01*
X236059Y243875D01*
X236249Y244335D01*
Y246000D01*
X337300Y246000D01*
X337300Y199914D01*
D02*
G37*
G36*
X332621Y255890D02*
X333113Y255843D01*
X333602Y255766D01*
X334084Y255658D01*
X334559Y255520D01*
X335024Y255353D01*
X335479Y255156D01*
X335919Y254931D01*
X336345Y254680D01*
X336754Y254402D01*
X337145Y254098D01*
X337516Y253771D01*
X337866Y253422D01*
X338193Y253050D01*
X338496Y252660D01*
X338774Y252251D01*
X339026Y251825D01*
X339251Y251384D01*
X339447Y250930D01*
X339615Y250465D01*
X339753Y249990D01*
X339861Y249507D01*
X339938Y249019D01*
X339985Y248526D01*
X340000Y248031D01*
Y168300D01*
X340000Y167800D01*
X236100D01*
X224937Y181379D01*
X225793Y182235D01*
X226036Y182599D01*
X226122Y183028D01*
X226121Y183028D01*
Y184900D01*
X226122Y184900D01*
X226036Y185329D01*
X225793Y185693D01*
X214793Y196693D01*
X214429Y196936D01*
X214000Y197022D01*
X214000Y197022D01*
X213271D01*
X213271Y197022D01*
X212842Y196936D01*
X212478Y196693D01*
X212099Y196995D01*
X209741Y199863D01*
X196951Y188406D01*
X196455Y188468D01*
X196220Y188820D01*
X195523Y189286D01*
X194700Y189450D01*
X193877Y189286D01*
X193180Y188820D01*
X192714Y188123D01*
X192550Y187300D01*
X192714Y186477D01*
X193180Y185780D01*
X193578Y185514D01*
Y184901D01*
X193578Y184901D01*
X193664Y184472D01*
X193907Y184108D01*
X195033Y182982D01*
X195012Y182482D01*
X194473Y182030D01*
X197016Y179000D01*
X198873Y180558D01*
X200595Y178528D01*
X200564Y178309D01*
X200321Y177945D01*
X200236Y177516D01*
Y174443D01*
X200236Y174443D01*
X200321Y174013D01*
X200565Y173649D01*
X206107Y168107D01*
X206107Y168107D01*
X206471Y167864D01*
X206900Y167778D01*
X208800D01*
Y141623D01*
X208300Y141250D01*
X207800Y141350D01*
X206977Y141186D01*
X206280Y140720D01*
X206014Y140322D01*
X204818D01*
X204591Y141609D01*
X200695Y140922D01*
X201519Y136251D01*
X205415Y136938D01*
X205292Y137633D01*
X205623Y138019D01*
X206063Y138004D01*
X206280Y137680D01*
X206977Y137214D01*
X207800Y137050D01*
X208300Y137150D01*
X208800Y136777D01*
Y39370D01*
X47244D01*
X46750Y39386D01*
X46257Y39432D01*
X45769Y39509D01*
X45286Y39617D01*
X44811Y39755D01*
X44346Y39923D01*
X43892Y40119D01*
X43451Y40344D01*
X43025Y40596D01*
X42616Y40874D01*
X42225Y41177D01*
X41854Y41504D01*
X41504Y41854D01*
X41177Y42225D01*
X40874Y42616D01*
X40596Y43025D01*
X40344Y43451D01*
X40119Y43892D01*
X39923Y44346D01*
X39755Y44811D01*
X39617Y45286D01*
X39509Y45769D01*
X39432Y46257D01*
X39386Y46750D01*
X39370Y47244D01*
Y248031D01*
X39386Y248526D01*
X39432Y249019D01*
X39509Y249507D01*
X39617Y249990D01*
X39755Y250465D01*
X39923Y250930D01*
X40119Y251384D01*
X40344Y251825D01*
X40596Y252251D01*
X40874Y252660D01*
X41177Y253050D01*
X41504Y253422D01*
X41854Y253771D01*
X42225Y254098D01*
X42616Y254402D01*
X43025Y254680D01*
X43451Y254931D01*
X43892Y255156D01*
X44346Y255353D01*
X44811Y255520D01*
X45286Y255658D01*
X45769Y255766D01*
X46257Y255843D01*
X46750Y255890D01*
X47244Y255906D01*
X221151D01*
Y254572D01*
X221269Y254285D01*
Y251672D01*
Y250156D01*
X218400D01*
X217941Y249966D01*
X217751Y249507D01*
Y248594D01*
X217623Y248510D01*
X217623Y248510D01*
X216373Y247260D01*
X215891Y247082D01*
X215628Y247258D01*
X215318Y247320D01*
X211574D01*
X211263Y247258D01*
X211001Y247082D01*
X210905Y246940D01*
X206340D01*
X206245Y247082D01*
X205982Y247258D01*
X205672Y247320D01*
X201928D01*
X201618Y247258D01*
X201355Y247082D01*
X201179Y246819D01*
X201117Y246509D01*
Y245127D01*
X201179Y244817D01*
X201346Y244539D01*
X201179Y244260D01*
X201117Y243950D01*
Y242568D01*
X201179Y242258D01*
X201355Y241995D01*
X201618Y241819D01*
X201928Y241758D01*
X205672D01*
X205982Y241819D01*
X206245Y241995D01*
X206759Y241876D01*
X206951Y241637D01*
X206951Y232330D01*
X206948Y231831D01*
X202992D01*
Y231587D01*
Y229067D01*
X202660Y228735D01*
X202198Y228926D01*
D01*
Y229084D01*
X197848D01*
Y224735D01*
X202198D01*
Y225381D01*
X202420Y225788D01*
X202850Y225873D01*
X203214Y226116D01*
X204185Y227087D01*
X206264D01*
X206456Y226625D01*
X203952Y224121D01*
X192444D01*
Y229492D01*
X192842Y229758D01*
X193308Y230455D01*
X193472Y231278D01*
X193308Y232101D01*
X192842Y232798D01*
X192145Y233264D01*
X191322Y233428D01*
X190499Y233264D01*
X189802Y232798D01*
X189336Y232101D01*
X189172Y231278D01*
X189336Y230455D01*
X189802Y229758D01*
X190200Y229492D01*
Y227710D01*
X189700Y227528D01*
X186887Y230882D01*
X182499Y227200D01*
X185801Y223265D01*
X187304Y224527D01*
X188342Y223489D01*
X188313Y222811D01*
X186708Y221465D01*
X186708Y221465D01*
X182955Y218316D01*
X182955Y218316D01*
X182572Y217994D01*
X179479Y215399D01*
X179136Y215217D01*
X178831Y215455D01*
X177161Y217445D01*
X177686Y217970D01*
X178185Y217948D01*
X178714Y217318D01*
X183101Y221000D01*
X179799Y224935D01*
X175411Y221253D01*
X176500Y219956D01*
X175080Y218536D01*
X174837Y218173D01*
X174754Y217754D01*
X172683Y216016D01*
X175575Y212569D01*
X175897Y212186D01*
X175897Y212186D01*
X178789Y208738D01*
X179111Y208355D01*
X179432Y207972D01*
X182160Y204722D01*
X182678Y205157D01*
X183178Y204924D01*
Y204800D01*
X183178Y204800D01*
X183264Y204371D01*
X183507Y204007D01*
X184307Y203207D01*
X184671Y202964D01*
X185100Y202878D01*
X185100Y202878D01*
X186663D01*
X187742Y201594D01*
X188203Y201224D01*
X188770Y201058D01*
X189358Y201123D01*
X189876Y201407D01*
X190246Y201868D01*
X190368Y202288D01*
X190592Y202544D01*
X190883Y202720D01*
X191318Y202768D01*
X191836Y203052D01*
X192206Y203513D01*
X192372Y204080D01*
X192843Y204365D01*
X193278Y204413D01*
X193797Y204697D01*
X194167Y205158D01*
X194289Y205578D01*
X194651Y205993D01*
X195239Y206057D01*
X195757Y206342D01*
X196127Y206803D01*
X196292Y207370D01*
X196228Y207958D01*
X195944Y208476D01*
X195825Y208617D01*
X196037Y209070D01*
X197663D01*
X197663Y209070D01*
X198092Y209156D01*
X198456Y209399D01*
X200193Y211135D01*
X200436Y211499D01*
X200522Y211928D01*
X200522Y211929D01*
Y215814D01*
X200920Y216080D01*
X201386Y216777D01*
X201550Y217600D01*
X201386Y218423D01*
X200920Y219120D01*
X200223Y219586D01*
X199400Y219750D01*
X198577Y219586D01*
X197880Y219120D01*
X197414Y218423D01*
X197344Y218072D01*
X195747D01*
X194138Y219990D01*
X190504Y216941D01*
X190504Y216941D01*
X186751Y213792D01*
X186751Y213792D01*
X186368Y213470D01*
X182997Y210642D01*
X182627Y210931D01*
X182278Y211348D01*
X181966Y211734D01*
X182052Y212394D01*
X185378Y215184D01*
X185378Y215184D01*
X185761Y215506D01*
X189131Y218334D01*
X189131Y218334D01*
X192885Y221484D01*
Y221484D01*
X193069Y221879D01*
X204416D01*
X204416Y221878D01*
X204846Y221964D01*
X205210Y222207D01*
X206250Y223248D01*
X208853Y225851D01*
X223300Y225851D01*
X223759Y226041D01*
X223949Y226500D01*
X223949Y233951D01*
X231251D01*
X231251Y220949D01*
X214800Y220949D01*
X214341Y220759D01*
X214151Y220300D01*
Y199500D01*
X214341Y199041D01*
X214800Y198851D01*
X265081D01*
X265119Y198866D01*
X265159Y198855D01*
X265635Y198913D01*
X265820Y199017D01*
X266017Y199098D01*
X266033Y199136D01*
X266068Y199157D01*
X266126Y199361D01*
X266207Y199557D01*
X266207Y200000D01*
Y219793D01*
X285793D01*
Y200000D01*
X285793Y199557D01*
X285874Y199361D01*
X285932Y199157D01*
X285967Y199136D01*
X285983Y199098D01*
X286180Y199017D01*
X286365Y198913D01*
X286841Y198855D01*
X286881Y198866D01*
X286919Y198851D01*
X336841D01*
X337057Y198940D01*
X337277Y199018D01*
X337735Y199432D01*
X337743Y199448D01*
X337759Y199455D01*
X337848Y199670D01*
X337949Y199881D01*
X337943Y199898D01*
X337949Y199914D01*
X337949Y246000D01*
X337759Y246459D01*
X337300Y246649D01*
X243300Y246649D01*
D01*
X236249D01*
Y255906D01*
X332126D01*
X332621Y255890D01*
D02*
G37*
%LPC*%
G36*
X171672Y184282D02*
X169129Y181252D01*
X172763Y178203D01*
X172837Y178291D01*
X173336Y178322D01*
X175914Y175922D01*
X177911Y173777D01*
X177880Y173278D01*
X176157Y171831D01*
X179965Y167293D01*
X181703Y168751D01*
X182201Y168703D01*
X182616Y168187D01*
X185536Y163981D01*
X185886Y163391D01*
X185760Y162908D01*
X185650Y162845D01*
X188022Y158737D01*
X188131Y158800D01*
X188610Y158656D01*
X190441Y154999D01*
X191528Y152374D01*
X191327Y151916D01*
X189032Y151081D01*
X191058Y145514D01*
X196625Y147540D01*
X194599Y153107D01*
X193783Y152810D01*
X192489Y155934D01*
X190399Y160109D01*
X191789Y160911D01*
X189417Y165019D01*
X188016Y164210D01*
X187430Y165198D01*
X184418Y169536D01*
X183700Y170428D01*
X184503Y171101D01*
X180695Y175640D01*
X179884Y174959D01*
X177506Y177514D01*
X174519Y180295D01*
X175306Y181233D01*
X171672Y184282D01*
D02*
G37*
G36*
X127565Y200336D02*
X122821D01*
Y196380D01*
X127565D01*
Y196486D01*
X127924Y196834D01*
X130310Y196748D01*
X134353Y196314D01*
X134654Y195914D01*
X134260Y193681D01*
X140094Y192652D01*
X140491Y194901D01*
X140911Y195172D01*
X145402Y194026D01*
X147129Y193451D01*
X147346Y193001D01*
X147309Y192899D01*
X151766Y191277D01*
X151803Y191378D01*
X152261Y191580D01*
X154991Y190449D01*
X158119Y188883D01*
X158263Y188404D01*
X157135Y186450D01*
X162265Y183488D01*
X165227Y188618D01*
X160097Y191581D01*
X159572Y190672D01*
X155926Y192497D01*
X152697Y193834D01*
X153254Y195364D01*
X148797Y196986D01*
X148239Y195453D01*
X146036Y196186D01*
X140947Y197485D01*
X141123Y198486D01*
X135289Y199515D01*
X135109Y198495D01*
X130471Y198994D01*
X127565Y199098D01*
Y200336D01*
D02*
G37*
G36*
X70421Y83109D02*
X65883Y79300D01*
X69691Y74762D01*
X70502Y75442D01*
X72880Y72888D01*
X75867Y70106D01*
X74827Y68867D01*
X78461Y65818D01*
X79506Y67064D01*
X80857Y65975D01*
X85195Y62963D01*
X85675Y62679D01*
X85158Y61783D01*
X90289Y58821D01*
X90814Y59730D01*
X94460Y57905D01*
X97689Y56567D01*
X97267Y55408D01*
X101724Y53785D01*
X103077Y57503D01*
X98620Y59125D01*
X98582Y59023D01*
X98125Y58822D01*
X95395Y59953D01*
X92267Y61519D01*
X92123Y61997D01*
X93251Y63952D01*
X88121Y66914D01*
X86978Y64935D01*
X86555Y64825D01*
X86372Y64885D01*
X82206Y67778D01*
X81231Y68564D01*
X81182Y69061D01*
X81256Y69150D01*
X77623Y72199D01*
X77549Y72110D01*
X77050Y72080D01*
X74472Y74480D01*
X72475Y76625D01*
X72505Y77124D01*
X74229Y78570D01*
X70421Y83109D01*
D02*
G37*
G36*
X151766Y59125D02*
X147309Y57503D01*
X147346Y57401D01*
X147129Y56951D01*
X145402Y56376D01*
X140911Y55230D01*
X140491Y55501D01*
X140094Y57749D01*
X134260Y56721D01*
X134654Y54488D01*
X134353Y54088D01*
X130310Y53653D01*
X127924Y53568D01*
X127565Y53915D01*
Y54021D01*
X122821D01*
Y53915D01*
X122461Y53568D01*
X120076Y53653D01*
X116033Y54088D01*
X115732Y54488D01*
X116126Y56721D01*
X110292Y57749D01*
X109263Y51915D01*
X115097Y50886D01*
X115277Y51906D01*
X119915Y51407D01*
X122821Y51304D01*
Y49672D01*
X127565D01*
Y51304D01*
X130471Y51407D01*
X135109Y51906D01*
X135289Y50886D01*
X141123Y51915D01*
X140946Y52917D01*
X146036Y54216D01*
X148239Y54949D01*
X148662Y53785D01*
X153119Y55408D01*
X151766Y59125D01*
D02*
G37*
G36*
X198775Y140584D02*
X194879Y139897D01*
X195703Y135225D01*
X195843Y135250D01*
X196243Y134950D01*
X196740Y130318D01*
X196805Y128523D01*
X196457Y128163D01*
X194207D01*
Y122239D01*
X196457D01*
X196805Y121879D01*
X196740Y120084D01*
X196243Y115452D01*
X195843Y115152D01*
X195703Y115176D01*
X194879Y110505D01*
X195019Y110480D01*
X195293Y110088D01*
X195277Y109927D01*
X194018Y104992D01*
X193630Y103826D01*
X193179Y103608D01*
X191058Y104380D01*
X189032Y98813D01*
X194599Y96787D01*
X196625Y102354D01*
X195631Y102716D01*
X196178Y104358D01*
X197484Y109475D01*
X197584Y110028D01*
X199163Y109750D01*
X199986Y114421D01*
X198424Y114696D01*
X198986Y119923D01*
X199069Y122239D01*
X200132D01*
Y128163D01*
X199069D01*
X198986Y130479D01*
X198424Y135705D01*
X199599Y135912D01*
X198775Y140584D01*
D02*
G37*
G36*
X188022Y91665D02*
X185650Y87557D01*
X185760Y87494D01*
X185886Y87010D01*
X185536Y86420D01*
X182616Y82214D01*
X182201Y81699D01*
X181703Y81650D01*
X179965Y83109D01*
X176157Y78570D01*
X177880Y77124D01*
X177911Y76625D01*
X175914Y74480D01*
X173336Y72080D01*
X172837Y72110D01*
X172763Y72199D01*
X169129Y69150D01*
X169203Y69061D01*
X169155Y68564D01*
X168179Y67778D01*
X164014Y64885D01*
X163831Y64825D01*
X163408Y64935D01*
X162265Y66914D01*
X157135Y63952D01*
X160097Y58821D01*
X165227Y61783D01*
X164711Y62679D01*
X165190Y62963D01*
X169528Y65975D01*
X170879Y67064D01*
X171925Y65818D01*
X175559Y68867D01*
X174519Y70106D01*
X177506Y72888D01*
X179884Y75442D01*
X180695Y74762D01*
X184503Y79300D01*
X183700Y79974D01*
X184418Y80865D01*
X187430Y85203D01*
X187950Y86080D01*
X188120Y86118D01*
X188154Y86111D01*
X189076Y85579D01*
X191448Y89687D01*
X188022Y91665D01*
D02*
G37*
G36*
X193136Y88712D02*
X190765Y84604D01*
X194191Y82626D01*
X194936Y83917D01*
X195431Y83982D01*
X195844Y83570D01*
X195750Y83100D01*
X195914Y82277D01*
X196380Y81580D01*
X197077Y81114D01*
X197900Y80950D01*
X198723Y81114D01*
X199420Y81580D01*
X199886Y82277D01*
X200050Y83100D01*
X199886Y83923D01*
X199420Y84620D01*
X198723Y85086D01*
X197900Y85250D01*
X197430Y85156D01*
X196302Y86284D01*
X196562Y86734D01*
X193136Y88712D01*
D02*
G37*
G36*
X56179Y128163D02*
X50254D01*
Y122239D01*
X51317D01*
X51400Y119923D01*
X51961Y114696D01*
X50399Y114421D01*
X51223Y109750D01*
X52802Y110028D01*
X52902Y109475D01*
X54208Y104358D01*
X54754Y102716D01*
X53761Y102354D01*
X55787Y96787D01*
X56786Y97150D01*
X57897Y94468D01*
X59987Y90293D01*
X58938Y89687D01*
X61310Y85579D01*
X64736Y87557D01*
X62364Y91665D01*
X62254Y91602D01*
X61775Y91746D01*
X59945Y95403D01*
X59040Y97587D01*
X59242Y98044D01*
X61354Y98813D01*
X59328Y104380D01*
X57206Y103608D01*
X56756Y103826D01*
X56368Y104992D01*
X55108Y109927D01*
X55093Y110088D01*
X55367Y110480D01*
X55507Y110505D01*
X54683Y115176D01*
X54543Y115152D01*
X54143Y115452D01*
X53645Y120084D01*
X53581Y121879D01*
X53928Y122239D01*
X56179D01*
Y128163D01*
D02*
G37*
G36*
X90486Y253739D02*
X84168D01*
Y245059D01*
X90486D01*
Y253739D01*
D02*
G37*
G36*
Y241141D02*
X84168D01*
Y232461D01*
X90486D01*
Y241141D01*
D02*
G37*
G36*
X241621Y253193D02*
X238059D01*
Y247465D01*
X241621D01*
Y253193D01*
D02*
G37*
G36*
X130400Y254527D02*
X129591Y254420D01*
X128837Y254108D01*
X128189Y253611D01*
X127692Y252963D01*
X127380Y252209D01*
X127273Y251400D01*
X127380Y250591D01*
X127692Y249837D01*
X128189Y249189D01*
X128837Y248692D01*
X129278Y248509D01*
Y246812D01*
X125734Y243267D01*
X125272Y243458D01*
Y246731D01*
X120528D01*
Y245874D01*
X119672D01*
Y246731D01*
X114928D01*
Y246621D01*
X111786D01*
X111520Y247020D01*
X111122Y247286D01*
Y248368D01*
X111209Y248380D01*
X111963Y248692D01*
X112611Y249189D01*
X113108Y249837D01*
X113588Y249689D01*
X113550Y249500D01*
X113714Y248677D01*
X114180Y247980D01*
X114877Y247514D01*
X115700Y247350D01*
X116523Y247514D01*
X117220Y247980D01*
X117486Y248378D01*
X118500D01*
X118500Y248378D01*
X118929Y248464D01*
X119105Y248581D01*
X119591Y248380D01*
X120400Y248273D01*
X121209Y248380D01*
X121963Y248692D01*
X122611Y249189D01*
X123108Y249837D01*
X123420Y250591D01*
X123527Y251400D01*
X123420Y252209D01*
X123108Y252963D01*
X122611Y253611D01*
X121963Y254108D01*
X121209Y254420D01*
X120400Y254527D01*
X119591Y254420D01*
X118837Y254108D01*
X118189Y253611D01*
X117692Y252963D01*
X117380Y252209D01*
X117296Y251571D01*
X116915Y251337D01*
X116780Y251314D01*
X116523Y251486D01*
X115700Y251650D01*
X114877Y251486D01*
X114180Y251020D01*
X113932Y250649D01*
X113452Y250830D01*
X113527Y251400D01*
X113420Y252209D01*
X113108Y252963D01*
X112611Y253611D01*
X111963Y254108D01*
X111209Y254420D01*
X110400Y254527D01*
X109591Y254420D01*
X108837Y254108D01*
X108189Y253611D01*
X107692Y252963D01*
X107380Y252209D01*
X107273Y251400D01*
X107380Y250591D01*
X107692Y249837D01*
X108189Y249189D01*
X108837Y248692D01*
X108878Y248675D01*
Y247286D01*
X108480Y247020D01*
X108014Y246323D01*
X107850Y245500D01*
X108014Y244677D01*
X108480Y243980D01*
X109177Y243514D01*
X110000Y243350D01*
X110823Y243514D01*
X111520Y243980D01*
X111786Y244378D01*
X114928D01*
Y242381D01*
X119672D01*
Y243631D01*
X120528D01*
Y242775D01*
X124588D01*
X124779Y242313D01*
X123292Y240825D01*
X120528D01*
Y236869D01*
X121978D01*
Y234286D01*
X121580Y234020D01*
X121114Y233323D01*
X120950Y232500D01*
X121114Y231677D01*
X121580Y230980D01*
X122277Y230514D01*
X123100Y230350D01*
X123923Y230514D01*
X124620Y230980D01*
X125086Y231677D01*
X125250Y232500D01*
X125086Y233323D01*
X124620Y234020D01*
X124222Y234286D01*
Y236869D01*
X125272D01*
Y239633D01*
X131193Y245554D01*
X131193Y245554D01*
X131436Y245918D01*
X131522Y246347D01*
X131522Y246347D01*
Y248509D01*
X131963Y248692D01*
X132611Y249189D01*
X133108Y249837D01*
X133420Y250591D01*
X133527Y251400D01*
X133420Y252209D01*
X133108Y252963D01*
X132611Y253611D01*
X131963Y254108D01*
X131209Y254420D01*
X130400Y254527D01*
D02*
G37*
G36*
X153786Y53576D02*
X149329Y51953D01*
X150682Y48236D01*
X150682D01*
X151078Y47958D01*
Y45686D01*
X150680Y45420D01*
X150214Y44723D01*
X150050Y43900D01*
X150214Y43077D01*
X150680Y42380D01*
X151377Y41914D01*
X152200Y41750D01*
X153023Y41914D01*
X153720Y42380D01*
X154186Y43077D01*
X154350Y43900D01*
X154186Y44723D01*
X153720Y45420D01*
X153322Y45686D01*
Y49197D01*
X155139Y49858D01*
X153786Y53576D01*
D02*
G37*
G36*
X115097Y199515D02*
X109263Y198486D01*
X109439Y197485D01*
X104350Y196186D01*
X102147Y195453D01*
X101589Y196986D01*
X97132Y195364D01*
X97689Y193834D01*
X94460Y192497D01*
X90814Y190672D01*
X90289Y191581D01*
X85158Y188618D01*
X85675Y187723D01*
X85195Y187438D01*
X80857Y184426D01*
X79506Y183338D01*
X78714Y184282D01*
X75080Y181233D01*
X77623Y178203D01*
X81256Y181252D01*
X81182Y181340D01*
X81231Y181838D01*
X82206Y182624D01*
X86372Y185516D01*
X86555Y185577D01*
X86978Y185466D01*
X88121Y183488D01*
X93251Y186450D01*
X92123Y188404D01*
X92267Y188883D01*
X95395Y190449D01*
X98125Y191580D01*
X98582Y191378D01*
X98620Y191277D01*
X103077Y192899D01*
X103040Y193001D01*
X103257Y193451D01*
X104984Y194026D01*
X109475Y195172D01*
X109895Y194901D01*
X110292Y192652D01*
X116126Y193681D01*
X115097Y199515D01*
D02*
G37*
G36*
X68832Y253739D02*
X62514D01*
Y245059D01*
X68127D01*
X69323Y243864D01*
Y241164D01*
X68832Y241141D01*
Y241141D01*
X62514D01*
Y232461D01*
X64834D01*
Y230472D01*
X63781D01*
Y225728D01*
X64834D01*
Y224870D01*
X64920Y224441D01*
X65163Y224077D01*
X65343Y223957D01*
X66120Y223179D01*
Y221995D01*
X66127Y221963D01*
Y220913D01*
X66211Y220487D01*
X66453Y220126D01*
X66814Y219885D01*
X67240Y219800D01*
X67666Y219885D01*
X68028Y220126D01*
X68421D01*
X68783Y219885D01*
X69209Y219800D01*
X69635Y219885D01*
X69853Y220030D01*
X70193Y220091D01*
X70533Y220030D01*
X70751Y219885D01*
X71177Y219800D01*
X71603Y219885D01*
X71821Y220030D01*
X72161Y220091D01*
X72502Y220030D01*
X72720Y219885D01*
X73146Y219800D01*
X73572Y219885D01*
X73708Y219976D01*
X73737Y219995D01*
X74097Y219634D01*
X74078Y219606D01*
X73987Y219469D01*
X73902Y219043D01*
X73987Y218617D01*
X74133Y218400D01*
X74193Y218059D01*
X74133Y217719D01*
X73987Y217501D01*
X73902Y217075D01*
X73987Y216649D01*
X74133Y216431D01*
X74193Y216091D01*
X74133Y215750D01*
X73987Y215532D01*
X73902Y215106D01*
X73987Y214680D01*
X74133Y214462D01*
X74193Y214122D01*
X74133Y213782D01*
X73987Y213564D01*
X73902Y213138D01*
X73987Y212712D01*
X74228Y212350D01*
Y211957D01*
X73987Y211595D01*
X73902Y211169D01*
X73987Y210743D01*
X74133Y210525D01*
X74193Y210185D01*
X74133Y209845D01*
X73987Y209627D01*
X73902Y209201D01*
X73987Y208775D01*
X74097Y208610D01*
X73737Y208249D01*
X73572Y208360D01*
X73146Y208444D01*
X72720Y208360D01*
X72502Y208214D01*
X72161Y208153D01*
X71821Y208214D01*
X71603Y208360D01*
X71177Y208444D01*
X70751Y208360D01*
X70533Y208214D01*
X70193Y208153D01*
X69853Y208214D01*
X69635Y208360D01*
X69209Y208444D01*
X68783Y208360D01*
X68421Y208118D01*
X68028D01*
X67666Y208360D01*
X67240Y208444D01*
X66814Y208360D01*
X66596Y208214D01*
X66256Y208153D01*
X65916Y208214D01*
X65698Y208360D01*
X65272Y208444D01*
X64846Y208360D01*
X64628Y208214D01*
X64287Y208153D01*
X63947Y208214D01*
X63729Y208360D01*
X63303Y208444D01*
X62877Y208360D01*
X62741Y208268D01*
X62712Y208249D01*
X62352Y208610D01*
X62371Y208639D01*
X62462Y208775D01*
X62547Y209201D01*
X62462Y209627D01*
X62316Y209845D01*
X62256Y210185D01*
X62316Y210525D01*
X62462Y210743D01*
X62547Y211169D01*
X62462Y211595D01*
X62316Y211813D01*
X62256Y212154D01*
X62316Y212494D01*
X62462Y212712D01*
X62547Y213138D01*
X62462Y213564D01*
X62316Y213782D01*
X62256Y214122D01*
X62316Y214462D01*
X62462Y214680D01*
X62547Y215106D01*
X62462Y215532D01*
X62316Y215750D01*
X62256Y216091D01*
X62316Y216431D01*
X62462Y216649D01*
X62547Y217075D01*
X62462Y217501D01*
X62316Y217719D01*
X62256Y218059D01*
X62316Y218400D01*
X62462Y218617D01*
X62547Y219043D01*
X62462Y219469D01*
X62371Y219605D01*
X62352Y219634D01*
X62712Y219995D01*
X62741Y219976D01*
X62877Y219885D01*
X63303Y219800D01*
X63729Y219885D01*
X64091Y220126D01*
X64332Y220487D01*
X64417Y220913D01*
Y221947D01*
X64426Y221995D01*
X64417Y222043D01*
Y223079D01*
X64332Y223505D01*
X64091Y223866D01*
X63729Y224108D01*
X63303Y224192D01*
X62877Y224108D01*
X62516Y223866D01*
X62274Y223505D01*
X62197Y223117D01*
X56531D01*
Y225172D01*
X56531D01*
Y225528D01*
X56531D01*
Y230272D01*
X55860D01*
X55708Y230772D01*
X56020Y230980D01*
X56486Y231677D01*
X56650Y232500D01*
X56486Y233323D01*
X56020Y234020D01*
X55323Y234486D01*
X54500Y234650D01*
X53677Y234486D01*
X52980Y234020D01*
X52514Y233323D01*
X52350Y232500D01*
X52514Y231677D01*
X52980Y230980D01*
X53234Y230810D01*
Y230272D01*
X52181D01*
Y225528D01*
X52181D01*
Y225172D01*
X52181D01*
Y220664D01*
X52181Y220428D01*
X51791Y220164D01*
X47554D01*
X46923Y220586D01*
X46100Y220750D01*
X45277Y220586D01*
X44580Y220120D01*
X44114Y219423D01*
X43950Y218600D01*
X44114Y217777D01*
X44580Y217080D01*
X45277Y216614D01*
X46100Y216450D01*
X46444Y216519D01*
X46869Y216093D01*
X46850Y216000D01*
X47014Y215177D01*
X47480Y214480D01*
X48177Y214014D01*
X49000Y213850D01*
X49490Y213948D01*
X49927Y213712D01*
X49976Y213573D01*
X50114Y212877D01*
X50357Y212513D01*
X50090Y212013D01*
X49892D01*
X49463Y211928D01*
X49099Y211685D01*
X49099Y211685D01*
X48780Y211366D01*
X48377Y211286D01*
X47680Y210820D01*
X47214Y210123D01*
X47050Y209300D01*
X47214Y208477D01*
X47680Y207780D01*
X48377Y207314D01*
X49200Y207150D01*
X50023Y207314D01*
X50720Y207780D01*
X51186Y208477D01*
X51350Y209300D01*
X51333Y209384D01*
X51650Y209770D01*
X53692D01*
X53692Y209770D01*
X54121Y209856D01*
X54485Y210099D01*
X56260Y211874D01*
X56542Y211836D01*
X56721Y211307D01*
X40694Y195280D01*
X40450Y194916D01*
X40365Y194487D01*
X40365Y194487D01*
Y99779D01*
X40365Y99779D01*
X40450Y99350D01*
X40694Y98986D01*
X54804Y84876D01*
X54804Y84876D01*
X54954Y84775D01*
X56195Y82626D01*
X59621Y84604D01*
X57249Y88712D01*
X55278Y87574D01*
X42608Y100244D01*
Y194022D01*
X57410Y208824D01*
X57964Y208671D01*
X58019Y208453D01*
X56507Y206941D01*
X56264Y206577D01*
X56178Y206148D01*
X56178Y206148D01*
Y189680D01*
X56178Y189680D01*
X56264Y189251D01*
X56507Y188887D01*
X69397Y175996D01*
X69691Y175640D01*
X69691Y175639D01*
X65883Y171101D01*
X66685Y170428D01*
X65967Y169536D01*
X62955Y165198D01*
X62369Y164210D01*
X60969Y165019D01*
X58597Y160911D01*
X59987Y160109D01*
X57897Y155934D01*
X56786Y153251D01*
X55787Y153615D01*
X53761Y148048D01*
X54754Y147686D01*
X54208Y146044D01*
X52902Y140927D01*
X52802Y140374D01*
X51611Y140584D01*
X50787Y135912D01*
X50787Y135912D01*
X50787Y135912D01*
X50337Y135696D01*
X49290D01*
X49125Y135861D01*
X48867Y136251D01*
X48867D01*
X48867Y136251D01*
X49691Y140922D01*
X45795Y141609D01*
X44971Y136938D01*
X46209Y136719D01*
Y136069D01*
X46209Y136069D01*
X46295Y135640D01*
X46538Y135276D01*
X48033Y133781D01*
X48397Y133538D01*
X48826Y133453D01*
X48826Y133453D01*
X55400D01*
X55400Y133453D01*
X55829Y133538D01*
X56193Y133781D01*
X56905Y134493D01*
X56905Y134493D01*
X57148Y134856D01*
X57623Y134737D01*
X57249Y131893D01*
X56957Y127435D01*
Y122967D01*
X57249Y118509D01*
X57832Y114079D01*
X58704Y109698D01*
X59860Y105382D01*
X61296Y101152D01*
X63006Y97024D01*
X64982Y93017D01*
X67216Y89148D01*
X69698Y85433D01*
X72417Y81889D01*
X75363Y78530D01*
X78522Y75371D01*
X81881Y72425D01*
X85426Y69705D01*
X89140Y67223D01*
X93009Y64990D01*
X97016Y63014D01*
X101144Y61304D01*
X105374Y59868D01*
X109690Y58711D01*
X114072Y57840D01*
X118501Y57257D01*
X122959Y56965D01*
X124486D01*
X124554Y56964D01*
X125040Y56965D01*
X125832Y56964D01*
X125832Y56964D01*
Y56964D01*
X125900Y56965D01*
X127427D01*
X131885Y57257D01*
X136314Y57840D01*
X140696Y58711D01*
X145011Y59868D01*
X149242Y61304D01*
X153370Y63014D01*
X157377Y64990D01*
X161246Y67223D01*
X164960Y69705D01*
X168505Y72425D01*
X171864Y75371D01*
X175023Y78530D01*
X177969Y81889D01*
X180688Y85433D01*
X183170Y89148D01*
X185404Y93017D01*
X187380Y97024D01*
X189090Y101152D01*
X190526Y105382D01*
X191682Y109698D01*
X192554Y114079D01*
X193137Y118509D01*
X193429Y122967D01*
X193429Y125201D01*
Y127435D01*
X193137Y131893D01*
X192554Y136322D01*
X191682Y140704D01*
X190526Y145019D01*
X189090Y149250D01*
X187380Y153377D01*
X185404Y157384D01*
X183170Y161253D01*
X180688Y164968D01*
X177969Y168513D01*
X175023Y171871D01*
X171864Y175031D01*
X168505Y177976D01*
X164960Y180696D01*
X161246Y183178D01*
X157377Y185412D01*
X153370Y187388D01*
X149242Y189098D01*
X145011Y190534D01*
X140696Y191690D01*
X136314Y192562D01*
X131885Y193145D01*
X127427Y193437D01*
X122959D01*
X118501Y193145D01*
X114072Y192562D01*
X109690Y191690D01*
X105374Y190534D01*
X101144Y189098D01*
X97016Y187388D01*
X93009Y185412D01*
X89140Y183178D01*
X85426Y180696D01*
X81881Y177976D01*
X78522Y175031D01*
X76195Y172704D01*
X75636Y172851D01*
X75477Y173089D01*
X75477Y173089D01*
X58422Y190144D01*
Y195485D01*
X58922Y195685D01*
X59477Y195314D01*
X60300Y195150D01*
X61123Y195314D01*
X61820Y195780D01*
X62286Y196477D01*
X62450Y197300D01*
X62381Y197644D01*
X62806Y198069D01*
X62900Y198050D01*
X63723Y198214D01*
X64094Y198462D01*
X64108Y198463D01*
X64634Y198222D01*
X64664Y198071D01*
X64907Y197707D01*
X65907Y196707D01*
X65907Y196707D01*
X66271Y196464D01*
X66370Y196444D01*
X66680Y195980D01*
X67377Y195514D01*
X68200Y195350D01*
X69023Y195514D01*
X69720Y195980D01*
X70095Y196541D01*
X70595Y196390D01*
Y188422D01*
X70595Y188422D01*
X70680Y187993D01*
X70924Y187629D01*
X71844Y186708D01*
X71822Y186209D01*
X71284Y185757D01*
X73827Y182727D01*
X77460Y185776D01*
X74918Y188806D01*
X73831Y187894D01*
X72838Y188887D01*
Y202880D01*
X72753Y203309D01*
X72605Y203530D01*
X72994Y203849D01*
X78335Y198507D01*
X78699Y198264D01*
X79128Y198178D01*
X79128Y198178D01*
X91249D01*
X91249Y198178D01*
X91678Y198264D01*
X92042Y198507D01*
X100676Y207141D01*
X120730D01*
X122821Y205049D01*
Y202286D01*
X127565D01*
Y206242D01*
X124801D01*
X122564Y208479D01*
X122755Y208941D01*
X155412D01*
X168720Y195633D01*
Y191938D01*
X168720Y191938D01*
X168806Y191509D01*
X169049Y191145D01*
X173607Y186588D01*
X172925Y185776D01*
X176559Y182727D01*
X179102Y185757D01*
X175468Y188806D01*
X175292Y188596D01*
X174792Y188574D01*
X170963Y192403D01*
Y196097D01*
X170878Y196527D01*
X170635Y196890D01*
X170635Y196890D01*
X156670Y210855D01*
X156306Y211099D01*
X155877Y211184D01*
X155877Y211184D01*
X99466D01*
X99466Y211184D01*
X99037Y211099D01*
X98673Y210855D01*
X98673Y210855D01*
X90039Y202222D01*
X83365D01*
X80156Y205430D01*
X80200Y205937D01*
X80613Y206157D01*
X80977Y205914D01*
X81800Y205750D01*
X82623Y205914D01*
X83320Y206380D01*
X83786Y207077D01*
X83950Y207900D01*
X83786Y208723D01*
X83320Y209420D01*
X82922Y209686D01*
Y210459D01*
X82922Y210459D01*
X82836Y210888D01*
X82593Y211252D01*
X80879Y212966D01*
X81070Y213428D01*
X83819D01*
Y217921D01*
X88634D01*
X88909Y217646D01*
Y213298D01*
X86407Y210796D01*
X86164Y210432D01*
X86078Y210003D01*
X86078Y210003D01*
Y207686D01*
X85680Y207420D01*
X85214Y206723D01*
X85050Y205900D01*
X85214Y205077D01*
X85680Y204380D01*
X86377Y203914D01*
X87200Y203750D01*
X88023Y203914D01*
X88720Y204380D01*
X89186Y205077D01*
X89350Y205900D01*
X89186Y206723D01*
X88720Y207420D01*
X88322Y207686D01*
Y209538D01*
X90824Y212041D01*
X90824Y212041D01*
X91067Y212404D01*
X91152Y212834D01*
X91152Y212834D01*
Y213331D01*
X91652Y213598D01*
X92077Y213314D01*
X92900Y213150D01*
X93723Y213314D01*
X94420Y213780D01*
X94886Y214477D01*
X95050Y215300D01*
X94886Y216123D01*
X94420Y216820D01*
X94022Y217086D01*
Y219700D01*
X93936Y220129D01*
X93693Y220493D01*
X93693Y220493D01*
X89093Y225093D01*
X88729Y225336D01*
X88300Y225422D01*
X88300Y225422D01*
X79236D01*
X78995Y225663D01*
X78631Y225906D01*
X78202Y225992D01*
X78201Y225992D01*
X72619D01*
Y230472D01*
X71566D01*
Y244328D01*
X71480Y244758D01*
X71237Y245121D01*
X71237Y245121D01*
X68832Y247526D01*
Y253739D01*
D02*
G37*
G36*
X96600Y53576D02*
X95247Y49858D01*
X97078Y49192D01*
Y45686D01*
X96680Y45420D01*
X96214Y44723D01*
X96050Y43900D01*
X96214Y43077D01*
X96680Y42380D01*
X97377Y41914D01*
X98200Y41750D01*
X99023Y41914D01*
X99720Y42380D01*
X100186Y43077D01*
X100350Y43900D01*
X100186Y44723D01*
X99720Y45420D01*
X99322Y45686D01*
Y47968D01*
X99704Y48236D01*
X99704D01*
X101057Y51953D01*
X96600Y53576D01*
D02*
G37*
%LPD*%
G36*
X68260Y107277D02*
X67917Y108316D01*
X67711Y109109D01*
X68260Y107277D01*
D02*
G37*
G36*
X67150Y111267D02*
X66944Y112061D01*
X66738Y113135D01*
X67150Y111267D01*
D02*
G37*
G36*
X65679Y129680D02*
X65791Y131296D01*
X65828Y131564D01*
X65679Y129680D01*
D02*
G37*
G36*
X65767Y119434D02*
X65734Y119702D01*
X65637Y121320D01*
X65767Y119434D01*
D02*
G37*
G36*
X66317Y115326D02*
X66215Y115862D01*
X66045Y117215D01*
X66317Y115326D01*
D02*
G37*
G36*
X125469Y153993D02*
X125597Y153991D01*
X125715Y153941D01*
X125763Y153940D01*
X127152Y153879D01*
X129926Y153553D01*
X132647Y152962D01*
X135298Y152110D01*
X137855Y151006D01*
X140292Y149659D01*
X142588Y148083D01*
X144721Y146292D01*
X146670Y144304D01*
X148417Y142136D01*
X149947Y139808D01*
X151244Y137345D01*
X152297Y134766D01*
X153095Y132099D01*
X153632Y129366D01*
X153902Y126587D01*
X153936Y125199D01*
X153921Y124301D01*
X153807Y122488D01*
X153579Y120691D01*
X153239Y118911D01*
X152787Y117157D01*
X152225Y115435D01*
X151556Y113751D01*
X150780Y112108D01*
X150356Y111310D01*
X150330Y111265D01*
X150316Y111147D01*
X150316Y111147D01*
X150315Y111136D01*
X150252Y111024D01*
X150238Y110906D01*
X150270Y110791D01*
X150270Y110791D01*
X150273Y110781D01*
X150271Y110771D01*
X150272Y110771D01*
X150258Y110653D01*
X150290Y110539D01*
X150340Y110259D01*
X150284Y109973D01*
X150195Y109833D01*
X149646Y108966D01*
X148163Y106929D01*
X146516Y105031D01*
X144712Y103281D01*
X142766Y101692D01*
X140691Y100275D01*
X138502Y99041D01*
X136216Y97998D01*
X133849Y97155D01*
X131418Y96517D01*
X128942Y96090D01*
X126438Y95876D01*
X123926Y95877D01*
X121422Y96093D01*
X118946Y96522D01*
X116516Y97161D01*
X114150Y98006D01*
X111864Y99050D01*
X109676Y100285D01*
X107602Y101704D01*
X105657Y103294D01*
X103855Y105045D01*
X102209Y106944D01*
X100727Y108983D01*
X100056Y110043D01*
X100031Y110085D01*
X100048Y110498D01*
X100080Y110621D01*
X100100Y110696D01*
X100088Y110781D01*
X100121Y110860D01*
X100121Y110917D01*
X100104Y110958D01*
X100115Y111000D01*
X100111Y111037D01*
X100089Y111075D01*
X100095Y111119D01*
X100085Y111155D01*
X100059Y111190D01*
X100059Y111234D01*
X100045Y111269D01*
X100015Y111301D01*
X100012Y111327D01*
X100010Y111342D01*
X100010Y111342D01*
X100010Y111343D01*
X100010Y111344D01*
X100005Y111352D01*
X99437Y112440D01*
X98438Y114694D01*
X97638Y117019D01*
X97040Y119403D01*
X96647Y121830D01*
X96463Y124282D01*
X96490Y126740D01*
X96726Y129187D01*
X97171Y131605D01*
X97820Y133976D01*
X98670Y136282D01*
X99714Y138508D01*
X100944Y140637D01*
X102352Y142652D01*
X103926Y144540D01*
X105657Y146286D01*
X107530Y147879D01*
X109532Y149305D01*
X111649Y150555D01*
X113865Y151619D01*
X116164Y152491D01*
X118528Y153162D01*
X120942Y153629D01*
X123393Y153889D01*
X124620Y153940D01*
X124669Y153941D01*
X124787Y153991D01*
X124915Y153993D01*
X125023Y154039D01*
X125361D01*
X125469Y153993D01*
D02*
G37*
G36*
X73370Y95745D02*
X73335Y95754D01*
X73320Y95766D01*
X73370Y95745D01*
D02*
G37*
G36*
X73545Y95736D02*
X73531Y95734D01*
X73549Y95738D01*
X73545Y95736D01*
D02*
G37*
G36*
X125789Y184880D02*
X127730Y184861D01*
X131602Y184570D01*
X135446Y184027D01*
X139247Y183237D01*
X142989Y182201D01*
X146656Y180923D01*
X150232Y179411D01*
X153701Y177669D01*
X157051Y175705D01*
X160266Y173528D01*
X163332Y171147D01*
X166237Y168571D01*
X168969Y165812D01*
X171516Y162881D01*
X173866Y159791D01*
X176011Y156554D01*
X177941Y153186D01*
X179648Y149698D01*
X181125Y146108D01*
X182366Y142429D01*
X183364Y138677D01*
X184117Y134868D01*
X184620Y131018D01*
X184873Y127143D01*
Y125202D01*
X184873Y123286D01*
X184627Y119461D01*
X184136Y115659D01*
X183402Y111898D01*
X182429Y108190D01*
X181220Y104553D01*
X179780Y101001D01*
X178114Y97549D01*
X177173Y95880D01*
X177153Y95846D01*
X177098Y95789D01*
X177029Y95749D01*
X176953Y95728D01*
X176913Y95728D01*
X176894Y95728D01*
X176855Y95733D01*
X176835Y95739D01*
X176777Y95790D01*
X176258Y96089D01*
X176201Y96109D01*
X176151Y96142D01*
X176099Y96153D01*
X175484Y96508D01*
X175157Y95946D01*
X175154Y95944D01*
X175087Y95845D01*
X175020Y95768D01*
X175002Y95779D01*
X174208Y94442D01*
X171992Y91250D01*
X169553Y88224D01*
X166905Y85380D01*
X164061Y82732D01*
X161035Y80293D01*
X157843Y78077D01*
X154500Y76094D01*
X151025Y74354D01*
X147435Y72867D01*
X143748Y71640D01*
X139982Y70679D01*
X136158Y69989D01*
X132294Y69573D01*
X128410Y69435D01*
X124526Y69573D01*
X120662Y69989D01*
X116838Y70679D01*
X113072Y71640D01*
X109385Y72867D01*
X105795Y74354D01*
X102319Y76094D01*
X98977Y78077D01*
X95785Y80293D01*
X92759Y82732D01*
X89915Y85380D01*
X87266Y88224D01*
X84828Y91250D01*
X82612Y94442D01*
X80629Y97785D01*
X80167Y98707D01*
X80165Y98722D01*
X80197Y98833D01*
X80227Y98872D01*
X80477Y99016D01*
X80525Y99022D01*
X80637Y98995D01*
X80687Y98959D01*
X82360Y96455D01*
X84718Y93464D01*
X87303Y90668D01*
X90100Y88082D01*
X93090Y85725D01*
X96257Y83609D01*
X99580Y81748D01*
X103039Y80153D01*
X106612Y78835D01*
X110278Y77801D01*
X114013Y77058D01*
X117795Y76610D01*
X121601Y76461D01*
X125407Y76610D01*
X129189Y77058D01*
X132924Y77801D01*
X136590Y78835D01*
X140163Y80153D01*
X143622Y81748D01*
X146944Y83609D01*
X150111Y85725D01*
X153102Y88082D01*
X155899Y90668D01*
X158484Y93464D01*
X160842Y96455D01*
X162958Y99622D01*
X164281Y101985D01*
X164279Y101987D01*
X164331Y102064D01*
X164350Y102159D01*
X164669Y102751D01*
Y102751D01*
X164121Y103068D01*
X163836Y103259D01*
X163767Y103272D01*
X163187Y103607D01*
X162855Y103071D01*
X162839Y103060D01*
X162733Y102901D01*
X162705Y102920D01*
X161507Y101128D01*
X159542Y98635D01*
X157388Y96304D01*
X155057Y94150D01*
X152565Y92185D01*
X149925Y90421D01*
X147156Y88871D01*
X144274Y87542D01*
X141296Y86443D01*
X138241Y85582D01*
X135128Y84962D01*
X131976Y84589D01*
X128804Y84465D01*
X125633Y84589D01*
X122480Y84962D01*
X119368Y85582D01*
X116313Y86443D01*
X113335Y87542D01*
X110452Y88871D01*
X107683Y90421D01*
X105044Y92185D01*
X102551Y94150D01*
X100220Y96304D01*
X98066Y98635D01*
X96101Y101128D01*
X94337Y103767D01*
X93008Y106141D01*
X93010Y106233D01*
X93373Y106445D01*
X93412Y106435D01*
X93452Y106414D01*
X93552Y106257D01*
X95387Y103865D01*
X97424Y101643D01*
X99646Y99607D01*
X102038Y97772D01*
X104580Y96152D01*
X107253Y94760D01*
X110038Y93607D01*
X112913Y92700D01*
X115856Y92048D01*
X118844Y91655D01*
X121855Y91523D01*
X124867Y91655D01*
X127855Y92048D01*
X130798Y92700D01*
X133673Y93607D01*
X136458Y94760D01*
X139131Y96152D01*
X141674Y97772D01*
X144065Y99607D01*
X146287Y101643D01*
X148324Y103865D01*
X150159Y106257D01*
X151778Y108799D01*
X151925Y109080D01*
X151909Y109089D01*
X151971Y109182D01*
X151986Y109257D01*
X152330Y109871D01*
X152330D01*
X151729Y110207D01*
X151476Y110376D01*
X151400Y110392D01*
X151040Y110593D01*
X150988Y110622D01*
X150915Y110715D01*
X150883Y110829D01*
X150897Y110947D01*
X150926Y110999D01*
X150926D01*
X151361Y111817D01*
X152152Y113492D01*
X152836Y115214D01*
X153410Y116975D01*
X153873Y118769D01*
X154221Y120589D01*
X154454Y122427D01*
X154571Y124276D01*
X154585Y125202D01*
X154551Y126626D01*
X154275Y129460D01*
X153727Y132255D01*
X152910Y134983D01*
X151834Y137619D01*
X150507Y140139D01*
X148943Y142519D01*
X147156Y144736D01*
X145162Y146769D01*
X142982Y148601D01*
X140634Y150212D01*
X138141Y151589D01*
X135527Y152718D01*
X132816Y153589D01*
X130033Y154194D01*
X127205Y154526D01*
X125782Y154589D01*
X125782Y154589D01*
X125780Y154589D01*
X125780Y154589D01*
X125781Y154589D01*
X125781Y154589D01*
X125782Y154589D01*
X125782D01*
X125781Y154589D01*
X125781D01*
X125723Y154590D01*
X125615Y154636D01*
X125532Y154720D01*
X125497Y154807D01*
X125513Y154887D01*
Y154887D01*
Y155616D01*
X125533Y155665D01*
X125616Y155748D01*
X125659Y155767D01*
X126104Y155786D01*
X129060Y155657D01*
X131993Y155271D01*
X134881Y154631D01*
X137702Y153741D01*
X140435Y152609D01*
X143059Y151243D01*
X145554Y149653D01*
X147901Y147853D01*
X150082Y145854D01*
X152081Y143673D01*
X153882Y141326D01*
X155471Y138831D01*
X156837Y136207D01*
X157969Y133474D01*
X158859Y130653D01*
X159499Y127765D01*
X159885Y124832D01*
X160014Y121876D01*
X159885Y118921D01*
X159499Y115988D01*
X158859Y113100D01*
X157969Y110278D01*
X156907Y107714D01*
X156840Y107609D01*
X156858Y107597D01*
X156837Y107545D01*
X156822Y107517D01*
X156786Y107462D01*
X156764Y107353D01*
X156490Y106801D01*
X156490D01*
X156932Y106543D01*
X156984Y106466D01*
X157281Y106268D01*
X157468Y106230D01*
X157944Y105953D01*
X158259Y106454D01*
X158277Y106466D01*
X158391Y106636D01*
X158405Y106627D01*
X158467Y106721D01*
X158471Y106719D01*
X158490Y106754D01*
X158644Y106984D01*
X160219Y109798D01*
X161569Y112726D01*
X162686Y115752D01*
X163561Y118855D01*
X164190Y122018D01*
X164569Y125220D01*
X164696Y128442D01*
X164569Y131664D01*
X164190Y134867D01*
X163561Y138029D01*
X162686Y141133D01*
X161569Y144158D01*
X160219Y147087D01*
X158644Y149900D01*
X156852Y152581D01*
X154856Y155114D01*
X152667Y157482D01*
X150299Y159670D01*
X147767Y161667D01*
X145086Y163458D01*
X142272Y165034D01*
X139344Y166384D01*
X136318Y167500D01*
X133215Y168375D01*
X130052Y169004D01*
X126850Y169384D01*
X125690Y169429D01*
X125610Y169465D01*
X125531Y169548D01*
X125513Y169593D01*
Y169879D01*
X125531Y169926D01*
X125612Y170009D01*
X125613Y170009D01*
X127247Y170074D01*
X131002Y169926D01*
X134734Y169484D01*
X138235Y168788D01*
X138617Y168696D01*
X141747Y167813D01*
X142202Y167670D01*
X145403Y166490D01*
X145606Y166411D01*
X148976Y164857D01*
X152052Y163134D01*
X152881Y162602D01*
X154943Y161225D01*
X156034Y160417D01*
X157687Y159114D01*
X158849Y158127D01*
X160270Y156814D01*
X161434Y155684D01*
X162672Y154344D01*
X163810Y153081D01*
X164545Y152149D01*
X165794Y150562D01*
X166983Y148825D01*
X167708Y147740D01*
X168795Y145900D01*
X169420Y144784D01*
X170400Y142839D01*
X170903Y141748D01*
X171782Y139668D01*
X172136Y138708D01*
X172934Y136404D01*
X173020Y136100D01*
X173789Y133287D01*
X174423Y130158D01*
X174775Y127540D01*
X174859Y126825D01*
X175024Y124360D01*
X175061Y123420D01*
Y122210D01*
X175061Y121006D01*
X175031Y120241D01*
X174876Y117758D01*
X174508Y114809D01*
X174024Y112240D01*
X173941Y111820D01*
X173365Y109548D01*
X173100Y108609D01*
X172415Y106473D01*
X172064Y105522D01*
X171239Y103409D01*
X169988Y100713D01*
X169280Y99406D01*
X169280D01*
X169855Y99074D01*
X169859Y99069D01*
X170155Y98871D01*
X170235Y98855D01*
X170800Y98529D01*
X171130Y99054D01*
X171152Y99069D01*
X171264Y99236D01*
X171282Y99225D01*
X173079Y102253D01*
X174839Y105769D01*
X176344Y109402D01*
X177585Y113133D01*
X178558Y116943D01*
X179256Y120813D01*
X179676Y124723D01*
X179817Y128652D01*
X179676Y132582D01*
X179256Y136492D01*
X178558Y140361D01*
X177585Y144172D01*
X176344Y147903D01*
X174839Y151535D01*
X173079Y155052D01*
X171072Y158433D01*
X168830Y161663D01*
X166362Y164725D01*
X163683Y167603D01*
X160805Y170283D01*
X157743Y172750D01*
X154513Y174993D01*
X151131Y176999D01*
X147615Y178759D01*
X143982Y180264D01*
X140251Y181506D01*
X136441Y182478D01*
X132571Y183177D01*
X128662Y183597D01*
X125682Y183703D01*
X125615Y183732D01*
X125532Y183815D01*
X125513Y183864D01*
Y184582D01*
X125496Y184663D01*
X125534Y184752D01*
X125619Y184836D01*
X125729Y184880D01*
X125789Y184880D01*
D02*
G37*
G36*
X69642Y103376D02*
X69131Y104641D01*
X68960Y105159D01*
X69642Y103376D01*
D02*
G37*
G36*
X71285Y99592D02*
X70581Y101052D01*
X70480Y101303D01*
X71285Y99592D01*
D02*
G37*
G36*
X124871Y183983D02*
X124896Y183858D01*
Y183103D01*
X124896Y183103D01*
X125622Y183101D01*
X125660Y183092D01*
X125669Y183092D01*
X125768Y183072D01*
X125768Y183056D01*
X128616Y182954D01*
X132480Y182539D01*
X136304Y181849D01*
X140070Y180888D01*
X143757Y179660D01*
X147347Y178173D01*
X150823Y176434D01*
X154165Y174451D01*
X157357Y172234D01*
X160383Y169796D01*
X163227Y167148D01*
X165875Y164303D01*
X168314Y161277D01*
X170530Y158085D01*
X172513Y154743D01*
X174253Y151268D01*
X175740Y147677D01*
X176967Y143990D01*
X177928Y140225D01*
X178619Y136400D01*
X179034Y132536D01*
X179173Y128652D01*
X179034Y124769D01*
X178619Y120905D01*
X177928Y117080D01*
X176967Y113315D01*
X175740Y109627D01*
X174253Y106037D01*
X172513Y102562D01*
X170680Y99472D01*
X170616Y99436D01*
X170543Y99418D01*
X170505Y99418D01*
X170444D01*
X170428Y99424D01*
X170269Y99530D01*
X170210Y99628D01*
X170205Y99784D01*
X170241Y99853D01*
X170404Y100179D01*
X170410Y100190D01*
X170417Y100205D01*
X170892Y101152D01*
X171539Y102603D01*
X171794Y103151D01*
X171798Y103170D01*
X171809Y103186D01*
X171873Y103351D01*
X172075Y103804D01*
X173098Y106523D01*
X173264Y107062D01*
X173323Y107222D01*
X173423Y107575D01*
X173955Y109298D01*
X174258Y110539D01*
X174357Y110887D01*
X174414Y111174D01*
X174645Y112120D01*
X175164Y114978D01*
X175512Y117861D01*
X175542Y118357D01*
X175547Y118405D01*
X175553Y118540D01*
X175686Y120761D01*
X175708Y122213D01*
X175680Y123848D01*
X175566Y125530D01*
X175547Y126016D01*
X175515Y126287D01*
X175460Y127109D01*
X175134Y129508D01*
X175100Y129798D01*
X175084Y129878D01*
X175020Y130349D01*
X174363Y133551D01*
X173491Y136702D01*
X173349Y137108D01*
X173323Y137199D01*
X173195Y137545D01*
X172409Y139787D01*
X172116Y140469D01*
X172005Y140772D01*
X171749Y141328D01*
X171121Y142791D01*
X170634Y143745D01*
X170410Y144231D01*
X170142Y144711D01*
X169966Y145059D01*
X169957Y145070D01*
X169953Y145083D01*
X169924Y145135D01*
X169634Y145703D01*
X168897Y146933D01*
X168549Y147554D01*
X168369Y147824D01*
X168235Y148051D01*
X168223Y148064D01*
X168217Y148080D01*
X168152Y148177D01*
X167954Y148507D01*
X167150Y149664D01*
X166697Y150326D01*
X166433Y150721D01*
X166385Y150782D01*
X166299Y150907D01*
X166284Y150922D01*
X166275Y150940D01*
X166175Y151068D01*
X166089Y151192D01*
X165379Y152079D01*
X165025Y152528D01*
X165025Y152528D01*
X165025Y152528D01*
X164291Y153460D01*
X164275Y153473D01*
X164265Y153491D01*
X164144Y153624D01*
X164076Y153712D01*
X164055Y153734D01*
X164047Y153744D01*
X163446Y154399D01*
X163127Y154753D01*
X163124Y154756D01*
X163122Y154759D01*
X162402Y155538D01*
X161837Y156154D01*
X161679Y156304D01*
X161490Y156508D01*
X160914Y157041D01*
X160696Y157253D01*
X160689Y157257D01*
X160685Y157263D01*
X160257Y157659D01*
X159470Y158408D01*
X159130Y158692D01*
X159117Y158702D01*
X158694Y159094D01*
X158168Y159508D01*
X158083Y159580D01*
X158073Y159585D01*
X158066Y159594D01*
X157646Y159925D01*
X156956Y160499D01*
X156498Y160830D01*
X156412Y160898D01*
X156404Y160902D01*
X156398Y160909D01*
X156287Y160991D01*
X155703Y161451D01*
X155313Y161712D01*
X155307Y161716D01*
X155305Y161717D01*
X155287Y161729D01*
X155283Y161733D01*
X154843Y162027D01*
X154307Y162415D01*
X153621Y162843D01*
X153221Y163111D01*
X153216Y163113D01*
X153216Y163113D01*
X153212Y163117D01*
X153167Y163145D01*
X152536Y163567D01*
X151839Y163958D01*
X151535Y164147D01*
X150747Y164569D01*
X149213Y165428D01*
X148694Y165668D01*
X148653Y165690D01*
X148348Y165827D01*
X145754Y167023D01*
X142181Y168341D01*
X139548Y169084D01*
X139475Y169105D01*
X139456Y169109D01*
X138515Y169375D01*
X136463Y169783D01*
X136286Y169823D01*
X136180Y169839D01*
X134780Y170118D01*
X133111Y170315D01*
X133055Y170324D01*
X132992Y170329D01*
X130998Y170565D01*
X127192Y170715D01*
X125847Y170662D01*
X125786Y170674D01*
X125607Y170639D01*
X124896Y170616D01*
Y169885D01*
X124871Y169760D01*
Y169713D01*
Y169713D01*
X124896Y169588D01*
Y168860D01*
X125581Y168838D01*
X125666Y168818D01*
X125693Y168817D01*
X125738Y168808D01*
X125737Y168783D01*
X126799Y168741D01*
X129951Y168368D01*
X133064Y167749D01*
X136119Y166887D01*
X139097Y165789D01*
X141980Y164460D01*
X144749Y162909D01*
X147388Y161146D01*
X149881Y159180D01*
X152211Y157026D01*
X154366Y154695D01*
X156331Y152203D01*
X158094Y149564D01*
X159645Y146794D01*
X160974Y143912D01*
X162073Y140934D01*
X162934Y137879D01*
X163554Y134766D01*
X163926Y131614D01*
X164051Y128442D01*
X163926Y125271D01*
X163554Y122119D01*
X162934Y119006D01*
X162073Y115951D01*
X160974Y112973D01*
X159645Y110090D01*
X158094Y107321D01*
X157780Y106850D01*
X157689Y106816D01*
X157333Y107023D01*
X157333Y107108D01*
X157419Y107274D01*
X158572Y110059D01*
X159479Y112934D01*
X160131Y115876D01*
X160525Y118865D01*
X160656Y121876D01*
X160525Y124888D01*
X160131Y127876D01*
X159479Y130819D01*
X158572Y133694D01*
X157419Y136478D01*
X156027Y139152D01*
X154407Y141694D01*
X152573Y144086D01*
X150536Y146308D01*
X148314Y148345D01*
X145922Y150179D01*
X143380Y151799D01*
X140707Y153191D01*
X137922Y154344D01*
X135047Y155251D01*
X132104Y155903D01*
X129116Y156297D01*
X126104Y156428D01*
X125777Y156414D01*
X125777Y156410D01*
X125629Y156380D01*
X124896Y156369D01*
Y155622D01*
X124871Y155497D01*
Y155497D01*
Y154887D01*
X124886Y154814D01*
X124885Y154809D01*
X124886Y154804D01*
X124852Y154720D01*
X124769Y154636D01*
X124661Y154590D01*
X124602Y154589D01*
X124602Y154589D01*
X123346Y154537D01*
X120846Y154272D01*
X118378Y153795D01*
X115959Y153108D01*
X113609Y152217D01*
X111343Y151128D01*
X109178Y149850D01*
X107130Y148391D01*
X105215Y146763D01*
X103445Y144977D01*
X101835Y143047D01*
X100396Y140986D01*
X99138Y138809D01*
X98070Y136533D01*
X97201Y134174D01*
X96537Y131749D01*
X96082Y129277D01*
X95841Y126775D01*
X95814Y124261D01*
X96002Y121754D01*
X96403Y119272D01*
X97015Y116834D01*
X97833Y114457D01*
X98852Y112158D01*
X99433Y111044D01*
X99434Y111043D01*
X99443Y111027D01*
X99457Y110992D01*
X99466Y110955D01*
X99471Y110917D01*
Y110898D01*
X99471Y110860D01*
X99452Y110786D01*
X99414Y110719D01*
X99361Y110664D01*
X99328Y110644D01*
X98940Y110404D01*
X98896Y110396D01*
X98842Y110360D01*
X98781Y110338D01*
X98685Y110281D01*
X98642Y110274D01*
X98524Y110303D01*
X98483Y110334D01*
X98289Y110638D01*
X96923Y113262D01*
X95791Y115995D01*
X94901Y118817D01*
X94261Y121705D01*
X93875Y124638D01*
X93746Y127593D01*
X93875Y130549D01*
X94261Y133481D01*
X94901Y136370D01*
X95791Y139191D01*
X96923Y141924D01*
X98289Y144548D01*
X99878Y147043D01*
X101679Y149390D01*
X103678Y151571D01*
X105859Y153569D01*
X108206Y155370D01*
X110701Y156960D01*
X113325Y158326D01*
X116058Y159458D01*
X118879Y160347D01*
X121767Y160988D01*
X124480Y161345D01*
X124588Y161340D01*
X124589Y161359D01*
X124606Y161361D01*
X124621Y161358D01*
X124699Y161374D01*
X124700Y161374D01*
X124700Y161374D01*
Y161374D01*
X124863Y161406D01*
X125488Y161446D01*
Y162031D01*
X125536Y162273D01*
X125488Y162515D01*
Y163126D01*
X124802Y163151D01*
X124621Y163187D01*
X124552Y163173D01*
X124542Y163174D01*
X124540Y163200D01*
X124540D01*
X124387Y163180D01*
X123205Y163226D01*
X119983Y163100D01*
X116781Y162721D01*
X113618Y162092D01*
X110515Y161216D01*
X107490Y160100D01*
X104561Y158750D01*
X101748Y157174D01*
X99067Y155383D01*
X96534Y153387D01*
X94166Y151198D01*
X91977Y148830D01*
X89981Y146297D01*
X88189Y143616D01*
X86614Y140803D01*
X85264Y137874D01*
X84148Y134849D01*
X83272Y131745D01*
X82643Y128583D01*
X82264Y125381D01*
X82138Y122158D01*
X82264Y118936D01*
X82643Y115734D01*
X83272Y112571D01*
X84148Y109468D01*
X85264Y106442D01*
X86614Y103514D01*
X86646Y103457D01*
X86646Y103426D01*
X86629Y103358D01*
X86598Y103296D01*
X86589Y103285D01*
X86320Y103129D01*
X86315Y103128D01*
X86192Y103152D01*
X86126Y103198D01*
X85975Y103423D01*
X84139Y106702D01*
X82566Y110115D01*
X81265Y113640D01*
X80245Y117257D01*
X79512Y120943D01*
X79070Y124675D01*
X78923Y128430D01*
X79070Y132185D01*
X79512Y135917D01*
X80245Y139603D01*
X81265Y143220D01*
X82566Y146745D01*
X84139Y150158D01*
X85975Y153437D01*
X88063Y156562D01*
X90390Y159513D01*
X92941Y162273D01*
X95700Y164823D01*
X98651Y167150D01*
X101776Y169238D01*
X105055Y171074D01*
X108468Y172647D01*
X111994Y173948D01*
X115610Y174968D01*
X119296Y175701D01*
X123028Y176143D01*
X124640Y176206D01*
X124638Y176233D01*
X124786Y176262D01*
X125488Y176281D01*
Y177014D01*
X125513Y177139D01*
Y177188D01*
Y177188D01*
X125488Y177313D01*
Y178036D01*
X125488Y178036D01*
X124797Y178063D01*
X124598Y178103D01*
X124528Y178089D01*
X122434Y178164D01*
X118504Y178023D01*
X114594Y177603D01*
X110725Y176905D01*
X106915Y175932D01*
X103184Y174690D01*
X99551Y173186D01*
X96034Y171425D01*
X92653Y169419D01*
X89423Y167176D01*
X86361Y164709D01*
X83483Y162030D01*
X80803Y159152D01*
X78336Y156090D01*
X76094Y152860D01*
X74087Y149478D01*
X72327Y145962D01*
X70822Y142329D01*
X69580Y138598D01*
X68608Y134788D01*
X67910Y130918D01*
X67489Y127008D01*
X67349Y123079D01*
X67489Y119149D01*
X67910Y115239D01*
X68608Y111370D01*
X69580Y107559D01*
X70822Y103829D01*
X72327Y100196D01*
X74087Y96679D01*
X74287Y96342D01*
X74287Y96326D01*
X74287Y96287D01*
X74267Y96210D01*
X74232Y96151D01*
X73711Y95850D01*
X73769Y95925D01*
Y96026D01*
Y96046D01*
X73764Y96084D01*
X73754Y96121D01*
X73740Y96156D01*
X73730Y96173D01*
X72691Y98099D01*
X70829Y102059D01*
X69265Y106147D01*
X68008Y110338D01*
X67064Y114612D01*
X66440Y118943D01*
X66138Y123309D01*
X66160Y127685D01*
X66505Y132048D01*
X67173Y136373D01*
X68159Y140637D01*
X69458Y144816D01*
X71063Y148888D01*
X72964Y152829D01*
X75152Y156619D01*
X77615Y160237D01*
X80339Y163662D01*
X83309Y166876D01*
X86508Y169862D01*
X89920Y172603D01*
X93525Y175084D01*
X97304Y177291D01*
X101236Y179212D01*
X105300Y180837D01*
X109472Y182157D01*
X113731Y183164D01*
X118053Y183854D01*
X122413Y184221D01*
X124601Y184283D01*
Y184283D01*
X124660Y184284D01*
X124769Y184330D01*
X124852Y184414D01*
X124871Y184462D01*
Y183983D01*
D02*
G37*
G36*
X66128Y133781D02*
X66311Y135131D01*
X66419Y135666D01*
X66128Y133781D01*
D02*
G37*
G36*
X124774Y177436D02*
X124853Y177353D01*
X124871Y177308D01*
Y177020D01*
X124853Y176975D01*
X124774Y176892D01*
X124709Y176862D01*
X124667D01*
X124601Y176849D01*
X122977Y176785D01*
X119195Y176338D01*
X115460Y175595D01*
X111794Y174561D01*
X108221Y173243D01*
X104762Y171648D01*
X101439Y169787D01*
X98272Y167671D01*
X95281Y165313D01*
X92485Y162728D01*
X89899Y159932D01*
X87542Y156941D01*
X85426Y153774D01*
X83565Y150451D01*
X81970Y146992D01*
X80652Y143419D01*
X79618Y139753D01*
X78875Y136018D01*
X78427Y132236D01*
X78278Y128430D01*
X78427Y124625D01*
X78875Y120843D01*
X79618Y117107D01*
X80652Y113442D01*
X81970Y109868D01*
X83565Y106410D01*
X85426Y103087D01*
X85520Y102945D01*
X85542Y102959D01*
X85575Y102889D01*
X85625Y102843D01*
X85663Y102786D01*
X85680Y102775D01*
X86010Y102239D01*
X86587Y102572D01*
X86593Y102575D01*
X86660Y102588D01*
X86753Y102650D01*
X86854Y102698D01*
X86892Y102726D01*
X86931Y102769D01*
X86945Y102779D01*
X87532Y103117D01*
X87235Y103673D01*
X87235Y103683D01*
X87206Y103744D01*
X87192Y103811D01*
X87153Y103870D01*
X87156Y103871D01*
X85857Y106688D01*
X84758Y109666D01*
X83897Y112721D01*
X83278Y115834D01*
X82904Y118987D01*
X82780Y122158D01*
X82904Y125330D01*
X83278Y128482D01*
X83897Y131596D01*
X84758Y134651D01*
X85857Y137629D01*
X87186Y140511D01*
X88737Y143281D01*
X90500Y145920D01*
X92466Y148413D01*
X94620Y150744D01*
X96951Y152898D01*
X99444Y154863D01*
X102083Y156627D01*
X104853Y158178D01*
X107735Y159507D01*
X110713Y160605D01*
X113768Y161467D01*
X116882Y162086D01*
X120034Y162459D01*
X123205Y162584D01*
X124795Y162522D01*
X124796Y162521D01*
X124871Y162443D01*
Y162104D01*
X124803Y162030D01*
X124787Y162022D01*
X124644Y162016D01*
X121655Y161622D01*
X118712Y160970D01*
X115837Y160063D01*
X113052Y158910D01*
X110378Y157518D01*
X107836Y155898D01*
X105444Y154063D01*
X103222Y152027D01*
X101185Y149804D01*
X99350Y147413D01*
X97731Y144870D01*
X96339Y142196D01*
X95185Y139411D01*
X94279Y136536D01*
X93626Y133593D01*
X93233Y130605D01*
X93101Y127593D01*
X93233Y124581D01*
X93626Y121593D01*
X94279Y118650D01*
X95185Y115775D01*
X96339Y112990D01*
X97731Y110316D01*
X97860Y110112D01*
X97868Y110117D01*
X97875Y110098D01*
X97948Y110020D01*
X98007Y109931D01*
X98015Y109926D01*
X98347Y109365D01*
X98952Y109723D01*
X99004Y109733D01*
X99065Y109774D01*
X99134Y109800D01*
X99210Y109847D01*
X99263Y109854D01*
X99378Y109825D01*
X99472Y109754D01*
X99502Y109705D01*
X99502Y109705D01*
X99502Y109704D01*
X99502Y109704D01*
X99502Y109704D01*
X99503Y109703D01*
X99503Y109703D01*
X99503Y109703D01*
X99503Y109703D01*
X99502Y109705D01*
D01*
X99503Y109703D01*
X100190Y108618D01*
X101700Y106540D01*
X103382Y104599D01*
X105224Y102809D01*
X107212Y101183D01*
X109333Y99734D01*
X111569Y98471D01*
X113905Y97403D01*
X116324Y96540D01*
X118808Y95886D01*
X121339Y95448D01*
X123898Y95227D01*
X126466Y95227D01*
X129025Y95445D01*
X131556Y95882D01*
X134041Y96534D01*
X136460Y97396D01*
X138797Y98462D01*
X141034Y99723D01*
X143155Y101171D01*
X145145Y102796D01*
X146988Y104584D01*
X148672Y106524D01*
X150183Y108601D01*
X150871Y109686D01*
X150871D01*
X150923Y109772D01*
X151109Y109846D01*
X151117Y109844D01*
X151372Y109701D01*
X151424Y109632D01*
Y109532D01*
X151424Y109511D01*
X151423Y109506D01*
X151222Y109120D01*
X149633Y106625D01*
X147832Y104278D01*
X145833Y102097D01*
X143652Y100099D01*
X141305Y98298D01*
X138810Y96708D01*
X136186Y95342D01*
X133453Y94210D01*
X130632Y93321D01*
X127744Y92680D01*
X124811Y92294D01*
X121855Y92165D01*
X118900Y92294D01*
X115967Y92680D01*
X113079Y93321D01*
X110258Y94210D01*
X107525Y95342D01*
X104901Y96708D01*
X102406Y98298D01*
X100059Y100099D01*
X97878Y102097D01*
X95879Y104278D01*
X94190Y106479D01*
X94132Y106590D01*
X94113Y106580D01*
X94078Y106625D01*
X94048Y106672D01*
X94042Y106668D01*
X93953Y106801D01*
X93924Y106820D01*
X93607Y107297D01*
X93172Y107042D01*
X92956Y106999D01*
X92660Y106801D01*
Y106801D01*
X92660D01*
X92594Y106703D01*
X92154Y106445D01*
X92443Y105896D01*
X92462Y105804D01*
X92509Y105733D01*
X92502Y105730D01*
X92557Y105631D01*
X92545Y105623D01*
X92577Y105573D01*
X92624Y105512D01*
X93789Y103431D01*
X95581Y100750D01*
X97577Y98218D01*
X99766Y95850D01*
X102134Y93661D01*
X104666Y91665D01*
X107347Y89873D01*
X110160Y88298D01*
X113089Y86948D01*
X116114Y85832D01*
X119217Y84956D01*
X122380Y84327D01*
X125582Y83948D01*
X128804Y83822D01*
X132026Y83948D01*
X135228Y84327D01*
X138391Y84956D01*
X141494Y85832D01*
X144520Y86948D01*
X147448Y88298D01*
X150261Y89873D01*
X152942Y91665D01*
X155475Y93661D01*
X157843Y95850D01*
X160031Y98218D01*
X162028Y100750D01*
X163231Y102551D01*
X163242Y102562D01*
X163298Y102647D01*
X163310Y102657D01*
X163375Y102693D01*
X163448Y102712D01*
X163486D01*
X163505D01*
X163742Y102575D01*
X163784Y102473D01*
Y102415D01*
X162409Y99959D01*
X160321Y96835D01*
X157994Y93883D01*
X155443Y91124D01*
X152684Y88573D01*
X149733Y86246D01*
X146608Y84158D01*
X143329Y82322D01*
X139916Y80749D01*
X136391Y79448D01*
X132774Y78428D01*
X129088Y77695D01*
X125356Y77253D01*
X121601Y77106D01*
X117846Y77253D01*
X114114Y77695D01*
X110428Y78428D01*
X106811Y79448D01*
X103285Y80749D01*
X99873Y82322D01*
X96594Y84158D01*
X93469Y86246D01*
X90518Y88573D01*
X87758Y91124D01*
X85207Y93883D01*
X82881Y96835D01*
X81289Y99217D01*
X81274Y99208D01*
X81223Y99266D01*
X81157Y99366D01*
X81142Y99376D01*
X80808Y99919D01*
X80212Y99574D01*
X80160Y99564D01*
X80126Y99541D01*
X80118Y99540D01*
X80098Y99527D01*
X80053Y99511D01*
X80010Y99487D01*
X79920Y99408D01*
X79901Y99395D01*
X79288Y99041D01*
X79603Y98443D01*
X79623Y98345D01*
X79656Y98295D01*
X79676Y98237D01*
X79690Y98221D01*
X80063Y97476D01*
X82070Y94094D01*
X84312Y90864D01*
X86780Y87802D01*
X89459Y84924D01*
X92337Y82245D01*
X95399Y79777D01*
X98629Y77535D01*
X102011Y75528D01*
X105527Y73768D01*
X109160Y72263D01*
X112891Y71022D01*
X116701Y70049D01*
X120571Y69351D01*
X124480Y68931D01*
X128410Y68790D01*
X132340Y68931D01*
X136249Y69351D01*
X140119Y70049D01*
X143929Y71022D01*
X147660Y72263D01*
X151293Y73768D01*
X154809Y75528D01*
X158191Y77535D01*
X161421Y79777D01*
X164483Y82245D01*
X167361Y84924D01*
X170040Y87802D01*
X172508Y90864D01*
X174750Y94094D01*
X175574Y95483D01*
X175596Y95505D01*
X175615Y95532D01*
X175621Y95538D01*
X175688Y95576D01*
X175762Y95596D01*
X175820D01*
X175834Y95594D01*
X176456Y95235D01*
X176513Y95215D01*
X176545Y95194D01*
X176558Y95181D01*
X176597Y95113D01*
X176618Y95037D01*
Y94998D01*
X176618Y94978D01*
X176612Y94939D01*
X176602Y94900D01*
X176586Y94863D01*
X176576Y94846D01*
X176576D01*
X175592Y93180D01*
X173412Y89983D01*
X171029Y86933D01*
X168454Y84044D01*
X165696Y81328D01*
X162769Y78796D01*
X159684Y76460D01*
X156454Y74328D01*
X153093Y72409D01*
X149614Y70713D01*
X146033Y69245D01*
X142365Y68013D01*
X138624Y67020D01*
X134827Y66272D01*
X130989Y65772D01*
X127127Y65521D01*
X123257Y65521D01*
X119395Y65772D01*
X115557Y66272D01*
X111760Y67020D01*
X108019Y68013D01*
X104351Y69245D01*
X100769Y70713D01*
X97291Y72409D01*
X93930Y74328D01*
X90700Y76460D01*
X87615Y78796D01*
X84688Y81328D01*
X81930Y84044D01*
X79355Y86933D01*
X76972Y89983D01*
X74792Y93180D01*
X73808Y94846D01*
X73777Y94898D01*
X73761Y95016D01*
X73792Y95132D01*
X73839Y95194D01*
X73871Y95215D01*
X73928Y95235D01*
X74447Y95534D01*
X74537Y95613D01*
X74556Y95626D01*
X75196Y95995D01*
X74849Y96600D01*
X74834Y96676D01*
X74801Y96726D01*
X74781Y96783D01*
X74759Y96809D01*
X74652Y96988D01*
X72913Y100463D01*
X71426Y104054D01*
X70199Y107741D01*
X69237Y111506D01*
X68547Y115331D01*
X68132Y119195D01*
X67993Y123079D01*
X68132Y126962D01*
X68547Y130826D01*
X69237Y134651D01*
X70199Y138416D01*
X71426Y142104D01*
X72913Y145694D01*
X74652Y149169D01*
X76635Y152512D01*
X78852Y155704D01*
X81290Y158730D01*
X83938Y161574D01*
X86783Y164222D01*
X89809Y166661D01*
X93001Y168877D01*
X96343Y170860D01*
X99818Y172600D01*
X103409Y174087D01*
X107096Y175314D01*
X110862Y176275D01*
X114686Y176965D01*
X118550Y177381D01*
X122434Y177519D01*
X124774Y177436D01*
D02*
G37*
G36*
X98777Y178720D02*
X100226Y179445D01*
X100475Y179549D01*
X98777Y178720D01*
D02*
G37*
G36*
X102536Y180419D02*
X103792Y180948D01*
X104307Y181127D01*
X102536Y180419D01*
D02*
G37*
G36*
X83672Y168088D02*
X84251Y168669D01*
X85070Y169392D01*
X83672Y168088D01*
D02*
G37*
G36*
X86744Y170869D02*
X87152Y171230D01*
X88230Y172063D01*
X86744Y170869D01*
D02*
G37*
G36*
X90000Y173432D02*
X90214Y173597D01*
X91556Y174503D01*
X90000Y173432D01*
D02*
G37*
G36*
X118534Y184534D02*
X118801Y184571D01*
X120415Y184692D01*
X118534Y184534D01*
D02*
G37*
G36*
X124666Y184876D02*
X124657Y184880D01*
X124657D01*
X124666Y184876D01*
D02*
G37*
G36*
X91778Y219235D02*
Y217501D01*
X91652Y217426D01*
X91152Y217709D01*
Y218110D01*
X91067Y218539D01*
X90824Y218903D01*
X90824Y218903D01*
X89891Y219836D01*
X89527Y220079D01*
X89098Y220164D01*
X89098Y220164D01*
X78979D01*
X78743Y220664D01*
X79086Y221177D01*
X79250Y222000D01*
X79115Y222678D01*
X79404Y223179D01*
X87835D01*
X91778Y219235D01*
D02*
G37*
G36*
X106416Y181859D02*
X107448Y182217D01*
X108238Y182435D01*
X106416Y181859D01*
D02*
G37*
G36*
X110389Y183029D02*
X111179Y183247D01*
X112249Y183469D01*
X110389Y183029D01*
D02*
G37*
G36*
X114435Y183922D02*
X114968Y184033D01*
X116317Y184222D01*
X114435Y183922D01*
D02*
G37*
G36*
X80802Y165102D02*
X81521Y165926D01*
X82099Y166507D01*
X80802Y165102D01*
D02*
G37*
G36*
X69164Y145807D02*
X69340Y146323D01*
X69863Y147582D01*
X69164Y145807D01*
D02*
G37*
G36*
X70722Y149647D02*
X70825Y149897D01*
X71543Y151349D01*
X70722Y149647D01*
D02*
G37*
G36*
X75723Y158590D02*
X76622Y159938D01*
X76787Y160152D01*
X75723Y158590D01*
D02*
G37*
G36*
X70421Y167293D02*
X70201Y166878D01*
X65128Y160605D01*
X65044Y160445D01*
X64949Y160292D01*
X61789Y151817D01*
X61354Y151589D01*
X59242Y152357D01*
X59040Y152815D01*
X59945Y154999D01*
X61775Y158656D01*
X62254Y158800D01*
X62364Y158737D01*
X64736Y162845D01*
X64626Y162908D01*
X64500Y163391D01*
X64850Y163981D01*
X67770Y168187D01*
X68185Y168703D01*
X68683Y168751D01*
X70421Y167293D01*
D02*
G37*
G36*
X66861Y137853D02*
X67078Y138925D01*
X67292Y139716D01*
X66861Y137853D01*
D02*
G37*
G36*
X78146Y161929D02*
X78975Y163011D01*
X79333Y163422D01*
X78146Y161929D01*
D02*
G37*
G36*
X67875Y141869D02*
X68089Y142661D01*
X68442Y143695D01*
X67875Y141869D01*
D02*
G37*
%LPC*%
G36*
X126818Y147524D02*
X123852D01*
X120912Y147137D01*
X118047Y146370D01*
X115307Y145235D01*
X112738Y143752D01*
X110385Y141946D01*
X108288Y139849D01*
X106483Y137496D01*
X105000Y134927D01*
X103865Y132187D01*
X103097Y129323D01*
X102710Y126382D01*
Y123416D01*
X103097Y120476D01*
X103865Y117611D01*
X105000Y114871D01*
X106483Y112302D01*
X108288Y109950D01*
X110385Y107852D01*
X112738Y106047D01*
X115307Y104564D01*
X118047Y103429D01*
X120912Y102661D01*
X123852Y102274D01*
X126818D01*
X129758Y102661D01*
X132623Y103429D01*
X135363Y104564D01*
X137932Y106047D01*
X140285Y107852D01*
X142382Y109950D01*
X144187Y112302D01*
X145670Y114871D01*
X146805Y117611D01*
X147573Y120476D01*
X147960Y123416D01*
Y126382D01*
X147573Y129323D01*
X146805Y132187D01*
X145670Y134927D01*
X144187Y137496D01*
X142382Y139849D01*
X140285Y141946D01*
X137932Y143752D01*
X135363Y145235D01*
X132623Y146370D01*
X129758Y147137D01*
X126818Y147524D01*
D02*
G37*
%LPD*%
G36*
X128874Y142690D02*
X131166Y142076D01*
X133358Y141167D01*
X135412Y139981D01*
X137295Y138537D01*
X138972Y136859D01*
X140417Y134977D01*
X141603Y132922D01*
X142511Y130730D01*
X143125Y128438D01*
X143435Y126086D01*
Y124899D01*
Y123713D01*
X143125Y121361D01*
X142511Y119069D01*
X141603Y116877D01*
X140417Y114822D01*
X138972Y112940D01*
X137295Y111262D01*
X135412Y109817D01*
X133358Y108631D01*
X131166Y107723D01*
X128874Y107109D01*
X126521Y106799D01*
X124149D01*
X121796Y107109D01*
X119504Y107723D01*
X117312Y108631D01*
X115258Y109817D01*
X113375Y111262D01*
X111697Y112940D01*
X110253Y114822D01*
X109067Y116877D01*
X108159Y119069D01*
X107545Y121361D01*
X107235Y123713D01*
Y124899D01*
Y126086D01*
X107545Y128438D01*
X108159Y130730D01*
X109067Y132922D01*
X110253Y134977D01*
X111697Y136859D01*
X113375Y138537D01*
X115258Y139981D01*
X117312Y141167D01*
X119504Y142076D01*
X121796Y142690D01*
X124149Y142999D01*
X126521D01*
X128874Y142690D01*
D02*
G37*
%LPC*%
G36*
X99433Y111044D02*
X99433Y111043D01*
X99434Y111043D01*
X99434Y111042D01*
X99434Y111042D01*
X99434Y111042D01*
X99434Y111042D01*
X99434Y111043D01*
X99433Y111044D01*
D02*
G37*
G36*
X150866Y109678D02*
X150866Y109678D01*
Y109678D01*
X150866Y109678D01*
D02*
G37*
G36*
X150871Y109686D02*
D01*
X150871Y109686D01*
X150871Y109685D01*
X150870Y109685D01*
X150869Y109683D01*
X150868Y109681D01*
X150867Y109679D01*
X150866Y109678D01*
X150871Y109685D01*
X150871Y109686D01*
D02*
G37*
%LPD*%
D10*
X124621Y162273D02*
G03*
X98249Y108961I3034J-34680D01*
G01*
X93701Y107697D02*
G03*
X151126Y109532I28155J18377D01*
G01*
X91763Y106561D02*
G03*
X163486Y102414I37041J18327D01*
G01*
X99246Y109551D02*
G03*
X151126Y109532I25945J15651D01*
G01*
X124598Y177139D02*
G03*
X85914Y101839I2186J-48709D01*
G01*
X124621Y162273D02*
G03*
X87931Y103004I-1416J-40114D01*
G01*
X80911Y100322D02*
G03*
X163486Y102414I40690J24643D01*
G01*
X124598Y177188D02*
G03*
X75603Y95886I-2164J-54110D01*
G01*
X78896Y99159D02*
G03*
X175801Y95297I49514J24717D01*
G01*
X74064Y94998D02*
G03*
X176319Y94998I51127J30204D01*
G01*
X157631Y107113D02*
G03*
X124598Y168570I-34003J21330D01*
G01*
X170505Y99716D02*
G03*
X124598Y170899I-43258J22497D01*
G01*
X170505Y99716D02*
G03*
X124598Y182805I-45773J28937D01*
G01*
X157631Y107113D02*
G03*
X124598Y156656I-31526J14764D01*
G01*
Y154887D02*
G03*
X99173Y110898I594J-29685D01*
G01*
X125786Y175990D02*
G03*
X86310Y103433I997J-47560D01*
G01*
X125786Y178318D02*
G03*
X73989Y96326I-3352J-55239D01*
G01*
X124598Y184582D02*
G03*
X73471Y96026I594J-59380D01*
G01*
X125786Y161165D02*
G03*
X98654Y110578I1870J-33572D01*
G01*
X125786Y163407D02*
G03*
X86348Y103461I-2580J-41249D01*
G01*
X156098Y106685D02*
G03*
X125786Y155497I-29994J15191D01*
G01*
X151186Y110853D02*
G03*
X125786Y154887I-25994J14349D01*
G01*
X176913Y96026D02*
G03*
X125786Y184582I-51721J29176D01*
G01*
X168879Y99294D02*
G03*
X125786Y169760I-41686J22917D01*
G01*
X158037Y105553D02*
G03*
X125786Y169713I-34409J22889D01*
G01*
X170894Y98130D02*
G03*
X125786Y183983I-46162J30522D01*
G01*
X93306Y106154D02*
G03*
X152728Y109990I28549J19920D01*
G01*
X93306Y106154D02*
G03*
X163085Y104010I35498J18734D01*
G01*
X80510Y98719D02*
G03*
X165064Y102868I41091J26247D01*
G01*
X80467Y98695D02*
G03*
X175374Y96915I47942J25181D01*
G01*
X124598Y177139D02*
Y177188D01*
Y177188D01*
X98249Y108961D02*
X99246Y109551D01*
X98249Y108961D02*
X98249Y108961D01*
X93701Y107697D02*
X93701Y107697D01*
X175801Y95297D02*
X176319Y94998D01*
X175801Y95297D02*
X175801Y95297D01*
X91763Y106561D02*
X93701Y107697D01*
X85914Y101839D02*
X87931Y103004D01*
X85914Y101839D02*
X85914Y101839D01*
X80911Y100322D02*
X80911Y100322D01*
X78896Y99159D02*
X80911Y100322D01*
X75603Y95886D02*
X75603D01*
X74064Y94998D02*
X75603Y95886D01*
X125786Y175990D02*
Y178318D01*
Y163407D02*
Y163407D01*
Y161165D02*
Y163407D01*
X124598Y182805D02*
Y182805D01*
Y184582D01*
Y170899D02*
Y170899D01*
Y168570D02*
Y170899D01*
Y168570D02*
Y168570D01*
X125786Y161165D02*
Y161165D01*
X124598Y154887D02*
Y156656D01*
Y154887D02*
Y154887D01*
X99173Y110898D02*
X99173Y110898D01*
X98654Y110578D02*
X99173Y110898D01*
X86348Y103461D02*
X86348Y103461D01*
X86310Y103433D02*
X86348Y103461D01*
X86310Y103433D02*
X86310D01*
X73471Y96026D02*
X73989Y96326D01*
X156098Y106685D02*
X158037Y105553D01*
X156098Y106685D02*
X156098Y106685D01*
X151186Y110853D02*
X151186Y110853D01*
X125786Y184582D02*
Y184582D01*
X152728Y109990D02*
X152728Y109990D01*
X151186Y110853D02*
X152728Y109990D01*
X175374Y96915D02*
X176913Y96026D01*
X163085Y104010D02*
X165064Y102868D01*
X165064Y102868D01*
X125786Y183983D02*
Y184582D01*
Y169713D02*
Y169760D01*
Y169713D02*
Y169713D01*
Y155497D02*
Y155497D01*
Y154887D02*
Y155497D01*
X80467Y98695D02*
X80510Y98719D01*
D11*
X193635Y150112D02*
G03*
X172010Y180995I-68442J-24911D01*
G01*
X161610Y188277D02*
G03*
X125193Y198035I-36417J-63077D01*
G01*
X112545Y196929D02*
G03*
X78672Y181243I12648J-71728D01*
G01*
D02*
G03*
X78376Y180995I46521J-56042D01*
G01*
X69398Y172018D02*
G03*
X53465Y137848I55795J-46817D01*
G01*
X52358Y125201D02*
G03*
X62116Y88784I72835J0D01*
G01*
X69398Y78384D02*
G03*
X100282Y56759I55795J46817D01*
G01*
X112545Y53473D02*
G03*
X150104Y56759I12648J71728D01*
G01*
X197239Y135890D02*
G03*
X196921Y137848I-72046J-10689D01*
G01*
X197239Y135890D02*
G03*
X196921Y137848I-72046J-10689D01*
G01*
X197169Y114052D02*
G03*
X197239Y135890I-71976J11148D01*
G01*
X196921Y112553D02*
G03*
X197169Y114052I-71728J12648D01*
G01*
X194228Y101982D02*
G03*
X197169Y114052I-69035J23218D01*
G01*
X193635Y100290D02*
G03*
X194228Y101982I-68442J24911D01*
G01*
X193635Y100290D02*
G03*
X194228Y101982I-68442J24911D01*
G01*
X161610Y62124D02*
G03*
X188270Y88784I-36417J63077D01*
G01*
X201358Y174443D02*
X206900Y168900D01*
X71179Y221995D02*
Y223818D01*
X55161Y221995D02*
X63305D01*
X60092Y203034D02*
X63305Y206247D01*
X68592Y201800D02*
X69210Y202419D01*
X58169Y211169D02*
X60352D01*
X41487Y194487D02*
X58169Y211169D01*
X41487Y99779D02*
X55597Y85669D01*
X41487Y99779D02*
Y194487D01*
X55937Y213137D02*
X60352D01*
X67242Y221995D02*
Y223644D01*
X60347Y215100D02*
X60352Y215106D01*
X47043Y219042D02*
X60352D01*
X50074Y217074D02*
X60352D01*
X57300Y206148D02*
X60352Y209200D01*
X69210Y221995D02*
Y224395D01*
X206818Y188963D02*
Y189496D01*
X72405Y224870D02*
X78202D01*
X72343Y224808D02*
X72405Y224870D01*
X78202D02*
X78772Y224300D01*
X77095Y221995D02*
X77100Y222000D01*
X76100Y219042D02*
X89098D01*
X53692Y210892D02*
X55937Y213137D01*
X49892Y210892D02*
X53692D01*
X92900Y215300D02*
Y219700D01*
X199400Y211928D02*
Y217600D01*
X197663Y210192D02*
X199400Y211928D01*
X194838Y210192D02*
X197663D01*
X193581Y208935D02*
X194838Y210192D01*
X189839Y209072D02*
X191621Y207290D01*
X189839Y209072D02*
Y213801D01*
X194700Y184901D02*
X197562Y182040D01*
X194700Y184901D02*
Y187300D01*
X193999D02*
X194700D01*
X73147Y221995D02*
X77095D01*
X72169Y224808D02*
X72343D01*
X71179Y223818D02*
X72169Y224808D01*
X78772Y224300D02*
X88300D01*
X73147Y205281D02*
Y206247D01*
X76100Y206300D02*
Y209200D01*
X60092Y197508D02*
X60300Y197300D01*
X57300Y189680D02*
Y206148D01*
X62900Y200200D02*
Y202225D01*
X65700Y198500D02*
X66700Y197500D01*
X65700Y198500D02*
Y199028D01*
X65708Y199037D01*
Y201363D01*
X65700Y201372D02*
X65708Y201363D01*
X65700Y201372D02*
Y202480D01*
X67242Y204022D01*
X66700Y197500D02*
X68200D01*
X60092Y197508D02*
Y203034D01*
X62900Y202225D02*
X65273Y204599D01*
X57300Y189680D02*
X74684Y172296D01*
X67242Y204022D02*
Y206247D01*
X71179Y203418D02*
Y206247D01*
Y203418D02*
X71717Y202880D01*
Y188422D02*
Y202880D01*
X198751Y216951D02*
X199400Y217600D01*
X193593Y216951D02*
X198751D01*
X190640Y213000D02*
X196500D01*
X189839Y213801D02*
X190640Y213000D01*
X169842Y191938D02*
Y196097D01*
X155877Y210062D02*
X169842Y196097D01*
Y191938D02*
X176014Y185767D01*
X76100Y211169D02*
X78545D01*
X121194Y208262D02*
X125193Y204264D01*
X71717Y188422D02*
X74372Y185767D01*
X68675Y201717D02*
X68908D01*
X65273Y204599D02*
Y206247D01*
X68592Y201800D02*
X68675Y201717D01*
X203055Y138930D02*
X203325Y139200D01*
X207800D01*
X195331Y85669D02*
X197900Y83100D01*
X193664Y85669D02*
X195331D01*
X78672Y181243D02*
X78771D01*
X78168D02*
X78672D01*
X197239Y135890D02*
Y137905D01*
X197169Y112726D02*
Y114052D01*
X192829Y100583D02*
X194228Y101982D01*
X70056Y170268D02*
Y171466D01*
X52953Y124937D02*
X53216Y125201D01*
X188549Y87154D02*
Y88622D01*
X197169Y112726D02*
X197433Y112463D01*
X197169Y125201D02*
X197239Y125270D01*
X213446Y243259D02*
X213588Y243402D01*
X203800Y245818D02*
X213446D01*
Y243259D02*
X217141D01*
X217998Y242402D01*
X222923D01*
X225256Y252200D02*
Y253200D01*
X222923Y247716D02*
X225256Y250050D01*
Y252200D01*
X213446Y245818D02*
X216518D01*
X218417Y247716D01*
X222923D01*
X203800Y243259D02*
X207893D01*
X210079Y241073D01*
X213072D01*
X213446Y240700D01*
X200023Y226909D02*
X202420D01*
X204970Y229459D01*
X200023Y233209D02*
X204016D01*
X205167Y234359D01*
X205505Y252200D02*
X219744D01*
X200800Y240700D02*
X203800D01*
X199700Y241800D02*
X200800Y240700D01*
X199700Y241800D02*
Y246395D01*
X205505Y252200D01*
X182289Y215175D02*
X186043Y218325D01*
X189797Y221475D01*
X187200Y208105D02*
X189660Y205645D01*
X187200Y208105D02*
Y209537D01*
X186085Y210651D02*
X187200Y209537D01*
X179087Y211767D02*
X182301Y207937D01*
X184300Y205938D01*
Y204800D02*
Y205938D01*
Y204800D02*
X185100Y204000D01*
X187700D01*
X175873Y215597D02*
X179087Y211767D01*
X175873Y215597D02*
Y217743D01*
X179256Y221127D01*
X189797Y221475D02*
Y223621D01*
X186344Y227074D02*
X189797Y223621D01*
X197562Y182040D02*
X198465D01*
X202631Y186206D01*
X207478Y181807D02*
Y184964D01*
X204591Y187851D02*
X207478Y184964D01*
X206552Y189496D02*
X206818D01*
Y188963D02*
X207885Y187896D01*
Y187453D02*
Y187896D01*
Y187453D02*
X210152D01*
X212002Y185603D01*
Y184697D02*
Y185603D01*
Y184697D02*
X215130Y181570D01*
X207478Y181456D02*
Y181807D01*
Y181456D02*
X210908Y178027D01*
X215130Y181570D02*
X215777D01*
X218792Y184585D01*
X210385Y178027D02*
X210908D01*
X207302Y174943D02*
X210385Y178027D01*
X210908D02*
X215200Y173734D01*
Y164519D02*
Y173734D01*
X212591Y161909D02*
X215200Y164519D01*
X215130Y181570D02*
X251000Y145700D01*
X54356Y222800D02*
Y227900D01*
X65673Y236501D02*
X65956Y236218D01*
Y224870D02*
X66015D01*
X67242Y223644D01*
X65673Y249099D02*
X70444Y244328D01*
X69210Y224395D02*
X70444Y225629D01*
X76100Y215106D02*
X80950D01*
X81644Y215800D01*
X117497Y244753D02*
X122900D01*
X117300Y244556D02*
X117497Y244753D01*
X122900Y238847D02*
X130400Y246347D01*
Y251400D01*
X152200Y43900D02*
Y50872D01*
X152234Y50906D01*
X98200Y43900D02*
Y50858D01*
X98152Y50906D02*
X98200Y50858D01*
X74684Y170637D02*
Y172296D01*
X66000Y159900D02*
X74684Y170637D01*
X59400Y142200D02*
X66000Y159900D01*
X56112Y138911D02*
X59400Y142200D01*
X56112Y135286D02*
Y138911D01*
X55400Y134574D02*
X56112Y135286D01*
X48826Y134574D02*
X55400D01*
X47331Y136069D02*
X48826Y134574D01*
X47331Y136069D02*
Y138930D01*
X55597Y85669D02*
X56722D01*
X204416Y223000D02*
X210876Y229459D01*
X69210Y202419D02*
Y206247D01*
X191322Y223000D02*
X204416D01*
X68517Y201800D02*
X68592D01*
X68584Y201793D02*
X68592Y201800D01*
X68117Y202200D02*
X68517Y201800D01*
X65956Y224870D02*
Y228100D01*
Y236218D01*
X70444Y225629D02*
Y228100D01*
Y244328D01*
X76100Y213137D02*
X79122D01*
X88300Y224300D02*
X92900Y219700D01*
X53500Y215100D02*
X60347D01*
X52100Y213700D02*
X53500Y215100D01*
X118500Y249500D02*
X120400Y251400D01*
X115700Y249500D02*
X118500D01*
X110000Y245500D02*
Y251000D01*
X110400Y251400D01*
Y250828D02*
Y251400D01*
X110000Y245500D02*
X116356D01*
X117300Y244556D01*
X54356Y222800D02*
X55161Y221995D01*
X54356Y227900D02*
Y232356D01*
X54500Y232500D01*
X189797Y221475D02*
X191322Y223000D01*
Y231278D01*
X123100Y232500D02*
Y238647D01*
X122900Y238847D02*
X123100Y238647D01*
X89098Y219042D02*
X90031Y218110D01*
X251000Y128500D02*
Y145700D01*
X201358Y174443D02*
Y177516D01*
X206900Y168900D02*
X209023D01*
X210845Y170721D01*
X208512Y191141D02*
X213271Y195900D01*
X214000D01*
X225000Y184900D01*
Y183028D02*
Y184900D01*
X222335Y180363D02*
X225000Y183028D01*
X78545Y211169D02*
X78992Y210722D01*
Y205008D02*
Y210722D01*
X79122Y213137D02*
X81800Y210459D01*
Y209059D02*
Y210459D01*
X100211Y208262D02*
X121194D01*
X91249Y199300D02*
X100211Y208262D01*
X73147Y205281D02*
X79128Y199300D01*
X78992Y205008D02*
X82900Y201100D01*
X79128Y199300D02*
X91249D01*
X90031Y212834D02*
Y218110D01*
X82900Y201100D02*
X90503D01*
X99466Y210062D01*
X155877D01*
X87200Y205900D02*
Y210003D01*
X90031Y212834D01*
X46600Y218600D02*
X47043Y219042D01*
X46100Y218600D02*
X46600D01*
X49000Y216000D02*
X50074Y217074D01*
X49200Y210200D02*
X49892Y210892D01*
X49200Y209300D02*
Y210200D01*
D12*
X60350Y219043D02*
D03*
Y217075D02*
D03*
Y215106D02*
D03*
Y213138D02*
D03*
Y211169D02*
D03*
Y209201D02*
D03*
X76098D02*
D03*
Y211169D02*
D03*
Y213138D02*
D03*
Y215106D02*
D03*
Y217075D02*
D03*
Y219043D02*
D03*
D13*
X63303Y206248D02*
D03*
X65272D02*
D03*
X67240D02*
D03*
X69209D02*
D03*
X71177D02*
D03*
X73146D02*
D03*
Y221996D02*
D03*
X71177D02*
D03*
X69209D02*
D03*
X67240D02*
D03*
X65272D02*
D03*
X63303D02*
D03*
D14*
X68224Y214122D02*
D03*
D15*
X172218Y181243D02*
D03*
X176014Y185767D02*
D03*
D16*
X61837Y88622D02*
D03*
X56722Y85669D02*
D03*
D17*
X100172Y56455D02*
D03*
X98152Y50906D02*
D03*
D18*
X150214Y56455D02*
D03*
X152234Y50906D02*
D03*
D19*
X188549Y88622D02*
D03*
X193664Y85669D02*
D03*
D20*
X197239Y137905D02*
D03*
X203055Y138930D02*
D03*
D21*
X161181Y62867D02*
D03*
X165315Y55707D02*
D03*
X89205Y187534D02*
D03*
X85071Y194694D02*
D03*
D22*
X180330Y78935D02*
D03*
X186663Y73621D02*
D03*
X70056Y171466D02*
D03*
X63722Y176781D02*
D03*
D23*
X193493Y164634D02*
D03*
X188720Y161878D02*
D03*
D24*
X152167Y199311D02*
D03*
X150282Y194131D02*
D03*
D25*
X98219Y199311D02*
D03*
X100104Y194131D02*
D03*
D26*
X56893Y164634D02*
D03*
X61666Y161878D02*
D03*
D27*
X47525Y111506D02*
D03*
X52953Y112463D02*
D03*
D28*
X74499Y64786D02*
D03*
X78042Y69008D02*
D03*
D29*
X125193Y46335D02*
D03*
Y51846D02*
D03*
X117300Y239044D02*
D03*
Y244556D02*
D03*
D30*
X175887Y64786D02*
D03*
X172344Y69008D02*
D03*
X222335Y180363D02*
D03*
X218792Y184585D02*
D03*
X210845Y170721D02*
D03*
X207302Y174943D02*
D03*
D31*
X202861Y111506D02*
D03*
X197433Y112463D02*
D03*
D32*
X125193Y198358D02*
D03*
Y204264D02*
D03*
X122900Y244753D02*
D03*
Y238847D02*
D03*
D33*
X78168Y181243D02*
D03*
X74372Y185767D02*
D03*
X186085Y210651D02*
D03*
X182289Y215175D02*
D03*
X193593Y216951D02*
D03*
X189797Y221475D02*
D03*
X189839Y213801D02*
D03*
X186043Y218325D02*
D03*
X201358Y177516D02*
D03*
X197562Y182040D02*
D03*
D34*
X53147Y137904D02*
D03*
X47331Y138930D02*
D03*
D35*
X192829Y149310D02*
D03*
X200598Y152138D02*
D03*
X57557Y100583D02*
D03*
X49788Y97756D02*
D03*
D36*
X161181Y187534D02*
D03*
X165315Y194694D02*
D03*
X89205Y62867D02*
D03*
X85071Y55707D02*
D03*
D37*
X112694Y196084D02*
D03*
X111259Y204226D02*
D03*
X137691Y54318D02*
D03*
X139127Y46176D02*
D03*
D38*
X180330Y171466D02*
D03*
X186663Y176781D02*
D03*
X70056Y78935D02*
D03*
X63722Y73621D02*
D03*
D39*
X137692Y196084D02*
D03*
X139127Y204226D02*
D03*
X112694Y54318D02*
D03*
X111259Y46176D02*
D03*
D40*
X53216Y125201D02*
D03*
X44949D02*
D03*
X197169D02*
D03*
X205437D02*
D03*
D41*
X57557Y149818D02*
D03*
X49788Y152646D02*
D03*
X192829Y100583D02*
D03*
X200598Y97756D02*
D03*
D42*
X203800Y245818D02*
D03*
Y243259D02*
D03*
Y240700D02*
D03*
X213446D02*
D03*
Y243259D02*
D03*
Y245818D02*
D03*
D43*
X219744Y252200D02*
D03*
X225256D02*
D03*
X205167Y234359D02*
D03*
X210679D02*
D03*
X48844Y222800D02*
D03*
X54356D02*
D03*
X48844Y227900D02*
D03*
X54356D02*
D03*
X87156Y215800D02*
D03*
X81644D02*
D03*
X60444Y228100D02*
D03*
X65956D02*
D03*
X75956Y228100D02*
D03*
X70444D02*
D03*
D44*
X326984Y210000D02*
D03*
X225016D02*
D03*
X276000D02*
D03*
D45*
X222923Y247716D02*
D03*
Y242402D02*
D03*
D46*
X236100Y241471D02*
D03*
X232360Y250329D02*
D03*
X239840D02*
D03*
D47*
X220347Y237600D02*
D03*
X226253D02*
D03*
X204970Y229459D02*
D03*
X210876D02*
D03*
D48*
X200023Y233209D02*
D03*
Y226909D02*
D03*
D49*
X65673Y249399D02*
D03*
X87327D02*
D03*
Y236801D02*
D03*
X65673D02*
D03*
D50*
X179256Y221127D02*
D03*
X186344Y227074D02*
D03*
D51*
X178079Y204394D02*
D03*
X182301Y207937D02*
D03*
X174865Y208224D02*
D03*
X179087Y211767D02*
D03*
X171651Y212054D02*
D03*
X175873Y215597D02*
D03*
X210908Y178027D02*
D03*
X215130Y181570D02*
D03*
D52*
X207478Y181807D02*
D03*
X212002Y185603D02*
D03*
D53*
X202631Y186206D02*
D03*
X204591Y187851D02*
D03*
X206552Y189496D02*
D03*
X208512Y191141D02*
D03*
X187700Y204000D02*
D03*
X189660Y205645D02*
D03*
X191621Y207290D02*
D03*
X193581Y208935D02*
D03*
D54*
X110400Y251400D02*
D03*
X100400D02*
D03*
X130400D02*
D03*
X120400D02*
D03*
D55*
X170894Y98130D02*
X170894Y98130D01*
X168879Y99294D02*
X170894Y98130D01*
X168879Y99294D02*
X168879D01*
D56*
X212591Y161909D02*
D03*
X251000Y128500D02*
D03*
D57*
X65862Y216484D02*
D03*
X70587D02*
D03*
X65862Y211760D02*
D03*
X70587D02*
D03*
D58*
X77100Y222000D02*
D03*
X92900Y215300D02*
D03*
X194700Y187300D02*
D03*
X76100Y206300D02*
D03*
X78119Y228300D02*
D03*
X60300Y197300D02*
D03*
X62900Y200200D02*
D03*
X68200Y197500D02*
D03*
X196500Y213000D02*
D03*
X199400Y217600D02*
D03*
X68908Y201717D02*
D03*
X162993Y148300D02*
D03*
X207800Y139200D02*
D03*
X197900Y83100D02*
D03*
X156867Y166681D02*
D03*
X98200Y43900D02*
D03*
X152200D02*
D03*
X111760Y124899D02*
D03*
X94000Y145000D02*
D03*
X52100Y213700D02*
D03*
X115700Y249500D02*
D03*
X110000Y245500D02*
D03*
X54500Y232500D02*
D03*
X191322Y231278D02*
D03*
X123100Y232500D02*
D03*
X225000Y184900D02*
D03*
X202300Y173300D02*
D03*
X81800Y207900D02*
D03*
X87200Y205900D02*
D03*
X46100Y218600D02*
D03*
X49000Y216000D02*
D03*
X49200Y209300D02*
D03*
M02*
