  0
SECTION
  2
BLOCKS
  0
ENDSEC
  0
SECTION
  2
ENTITIES
  0
LINE
  8
0
 10
29.9
 20
30
 11
0
 21
30
  0
LINE
  8
0
 10
0
 20
30
 11
0
 21
0.599991
  0
LINE
  8
0
 10
0
 20
0.599991
 11
29.3
 21
0.599991
  0
LINE
  8
0
 10
29.3
 20
0.599991
 11
29.3
 21
29.4
  0
LINE
  8
0
 10
29.3
 20
29.4
 11
0.599991
 21
29.4
  0
LINE
  8
0
 10
0.599991
 20
29.4
 11
0.599991
 21
1.2
  0
LINE
  8
0
 10
0.599991
 20
1.2
 11
28.7
 21
1.2
  0
LINE
  8
0
 10
28.7
 20
1.2
 11
28.7
 21
28.8
  0
LINE
  8
0
 10
28.7
 20
28.8
 11
1.2
 21
28.8
  0
LINE
  8
0
 10
1.2
 20
28.8
 11
1.2
 21
1.79999
  0
LINE
  8
0
 10
1.2
 20
1.79999
 11
28.1
 21
1.79999
  0
LINE
  8
0
 10
28.1
 20
1.79999
 11
28.1
 21
28.2
  0
LINE
  8
0
 10
28.1
 20
28.2
 11
1.79999
 21
28.2
  0
LINE
  8
0
 10
1.79999
 20
28.2
 11
1.79999
 21
2.39999
  0
LINE
  8
0
 10
1.79999
 20
2.39999
 11
27.5
 21
2.39999
  0
LINE
  8
0
 10
27.5
 20
2.39999
 11
27.5
 21
27.6
  0
LINE
  8
0
 10
27.5
 20
27.6
 11
2.39999
 21
27.6
  0
LINE
  8
0
 10
2.39999
 20
27.6
 11
2.39999
 21
3
  0
LINE
  8
0
 10
2.39999
 20
3
 11
26.9
 21
3
  0
LINE
  8
0
 10
26.9
 20
3
 11
26.9
 21
27
  0
LINE
  8
0
 10
26.9
 20
27
 11
3
 21
27
  0
LINE
  8
0
 10
3
 20
27
 11
3
 21
3.59999
  0
LINE
  8
0
 10
3
 20
3.59999
 11
26.3
 21
3.59999
  0
LINE
  8
0
 10
26.3
 20
3.59999
 11
26.3
 21
26.4
  0
LINE
  8
0
 10
26.3
 20
26.4
 11
3.59999
 21
26.4
  0
LINE
  8
0
 10
3.59999
 20
26.4
 11
3.59999
 21
4.2
  0
LINE
  8
0
 10
3.59999
 20
4.2
 11
25.7
 21
4.2
  0
LINE
  8
0
 10
25.7
 20
4.2
 11
25.7
 21
25.8
  0
LINE
  8
0
 10
25.7
 20
25.8
 11
4.2
 21
25.8
  0
LINE
  8
0
 10
4.2
 20
25.8
 11
4.2
 21
4.79999
  0
LINE
  8
0
 10
4.2
 20
4.79999
 11
25.1
 21
4.79999
  0
LINE
  8
0
 10
25.1
 20
4.79999
 11
25.1
 21
25.2
  0
LINE
  8
0
 10
25.1
 20
25.2
 11
4.79999
 21
25.2
  0
LINE
  8
0
 10
4.79999
 20
25.2
 11
4.79999
 21
5.39999
  0
LINE
  8
0
 10
4.79999
 20
5.39999
 11
24.5
 21
5.39999
  0
LINE
  8
0
 10
24.5
 20
5.39999
 11
24.5
 21
24.6
  0
LINE
  8
0
 10
24.5
 20
24.6
 11
5.39999
 21
24.6
  0
LINE
  8
0
 10
5.39999
 20
24.6
 11
5.39999
 21
6
  0
LINE
  8
0
 10
5.39999
 20
6
 11
23.9
 21
6
  0
LINE
  8
0
 10
23.9
 20
6
 11
23.9
 21
24
  0
LINE
  8
0
 10
23.9
 20
24
 11
6
 21
24
  0
LINE
  8
0
 10
6
 20
24
 11
6
 21
6.59999
  0
LINE
  8
0
 10
6
 20
6.59999
 11
23.3
 21
6.59999
  0
LINE
  8
0
 10
23.3
 20
6.59999
 11
23.3
 21
23.4
  0
LINE
  8
0
 10
23.3
 20
23.4
 11
6.59999
 21
23.4
  0
LINE
  8
0
 10
6.59999
 20
23.4
 11
6.59999
 21
7.2
  0
LINE
  8
0
 10
6.59999
 20
7.2
 11
22.7
 21
7.2
  0
LINE
  8
0
 10
22.7
 20
7.2
 11
22.7
 21
22.8
  0
LINE
  8
0
 10
22.7
 20
22.8
 11
7.2
 21
22.8
  0
LINE
  8
0
 10
7.2
 20
22.8
 11
7.2
 21
9
  0
LINE
  8
0
 10
7.2
 20
9
 11
7.5
 21
9
  0
LINE
  8
0
 10
7.5
 20
9
 11
7.5
 21
22.5
  0
LINE
  8
0
 10
7.5
 20
22.5
 11
22.4
 21
22.5
  0
LINE
  8
0
 10
22.4
 20
22.5
 11
22.4
 21
7.5
  0
LINE
  8
0
 10
22.4
 20
7.5
 11
6.89999
 21
7.5
  0
LINE
  8
0
 10
6.89999
 20
7.5
 11
6.89999
 21
23.1
  0
LINE
  8
0
 10
6.89999
 20
23.1
 11
23
 21
23.1
  0
LINE
  8
0
 10
23
 20
23.1
 11
23
 21
6.89999
  0
LINE
  8
0
 10
23
 20
6.89999
 11
6.29999
 21
6.89999
  0
LINE
  8
0
 10
6.29999
 20
6.89999
 11
6.29999
 21
23.7
  0
LINE
  8
0
 10
6.29999
 20
23.7
 11
23.6
 21
23.7
  0
LINE
  8
0
 10
23.6
 20
23.7
 11
23.6
 21
6.29999
  0
LINE
  8
0
 10
23.6
 20
6.29999
 11
5.7
 21
6.29999
  0
LINE
  8
0
 10
5.7
 20
6.29999
 11
5.7
 21
24.3
  0
LINE
  8
0
 10
5.7
 20
24.3
 11
24.2
 21
24.3
  0
LINE
  8
0
 10
24.2
 20
24.3
 11
24.2
 21
5.7
  0
LINE
  8
0
 10
24.2
 20
5.7
 11
5.09999
 21
5.7
  0
LINE
  8
0
 10
5.09999
 20
5.7
 11
5.09999
 21
24.9
  0
LINE
  8
0
 10
5.09999
 20
24.9
 11
24.8
 21
24.9
  0
LINE
  8
0
 10
24.8
 20
24.9
 11
24.8
 21
5.09999
  0
LINE
  8
0
 10
24.8
 20
5.09999
 11
4.5
 21
5.09999
  0
LINE
  8
0
 10
4.5
 20
5.09999
 11
4.5
 21
25.5
  0
LINE
  8
0
 10
4.5
 20
25.5
 11
25.4
 21
25.5
  0
LINE
  8
0
 10
25.4
 20
25.5
 11
25.4
 21
4.5
  0
LINE
  8
0
 10
25.4
 20
4.5
 11
3.89999
 21
4.5
  0
LINE
  8
0
 10
3.89999
 20
4.5
 11
3.89999
 21
26.1
  0
LINE
  8
0
 10
3.89999
 20
26.1
 11
26
 21
26.1
  0
LINE
  8
0
 10
26
 20
26.1
 11
26
 21
3.89999
  0
LINE
  8
0
 10
26
 20
3.89999
 11
3.29999
 21
3.89999
  0
LINE
  8
0
 10
3.29999
 20
3.89999
 11
3.29999
 21
26.7
  0
LINE
  8
0
 10
3.29999
 20
26.7
 11
26.6
 21
26.7
  0
LINE
  8
0
 10
26.6
 20
26.7
 11
26.6
 21
3.29999
  0
LINE
  8
0
 10
26.6
 20
3.29999
 11
2.7
 21
3.29999
  0
LINE
  8
0
 10
2.7
 20
3.29999
 11
2.7
 21
27.3
  0
LINE
  8
0
 10
2.7
 20
27.3
 11
27.2
 21
27.3
  0
LINE
  8
0
 10
27.2
 20
27.3
 11
27.2
 21
2.7
  0
LINE
  8
0
 10
27.2
 20
2.7
 11
2.09999
 21
2.7
  0
LINE
  8
0
 10
2.09999
 20
2.7
 11
2.09999
 21
27.9
  0
LINE
  8
0
 10
2.09999
 20
27.9
 11
27.8
 21
27.9
  0
LINE
  8
0
 10
27.8
 20
27.9
 11
27.8
 21
2.09999
  0
LINE
  8
0
 10
27.8
 20
2.09999
 11
1.5
 21
2.09999
  0
LINE
  8
0
 10
1.5
 20
2.09999
 11
1.5
 21
28.5
  0
LINE
  8
0
 10
1.5
 20
28.5
 11
28.4
 21
28.5
  0
LINE
  8
0
 10
28.4
 20
28.5
 11
28.4
 21
1.5
  0
LINE
  8
0
 10
28.4
 20
1.5
 11
0.899994
 21
1.5
  0
LINE
  8
0
 10
0.899994
 20
1.5
 11
0.899994
 21
29.1
  0
LINE
  8
0
 10
0.899994
 20
29.1
 11
29
 21
29.1
  0
LINE
  8
0
 10
29
 20
29.1
 11
29
 21
0.899994
  0
LINE
  8
0
 10
29
 20
0.899994
 11
0.299988
 21
0.899994
  0
LINE
  8
0
 10
0.299988
 20
0.899994
 11
0.299988
 21
29.7
  0
LINE
  8
0
 10
0.299988
 20
29.7
 11
29.6
 21
29.7
  0
LINE
  8
0
 10
29.6
 20
29.7
 11
29.6
 21
0.299988
  0
LINE
  8
0
 10
29.6
 20
0.299988
 11
0
 21
0.299988
  0
LINE
  8
0
 10
0
 20
0.299988
 11
0
 21
0
  0
LINE
  8
0
 10
0
 20
0
 11
29.9
 21
0
  0
LINE
  8
0
 10
29.9
 20
0
 11
29.9
 21
30
  0
ENDSEC
  0
SECTION
  2
OBJECTS
  0
DICTIONARY
  0
ENDSEC
  0
EOF
